<mxfile host="app.diagrams.net" agent="Mozilla/5.0 (X11; Linux x86_64; rv:130.0) Gecko/20100101 Firefox/130.0" version="24.7.14">
  <diagram name="Page-1" id="RvbeOIWOcMpM6_E4-Hef">
    <mxGraphModel dx="1134" dy="580" grid="0" gridSize="10" guides="1" tooltips="1" connect="1" arrows="1" fold="1" page="1" pageScale="1" pageWidth="850" pageHeight="1100" math="0" shadow="0">
      <root>
        <mxCell id="0" />
        <mxCell id="1" parent="0" />
        <mxCell id="GYKvl5S0yWye8PO-afOo-3" value="" style="shape=image;verticalLabelPosition=bottom;labelBackgroundColor=default;verticalAlign=top;aspect=fixed;imageAspect=0;image=data:image/png,iVBORw0KGgoAAAANSUhEUgAAATAAAABbCAYAAAD0v9neAAAABHNCSVQICAgIfAhkiAAAABl0RVh0U29mdHdhcmUAZ25vbWUtc2NyZWVuc2hvdO8Dvz4AAAAvdEVYdENyZWF0aW9uIFRpbWUAV2VkIDExIFNlcCAyMDI0IDAxOjE5OjQwIFBNICswNTQ1dtiJDgAAIABJREFUeJztnXlcVOX+xz9nmY1lgGGRHVREFE1zSU1zuVopioplakrazVKz1H4/vb9bLmm3xWvlklppXa+hlIVr5IqKmZZbipqGu2yyrw7MMMs5vz9GTJhzhhlmYECf9+uFLznPc57ny3D4nGf5fr8PxfM8DwKBQGiB0M42gEAgEBoKETACgdBiIQJGIBBaLETACARCi4UIGIFAaLEQASMQCC0WImAEAqHFQgSMQCC0WIiAEQiEFgsRMAKB0GJhnW2ALWirDTh3KQfXbhbiRmYxbmQUI6+gAsVlVSgr16CsQgOlmwyeHi7w8lAgwE+J1qEqRIT5ICLcB493CoK7q8zZPwaBQHAQVHOPhfztbAZ27f8DJ9MykXYpx+72OrZrhSe6hmL44I4Y0q+dAywkEAjOolkKWGFxJRJ3/o7N23/HjYziRusnsJUSL47uhpee64GQQM9G64dAIDQOzUrASss1+GLTcazb/Bsq1NVN1q9MymLK2J548+V+CPL3aLJ+CQSCfTQLASsoVmPNxmP4z5aTqNLonWaHhGXw4ujHMW/6ICJkBEILwOkC9supm5j17k7czipxphm18PN2w/v/GIaxw7s42xQCgWABpwmYttqAhZ/sxdffnXRG91Yx8ulorFoyGp5KhbNNIRAIAjhFwG5nlWDCG5uRfqOgqbu2mWB/D3yzcgK6dQp2tikEAqEOTS5gx8/cxotvbGrSRXp7kUoYfPHh8xgzrLOzTSEQCA/QpAJ28Ng1THxzM3R6Y1N16VBWLR6Nl57v4WwzCATCPZoslChxx1mMez2hxYoXAMxevBMff3nE2WYQCIR7NMkI7JdTNxH36kYYjVxjd9UkrFs6Fi+MIDuUBIKzaXQBO/tHNkb9fQPUVbrG7KZJYRgaO76agqeeaONsUwiER5pGFTCNVo/eI1ch805ZY3XhNDyUcpxKngM/bzdnm0IgPLI06hrY//7rx4dSvACgvEKL1/4vCc0gkIFAeGRpNAH7dudZfLfrXGM13yz4+cQN/Pvzw842g0B4ZGmUKWRpuQbdY5ajtFzj6KabHVIJg+M73kREuI+zTSEQHjkaZQQ2f9meR0K8AECnN+KtJbucbQaB8EjicAHb//OVh37qWJdjp2/h251nnW0GgfDI4fAp5IgpX+P4mduObLJF0CbUG6eSZ4NhbHsnxMbGIjc3V7Bs165dCAoKstu2Cxcu4O9//7tg2ciRI7Fo0SK7+yAQnIFDR2DHTt16JMULAG5mFmPn/j9svi8uLk60LDk52R6T7rNnzx7RstjYWIf0QSA4A4cK2NLPDzmyuRbHZ//9xeZ7Ro4cKVq2d+9ee8wBAHAch/379wuWBQQE4PHHH7e7DwLBWTjsVKLi0iqcTMt0VHMtkgt/5uJiei46RwVYfY+Pjw969+6NEydOmJXl5OTg4sWL6Ny54Vkwjh07hrt37wqWjRo1qsHtEpqeH3/8UXC54amnnkLHjh2dYJHzcZiA7TrwBwyGhyPW0R627b1gk4ABwIgRIwQFDDCNwuwRMEvTx9GjRze4XULT8+OPPyItLc3sure39yMrYA6bQm7fe8FRTbVoGrIO9re//Q1yuVywbO/eveC4hr0YNBoNjh49KljWs2dP+PgQ3zVCy8YhAlahrsbp81mOaKrFk5Fdiqs3C226RyqVIiYmRrDs7t27+PXXXxtkS0pKCnQ64SB6S2tvBEJLwSEC9svJGy06z5ejOXTsms33WNoNbOhivtj0US6XY/DgwQ1qk0BoTjhEwB5V1wkxjp+5ZfM9nTt3RlhYmGBZamqq6EhKjNLSUpw5c0awbOjQoZBKpTbbSCA0NxyyiH/hzzuOaOah4cKfwo6p9REbG4s1a9aYXdfpdDh48KDoNFMISz5kzcn3Kz09Hbdv30ZBQQEkEglatWqFtm3biop5Q9Fqtbh8+TKysrJQXFwMlUqFwMBAREdHw9XV1aF9tVQMBgPS0tJw584dFBcXQ6lUIigoCNHR0XB3d3e2eYI4RMAycx7OlDkNJSe/HBzHg6Ypm+4bPXo01q5dK5iiZ8+ePTYJmNj0MSAgAF26dEF6ejqWL18uWKdTp06YNWuW1X1dvHgRq1evFiwbN26c2XS1qqoK33//PXbt2oXs7GzB+wIDA/Hyyy8jLi4O169fx7Jly8zqtGnTBv/85z8t2nblyhWsWbMGp0+fhsFgMCunKApdu3bF7Nmz0alTJ6SmpuK7774zq9e3b19Mnjy51rWZM2dCrzc/iHnBggUIDQ21aNeBAwewdetWs+vdunXD9OnTkZOTgyVLltQqu379umBbiYmJOHDggGhfXbt2xeuvvy5anpOTg2+++QYHDhyAWq0WbeOtt95CdHQ0du7cKfh8xcbGNvnL0W4Bq9TokJNf3rCbaR50YDVoTw6UHOAqafBFDLhCib1m2QzF8KCDdKA8OFBSHtxdCsYiGiiVATYGW3Ecj+u3ixDZxtem+zw9PdGnTx/BRftTp06htLQUXl5e9bZz69Yt0Yd9zJgxAICoqChUVVUhPT3drM7Zs2cRExODiIgIq+xetWqV4Pa+UqnEk08+Weva7t27sWLFCpSVWX7p3blzBx988AF+++03TJgwAWfPmseaWppW8zyP5cuXC4pR3Xrnzp3DlClTMHfuXFAUJdhXcLD5sXpnz54VFLCqqiqLfQJAXl6eYD9KpRKAaQdZqFyIrKwsZGWJb6K5uQkn3TQYDFixYgWSkpLq3elOS0vD5MmTsWDBAuTk5Aja1r17d6vsdSR2C1hewV1wnG1/4XxEBdxfqIR7awUktdZiOAAc9Bo1ys8aofnWE7zaYa5qgjARGijjq+AaIgNdK46RBw8DNBUVKD2pg2GHD6hKmdXt5uSV2yxggOktJiRgHMdh3759mDBhQr1tWDt9nDdvHl555RXBeitXrhScztblxIkTguIFANOmTYNC8dehwP/973+xdu3aett8kMOHD6O83PYX5JIlS/DTTz/ZdM8nn3yCHj2ET52iKNtG080djUaDefPmifofivHBBx+gS5fmcx6E3epQUlb/2+ZBmBdy0epZVyhYFWJcu6KrIgzhEl/4sUpk60txW1eA09qbONz3Eqq7q1H4uQyG841wMjYDuMWXwWsgCy/GG3FuPdFO5o/WEl+4MXLc0BXgtq4QKdKLuPR0Nip7laHoczmoPz2sat7Wz6WGQYMGwc3NTXAov3fvXqsEbN++fYLXe/fuXcv3q0uXLhgwYAB+/vlns7o1wtS1a1eLfa1cuVLwekBAAJ5//vn732/dutVm8arh999/F7wulodg48aNNotXDWIbH0bjw7XL/vbbb9ssXoDpMxd7YTkDu3chy+9qreyJBxWfhcAYJUJkPljvPxVz/GIw2PMxtHMPgqeLO6KVIRim6oZ3WsXhY78X4eviiYA5RjBdhENh7MHt1WKoBknRRxGJbwJnYLLPADzl2QEh7n5QuSjR3aMt4lRPYFXAZEz3GAw3pRL+sw0wdLDOx6taZ77eYg0sy2Lo0KGCZZcvX0ZOTo7F+8+cOYOCAuETz4XWJ2bNmgWaFn4MPvnkE4t9HTlyRHSqOmvWLDAMA8C0dvPpp59abKshCI2KLl++bNXI0RF9tVQ2b96MY8eOOdsMh2D3CKy62nwNQAh9nzsI7a9EIOuFVf4voZXCCxJWApZlaj0cHMeBNRrRg47Ap8wkvJW/Cbpppch7uxpUufVTOEtIBpfBq7ccveUReK/VC1BIZWAlLBiaNrfFwGCc95PwZFywrOQneEwpQMXyu2DyLe/KaKsbJmCASWiEFngB0/Rw+vTpoveK+YzJ5XIMGjTI7HpYWBji4uKwbds2s7L09HQcOnRI1GdMTCiioqLw9NNP3//+008/FVwrqqFt27bo06cPIiMj4efnh6KiImzZsgV//GF7VEN94tW2bVu8+OKL99MUFRQUYNOmTbh2zbLvXlMLmEKhQLdu3Wpdu3r1quDIPCQkBL6+4ssVD65llpeXY926dRb77t27N7p06YL27dvDxcUF6enpSExMRGGhbQ7aTYHdAiaTWbHgznJQjtDDX+6FpX4T0ErhBZlUCpZlQdN0rREAx3Gg7wlJBALwvs9YzOW/RfmoCmgTHCNgHrEcusjCsMjvOShkMkglEjAMA4b5S0x5ngfHcaAoChRF4VmPrigzVuELPgVlT+WC2dp428rR0dEICwtDRkaGWdnevXtFBcxgMIjuRsXExIj6fk2bNg27d++GVms+ml67di0GDhx4fzRVw/79+3H79m3B9ubNm3f//+fPn8fp06cF67Esi0WLFgnurg4dOhSHDh3Cu+++K2iXEJcuXcKpU6cEyyiKwttvv424uDgzMRo2bBh27NiBDz/80Kp+moKgoCCsX7++1rWpU6cKTt8mTpxYa7puicTERGg0wtmSAwMDsWLFCrRt27bW9R49emDcuHFYu3YtNm/ebOVP0DTYPYWUS+vXQH2HQqj8VOgpb4tQuQ8kEglYlq0lGjVfDMOAZVmwLAuJhEUn11BESQLh0ZsGap47hgfja4SsezXcYjRwi6uC+7hKKOPvQjlJDfexlXAbqYHrMxpIovSgPf7aYWF7quHiJccIt8fhKpFDcq+vGjGtsYOm6fvXa2wZpuwCF1oOzyck4N2qLX8uMvveDWKB1jUZKoQ4cuSI6MNpKXRIpVLhpZdeEizLzMzEjz/+WOsax3H4/PPPBev37du31iKv2HocAMyfP9+ia8jgwYMxf/580fK6a2BHjhwRrTtz5kyMGTNGcCRFURTGjBmDxYsXi97/sFD3d1mDXC7H+vXrzcSrBolEgjlz5ogubzgLB4zA6m+C7XUXDOuO/q5RYFgGLMPcH3lpdTr8cvYsMnLvoE1QMJ7q1g2Se+LGcRwYhsGTikhc0GXC/e18uPjT4FkOFGwf0nPVNHSVHCTwQC/XCDCsSUBrhCu/pBjH09JQoVbjsXaR6NahAxiGAc/zYBgGSokrHpeFodSjHKWtSyC9KJ51QmaFsFsiNjYWn332mahPmFCGCrHpY1hYGDp16mSxv/j4eCQlJaG0tNSs7IsvvkBMTAxkMtMIODk5WXAtjqIovPnmm7WupaamCvYXHR1tlc/QsGHD8P3331s1nfztt98Er/v7+2PSpEn13j9ixAhs2LABmZkPZ1qojIwMFBUVCZZNmTIF/v7+9bYxd+5cpKamorra8gu8qbB7BObt5VJvHTbINAJqJ/W/LxY0TeNqRgZGzHoDcz5ZhhWJm/HmsqUYOWcWcosK79ehaRod5ffSKvtUAyzfIPECAFrGgfECQiXecGcV99e8aJpG8tGfMXTm61j4+Vp8nPAN4hfOx+yPl8F4bxpZY0sbSSvIZDIYAy1vLLTysW+K6enpib59+wqW7du3z8xv5+7duzh+/LhgfWsCtxUKBWbMmCFYVlJSgi1btgAwTVPF1lCGDx9ea71Fq9WK/sFYykRbF2vT/ohtcIwZMwYsa90L5ZlnnhG83tCMIM2JGzduiJZZ+xl7enqa+fY5E7sFLDxYZdnjnOXAyk3duDJyUDC9qTmex+sffYDcOg94Zl4e3v/6q/tDfQoUVMxfjng0w4BiWNAsC0YqASOVgpVJwcpkkMjlYOVyMDIZWKkUjFQKRiIFzbKmexgGDEPDi3a7L4IUReFqRgbeXv0ZdHUWmg+ePIEt+/b+NcUFBRXjCoqiQXtY3lYPDfK09iMURWyEIpShYv/+/aKe5tYmLhw1apSoB/mGDRugVquxfft2wV1OqVRq5u1dWVkp2ldUVJRVNgEQHT3WnQ6KeZGLTYuEeJjzaokltlSpVDalVrInP52jsVvAaJpCm1Bvi3VqdqAqjVrwMK1dXLpxw0y8avj599+huTdE5cEj31B27/+ARK6AVC6HRCYHK5GBlUjBsFIwrAQ0w4JhWLCsBIxEClYiBSuVQiKTm+6RK2AwGJFvLAd/z72e53kcOXNa1Kdo7/Hj4Hn+/leJsRI8x8OgExcwV4UUwQH2C9iAAQNEvajrThfFpo99+vSBp6d1tjAMgzlz5giWVVZWYt26dfj6668Fy8ePHw8/P79a18TW4wCI5j8Twpo/LqPR6JBT0ms84esi5mrSkhD7fdQsDViLpR3PpsYhv5XI1hZ+IAMNXaVJwK7p8sBxHHieR8fWrfH7t1sw7plnzW7heR6FpSXgOA4cxyFDVyN09m9l63U65BnKcNeggfGeLX8fNRrHNmxExzZtzOoXlpbet4PjOdzU56NapwVVKb772jq0nlGplbAsi+HDhwuWPZihoqCgAOfPnxesZ2ver/79++Oxxx4TLPvuu+9QUlJidt3V1VXw1CMx8QWAiooKq22yxhOfYRhR8bFl+z8vL0/wuqPPfxZzy2hMdw2xz0dsZCZGfWFgTYlDBKxzlOXFP91VGkajAUcr02E0GGEwmN6W/1q/Dt8fMD9wwt3FBQHePjAYjTAajfhFcwVajQYyuf1uFJzRCD2MOFl5HUaDqf3i8nJMeXchLt+8aVa/U0QEOI6DwWhEhb4S56ozUFFWDjZP+GEAYHNKaUuITSN1Oh1SUlIAiO8subm5YeDAgTb3+Y9//MOm+lOnThUUKw8P8aiFK1euWN2+2K5rXVHx9haeCdjitClWV0hYxNxSrImFFJvuSiSNFwcsNhJXq9X1Okg/iNjvwxk4RMD69TQfuTwIe8MbxYVFOFB1ATc1+dAb9DAYDIgICRGs/8a48TAYDDDoDTh59zrOVd9GSUkxFC71bxjUh1yhQKX6LjZXHEOlXgu93gAPV1f4Czz8LMPg1bg46O/ZklB6DFWcFmXFxZDcUon20a9na7vtrCEqKko0tUzNtFEs9nHo0KFWL17X7XPIkCFW1fX19RUNb6IoSjQgfOfOnVbbk5SUZFU9sRi9Y8eO4erVq/XeX1ZWhoMHD1ptl1hgvZh/3IOIOc6qVOLPldg01trRrKV1x927d1vVRllZmUV3labGIQLWs2uIRbcByQ0flNwpQbWuGgsKf0CephTVOh1eGPI0PnrjTXSKiIBUIkH7sDC8N30G4gYOgk6nx/WqO/ioZBc0miqT6wVlv7kKVxeUlZYgQ1eE9wq2QaPTQqfTYdmsOZg25jmEtGoFF7kcPTtGY+Pi9xDk6wedTof95eexQ30ahfkFoHOUoNTio0FHChgAPPfcc4LXT5w4gePHj4u+Pe05dWjWrFlWid/MmTMt1uvTp4/g9StXrlgVr/jTTz/h0qVL9dYDTB7kYixatMjipoJarcbs2bMFN0IA4Smk2Nrc4cOHLdpZVlYm6vJhaX1JLG/ZTYGZgxAqlUp0QyMhIUH0gOUHWbp0qc3JNRsThwiYTMqi1+PCu1eMnxH+H5bDL8Qbt65fR1Z1Ed7K24Qr6hxoq3UY8Hh3fD1/IY5+9R98s/g9DO75BLTV1fi1Ih3/k5+IIk0Z8u/kQuXtmAMoGJqBp4cncrIz8Zv2GhblJyG/qgxGI4fJI2KRtPRjHP5yPT6b+w+0DghElVaDLcW/4t8lySgrL0VRYQECeinh+ZrwukF4iAqhQfWnvLGFYcOGiZbVzRlVQ+vWrdGhQ4cG9xkYGFivd3fbtm3rzVH27LPma5w1fPTRRzh0SPws0T179uD9998XLa87revXr5/oNOn69euIj49HSkpKrekbz/M4dOgQJk2aZFEohaaQYiO+EydOiI5SjEYjli5dKhpaZemcTrERX0pKCu7cEU4qmp6eXkuYxNxEtFotZsyYITp61Ol0+Pjjj20aoTYFzGIHuR/zPI89h/+sdU0SaoT3OyUAy0MqkYJhGdzJyQKtlGO35jzOVN2EzqADyzFgjRRuaPKxv/w8lhftwTb1KVRo7uJOTjYCAgMglQnvWtF6I+QV1dDL2b8eMo6HS6kGBikDCCyms1IpaB4oKMxHhcKIneozuKbNA2/gIONZGPUGXKrKwvayk1hWnIxj2isoLytDTmYWQkKDTJEE/gbII43QnKg9Eps2sTf6PWF5Sm0rCoUC6enpgqFFYjtLkydPtjvtSXR0NLZt2yb6x7ZkyZJ6E/f5+Pjgjz/+EMxXZTQacfDgQRw/fhwuLi7w8PCATqdDamoqFi9ejK1bt1r0v/Lz86vlv1QT3SGWZaG8vByHDh3Cxo0bsWfPHhw+fBhfffUVduzYUe80rH379hgwYECtazKZTHT9MSUlBVlZWeA4DiqVCpmZmUhOTsayZctEM164u7tj7ty5olPFvLw8wVRLPM8jNTUVwcHB8PHxQXZ2Nn755ResW7cOK1asQHV1NZ566ikAQGRkJH744QfB32lFRQWSkpJw69YteHp6wsvLC5mZmdi+fTvmz58vancN3bt3F01H1FhQvIO2V6o0erTr/yGqNKYPhlYZ4fuvUoC69wDSNMBxqKyqRH5+IXx8fODprYJEYr4QqqvWoqigEHpdNfyDAiGVK0SdV12Kq+BWqkVJsBIGuWkqI1NXwyOvEhW+LtB6CAsfxxlRdbcCBfmFUPl4Q+nhVScfmMmFo0pdicL8fOh01QgMDICElYBiaPBG089VfV6BsnUmp1WGoZG2/38R7G9dyh1bOHLkCObOnWtVXYqikJKSYrX7hCWmTJki6AXfo0cPfPnll1a1ce3aNbz00ksWA7obQqdOnbBx48Za1wwGA+Lj4+sNzraVESNGmIUa8TyPiRMnWrW+Zg2vvfYaXnvtNdHy9PR0qyIK6sKyLJKTk+9PT7ds2VJvppGG8Oqrr2LatGkOb9cSDnNucVFI8OJoU/Q8JeHhs7DMJF4UIFEoIJUrQDMMXF1cER4WAs5oxNU//8S1P/9E1u1byM3JRuatm7h6+TLuZGXB1VWB4PBwyOQuFj3vtZ5ylAa5wyD7K9i42lWK0iB3VLuLH1xB0wxcPTwRHBoMvU6H61fTcePqVWRnZCA3Oxu3b1zHnxcuIDc7C+5KN4SFhppGXjIZpHIXMPd2oGRdNHAfa9p1erZ/+0YRL8A0PbLklvAgffv2dYh4HT16VDSER8xfTIh27drVCvB2FELvXpZl8emnn4q6DNSH2M6i0KioJkDcEQQEBJilrK5LVFRUvSFhQhgMBmzatOn+9+PHjzcbTbZUHOqd9+oE0yKq5/+UQK9TQ6+pBiuVg6ZNAdsSuQIShQISmRxeKi+0aRMOH19vuLm6Qi6Xwd3dDcGhwQgODYXSyxsMU/8iMsfQ0CskwINrFBQFvUICvh7nQwoUpHIXqHz90LpNG/j6+sDVVQG5QgYPpTuCg4MRHBICpbsSjFQGqcIVDGva5jY50LIwaKoh6V0ESWQ1ZsQ3XogFy7JW5xt3xJmPRqNRNGf+M888Y5MnPWAK57GUBsgSAQHCbiliPlOBgYFITExEGwG/Pks8+eSTmDJlimCZ2ESlc+fOWLBggU391MXNzQ2rV6+2yqH0nXfeadDO8rZt22r5e33wwQfo1auXze0Aps+3ueBQAYts44t+LwYCKjV4ngdNS4A6axg0zYCVyiBVuEDupoSHyhtKlTc8Vd7w8vGDi5sSrFTWpPmXGIaBRCaH0ksFTx9feHh5w0PlAzcvL8hd3SCRK8BKJGY28UaA52lwOg6+z2vR7wnH7j7WxZqUKW5ubujfv7/dfSUlJQkeuMGyLN54440GtTl16lQsXLjQpiPd+vXrh4ULF9rcV0BAABITEzF79uxaaa2FkMlkmDNnDlauXGmWNqgGSzaPHj0aixcvtnqE/CAdOnTAhg0bEB4eblX9yMhIvP/++zb7i7Vu3brWOp9cLseqVausjoGsYc6cORY3Zpoah8dHzIwZAFpCg5XJTIHbFkZRFCjQdE1KneYRqmGyiQZtldsGBZaVgGZZjFf9rdFtCwsLQ2RkpMU6w4cPb9Ab+kHUarVowPZzzz1n1xt41KhR+OGHH9C3b1+Ldnp7e2Px4sVYuXJlg8+wlEgkiI+Px759+7BgwQL06NEDrVq1Asuy8PPzQ9euXTF37lzs27cPkyZNAk3Toov5lvyzANMa2c6dOzF16tR66wKmkdt7772HhIQEm0eKQ4YMQUJCAvr161dv3fDwcCxcuBAJCQn3kzjWwLIsFixYgDVr1tT7XEVFRSEhIaFBa3CNicMW8R8k5tuPkd0uG6DoJh1JNTU8x8GoM0CW54Kzz5kf+9VSWbFiBRITE82uy+Vy7N6926KHvS3o9XpcunQJFy5cwIULFwCYUt907doVAwcOtFuIG8LLL78s6Gn+zjvv3D/RqT44jkN6ejrOnTuHjIwM5OXlQSaTISQkBBEREejZs6fD4glzc3Nx9OhR3Lx5E7m5uZDJZPfP1uzevXu9u8QPolarcf78eVy8eBGXL1+Gu7s7AgICMGDAgGYVwP0gjSJgOWXliDn/L8Ct5acgqQ9eS+HLoBl4Mty6I8iaO7m5uYiLixN06Jw+fTqmTp3qBKuahuvXr2P8+PGCZYmJiWjfvn0TW0Soj0aZtwV5emCsfmBjNN3s6F7U8aERLwBYvny5oHh5eXkhPj7eCRY1jM2bN1sV0lODRqPBRx99JFjm6elJxKuZ0mgLTwuGjEDArfozPLZk5Nmu+M/Il51thsO4ePGiaAbVGTNm2Jx2xVkUFhZi9erVGDt2LBYuXFhv8PGtW7cwZcoU0Ywe1saFEpqeRplC1lBcWYm/HVkC+Df8hB4AjsiiI4wdPzmvoZHUfi7a+z48Ij1x4kTBLBGhoaFISkoS3aFrbqxZs8bMwdXX1xe9evWq5ZKh1Wpx+fJl0XMnAdNGQHJysk0J/whNR6Ouknq7umJl66mYnbcelIf4ehj1wL+NJlbiHdeGN/1Tn7a9xgx7qMRr9+7doiluHjzjsbmj1Wqxfft2s+uFhYUNOux25syZRLyaMY3uuzCoYyQWKMeD19ZWC4oyOSJSNGWKV6TvWUM5+YsGQJvsMqWRNmd0eX+80Uf4rMSWiE6nw+rVqwXLoqKiGpRTzFkkJyfblCzREkN8zgP4AAACm0lEQVSGDGl2bgOE2jTJPvULPXogO6UU31D7QCuoph1l2QNl+ocCAM6UUrpX/mNYEmOb819zJyEhQfTwjcYIAWpMvLy84OHhYVUWVzEoisIrr7zyUO+4Piw06hpYXdb9+jO+oH8CJW+yLh0GxVF4tqQXPhpi3QGiLYXS0lLExsYKHh47cODARgn6bWzUajU2b96MgwcP2rQTCZhSar/66qt2pSIiNB1NKmAA8O2Zk/i3eitorxYkYjoKE6sGY+6A5nWopyNIS0vDyZMnBcuGDx+O4ODgJrbIsWRnZyMtLQ1XrlzBjRs3UFBQgKKiImi1Wnh7e8PHxwfh4eHo2LEjevXqZXVID6F50OQCBgAXM3Lwyon1METVnzvc6VQwWKKagNho+3JrEQgEx+MUAQMAjVaPaT9swsUO6aBkzXM05prjjo29Z6CtV/M5RopAIPyF0wSshp1n0vCvrG1Au+ZxVDkA8GU0RuufxKJB9qelIRAIjYfTBayGt5J+QKrXObABzouf5LUUIjPC8dnT8fB1Fz5AgUAgNB+ajYABQGm5Bm8f2opTbulgQsRPvnY0vI5CSLY/3u82FtEBzSdZG4FAsEyzErAayiu0+Px4KvZr01DZ+m6juV0w5Sy6lEdg3uPD0daXeFsTCC2NZilgD1KhrsaatBT8UnYFhe6lYOycYkrLZOjEh2Nimz7o52s5iRuBQGjeNHsBq0vqhWv4Le8arlXmI9dQCrW0CnqpHpycA+/CARoKtJaBRCeBCy+DSuqKVi4eiPYIxrjOPeHJ2H+6N4FAaB60OAEjEAiEGppHInoCgUBoAETACARCi4UIGIFAaLEQASMQCC0WImAEAqHFQgSMQCC0WIiAEQiEFgsRMAKB0GIhAkYgEFos/w/L0ZhwFPHNSgAAAABJRU5ErkJggg==;" parent="1" vertex="1">
          <mxGeometry x="340" y="70.77999999999999" width="130" height="38.91" as="geometry" />
        </mxCell>
        <mxCell id="GYKvl5S0yWye8PO-afOo-4" value="" style="shape=image;verticalLabelPosition=bottom;labelBackgroundColor=default;verticalAlign=top;aspect=fixed;imageAspect=0;image=https://miro.medium.com/v2/resize:fit:438/1*0G5zu7CnXdMT9pGbYUTQLQ.png;" parent="1" vertex="1">
          <mxGeometry x="333.49" y="200" width="143.02" height="80" as="geometry" />
        </mxCell>
        <mxCell id="GYKvl5S0yWye8PO-afOo-6" value="" style="shape=image;verticalLabelPosition=bottom;labelBackgroundColor=default;verticalAlign=top;aspect=fixed;imageAspect=0;image=data:image/png,iVBORw0KGgoAAAANSUhEUgAAAS0AAACnCAMAAABzYfrWAAABR1BMVEX///8RVXwAT3gATXcLU3sASnX39/cAUXoAR3P8/Pzw8vQAS3UARnP19fXz8/MpX4L/q3H/3nHn6OvW3OLi5+u2wszFztbP197b4OVEbowZWH7r6+untcJ6k6hMco+aq7pxjKNefZe+yNGkssCMoLEzZIZkgpuxvcmVqbqFm61TeJQ8aYmJnK3j5OTZu6nep4TRqZHto3HioHbbzMTllFvk2tTSl3TUwbbOpIzFza3U2MjwoGnM53Hd+ILF05rPrZvP4pDG0KnF1pHLxrrozXTrzGbayZfZ19bH4HPd1sPN08DW8nfazKP5n17Tu63ZxYrJlnmtuoXVvXTFv62igXGZnpXDxMHAx9+brNvErF90ak1MTE6Qmr7/4m+frq6Tl5u6r6nG2teGvrC7yLuz0rN1zbi34Law5q+w8a+n8Ke/27+z/rKh0KDaA8HqAAANGklEQVR4nO1a+ZsbxRGde9QtaWd3NNJIo9F9jA4W4zVgY7MYAouDwTYxgVw4CZhAHPP//5yuqp5DNgnrzSqYz/X8+dOOZvqY13W8rpZhMBgMBoPBYDAYDAaDwWAwGAwGg8FgMBgMBoPBYDAYDAaDwWAwGAwGg8FgMBgMBoPBYDAYDAaDwWAwGAwGg8FgMF4Irfl4Ml6FF2jZnY8343neUjSbnv5TjsaT5Tq+pAm+TBDjmu9btdkFmmLLhm45HU8m44z+ThuW79fG4rLm+PJALH3TdJz2BZpuVEvTpZYdy/Z9OyF7Wlnqhr2+xFm+LPCGjmLL7FygaaBamjVq+ZptAnVkXHNka36Js9wrhJSyeb5Hm1t456QMMs2o1cnSNJ3GkXzmUdVr1bvAtMwatUQ7My00NLEG6uzR//QK/z90x8Ntb5Oe61mZwGsmXX0ZZu1pVwrhCRlN21m38mQ26W174/IbYQPPjQgvJsCWk7Twxhht63zj//JIG47j2MtzPRuBHTgBZTbZzqTwDtRflN5kZ1aw401s1WtjWrSUFrJFLVPLtm1rgKbnQSg0/exyXmbvGAED1vhcz3YbyBY6XSeNjOPXr7zh5WwpSrK2dj5JQb102RBtyyV3FZ3VfDSlVk18MrlIKPwlMLfPH2XjGrC1UJSIrGP0b189PDw5bh70m54gmlozioB9SAem2SpattAqree7lD14Mvi16C2KG+eTUB1ka6vISlvGtZNDhTffAtsSnuchX3KE5hNBOnAWUdEyJh9+vku5gCeD1vN3Lh8yDCnzyDhL23Gel0SoMlW7+0ym88K4PVvNsk5UJKumFBhy7dRTOYx8w5MR5UjoZZbFlWTXdiHGbFTkaRnNtw8R18kThdLn8Eg48gzZjAOktVVkxjasiTPU05NhlKfhyERzVQFNRNN0d7hLRnubJIsUVrTnKtS2M5xadxDU6q5rT6r23RpNkppr12235uQ6ujXs9RIHp9tTmEBrOQ6SYCOLXlzdKWAGFuIvjWnHEOLOVWTrBrH1zk1hKH9UVKXGaotKw0y2qtMtprsZsOWPqZuVmnYwpJTQdZFXacRjpwYvMdxXwBcDNZS7NuIexlA1qj1QXjEK6NLxzWLkcJBYqHIQlrXGpR3VVOailoAGrGtXfePUpBgllr5lLfP1xozgphF0K5rXbgFbJxLi1vG7p+/1DQ9463Tk0DKLXm2kCDWoNaBuEtgRNCiwUyjshXNHt/H9+X52QahV7NE0KXhwaqmi0CkukzxybOp4bea3XAzrqAxLYMqKYdZJNC57MV39lsZA3fOHMlXPKZEl7gNdt7pgW++cnn5616DgNRLtWtkppdt1JZd4qNpqZFtTsC1zManMxN2PVEWt4qAvFTYSLK3yyrT0/ktC6vdtMwgCbWLIzMDOH0TbSuBdYxdYHqIK8nPGdIKHGOdnXbhSvAh5+56i65piS75/evoBUAUmq3xxUVqsu8p5zhU7adwaLSSGQlhH5Qp60Z0gMvYA0ipqIL++HeaOpj5sf7OgSShDwCejhmPXJqtpq9XKhrQJAeWY1i2iy7EUaGuLiw3f2slyGdCSayVpKF3gLJoYx+C/17+i2HpdsXXz9PQ3EoSqAF/MJAY46rUO6U6MYdA6KfYQ+6zTzFJXU+QG42VC3mit9sGWpGCqOOl4XneSL40ziLzmNKELsndZTwZxrhwxrtdhndUWsUXvJWWevTK92Mk8FEIOaP4JvppQ2sgahMDzh2+BbDCOFV1XjvvyvdP3jwUyBQYWx10wLmuNveK6LisliBYxSRl4RevhBzO1hQqXOJw/Oee+9cXYwo296Y5xRl1fx3ZawREOnMvpTkXQYAzJffQ5IaTNwqRdC5mv3g7DptrtTJWfhB+dfXwHRlWJ8aQvDn777h1BTAFlMkNdUhFxEpfS0oHdQYlFi0f1CF/LU1p/x96HK0boRs5Y7yeWZFy5OkAq3Z/YUiAfto7cHWSrV95FbW8G+RYvw07JKuBdnGiqhvvk7Ojo7IGyL+/61Vtvibuf3oU5oHGBP66MtVqreqkF5LBSvGhjTNwQWzhpZ5FrHcy6ea3ickFaZZGXb8lm8vwV9v4TWzgjW8eGtpZQBdD3rNeKMUBnajOJFo6zCdVeUHx2pPDo7MGH0rh/7758/wNp5EyBE7UlRD+33FRHqNgXFBZSqzIkzrIsQXQwgFRaXh5Iq2xzJ19XWdAbsHrFA4VS6VG3GyEfrp7gqCqEABRhiunjzkTnfmWu/lgqixEPHh0hlH3J25/f/F1TIEuedsdWt6umVivH7pK2j54fclGpEuKDuMb7UKiUvnIvEtUsrbdqpllEgChbTxaO26jVrNK3DHSZIogByCSLxfUqbKmFt9fAlvdQs3X06OjBF7//8qs//LEPxiX0/yjuK8nSKMtbLZQIPfKC6j5eUE214BWNcD9sFds2GhiztJ9bRZeMX7tpOA98q5BPleXcpdjYLQkbBVvoiVOlzNdh5jUPHmqyjs7OPvrTn//y2tdfHzf7zeZB32uqT6/bAYHXKM+GMDr6Gwqw1WopJapawatmax+eiFqliDmYh/JcptwUjV/rrdbCRQnrgwJCtvTCU+mydDxDYOBoFItNnkiWmFmlbT16dHT28MFnn9z569+++vLvorQrsq0Q2PKKXqe0rvgF+YBLCTMktgpeyRP3EuXJpHMv8tCHzHygDiRMf0IFlB6WAJzFZqBAbJGLemiQFcvfEdoKraQUIiqZWgOMWx8//PiLD5URhd98+9h7/N1XN/rPxK1IxS233O9llXWlaqkespug9ioKDx1zd/hLxHqnkNdEK0hyq5hS5sHlHKBMWGQ0KSS1QX+TEKqXmbOP7NSLxUYF4dRx+kpJKvqhPhpKqDw0v/nHt8fC+P57cfvtO7s5sQP0lDOl4sWY5km1ZfKBGNkKCjWKtQpnsY+yDdpFoQElLkuQv2dGegKLMDgFK+exgWzRwmNJ2HFKy++aO4tNnuoMkXSw5SAEvUVGdPDtN33PCH/44cC78eb1Hb2liK1K3lXFC3a01xTD/zD3WdKM1l7OYoeV7YRyN8yQQf6es1J9xVhO16U42mGbuugb7rqvehbLFIUOQU/R9osBpxaDlsfSTFP9E553/M8f+iI8uXdbikLLgw5xFuVMq7kk3FaqpSR+7TwSxFhrsi5yGP6z2O7kD33EkBs1LqeFr0m5c5zPCFWaXnjKQfUyB3V0VYLivkcbNzpkwKRrr/rwMIwiPDSmu0+e3BSwBbpybOT7RGKknClFRyIhCipKFT1PzYZCgRzS2Vn1rO2yQMm9yB8xKfv8Lil7tJE21Sfp+ylmnVylEVsY3iKMTSmlTMeGAns0pl0u7VI8TLpbMdMmZODxmPGvp09uqo9rb947uUZ11ExiGECrb6GtD8vEqnwdtVcfL1Z6uCRTDXVh4JwHUC8IndzzhejsaFW9g0ETQWsyrRHs8ldUEPQnug/aNfu95SbASY7yspy/nWwWeNPRpkdJN2lFcAn1LTh3NcSPT59+B1/cPjy8dR04UI5IVaFks+xRaawq4mgf36OIMS+qrFs1A9ro+ns50iCtUuzX2zvqy6hkHo+8yw6WE9PGglix8aAojqU4OoGd6xIEfkVOaeugq5NubEDt1PBIXHn9J0+f/ghVU/nG4eE9JSWMkWg2NOO+LijTXplYoIOjodZecCeA4nY+nGPtp3RKG15zp2he7PgE/sDD6ZS3dHXST4ZOZa+ja5dFykIHdoZBKfttLcG1FAsiowsuJQ5onIPHdx8/xgpz/0TRdd/oqDEn2mTUkBAovOq5fnUHQrXy1bysMzv2uBS1l4lW4qgVKZLg3IW6bs6CWPhwl5bTWzfyirI7jEfqwbL2vaQCvOM08GyCslfaCfJDBbc4w4gaOF4IBxXKDQ0vz/P5552r9z73ZAryNNA1bH8Lika6xSGJioxwdGLlSlU9V2sb83pe+bXX+6gEKnR7gcIgn2sKV0VdSkzgSm98DJH2Et+2LXO7ksYoqTxnyFWQWOpOgLKftH09M6IlNPCTXlYsdbiFLpcwXtbCSrPmS59DNo1rNw7gPBHmtgkc2/KTAPNgE1vqitYU50n50RvA37Eh2r3EhuGG07397M0Lw7CieqW6LK1YwGU5tGhlo1Ha8fSdqliWcTpLp+QmJLRtcLWuakCsFH2U46WYifURdXlWLfRZtcLOWaroV4ZsVqZddOnFqRpuH9JhjyBt//O/ZxMZGadKiwcH/YNnfwfxigBlpXmenyXEld8f6U+Z7c+PXkqEVaH93yHbaViJW0J2Zns5B3yJQZvq7fleW7bbWdxXwsuT3Xb71xZ0LgE7Qvvn4UUtFcxHP/G701cCtH0avoqvfgG0lYx17OGrFawvjNZykQTn/IUzw/BkKNkPGQwGg8FgMBgMBoPBYDAYDAaDwWAwGAwGg8FgMBgMBoPBYDAYDAaDwWAwGAwGg8FgMBgMBoPBYDAYDAaD8Yrg39L19/k+Ne3KAAAAAElFTkSuQmCC;" parent="1" vertex="1">
          <mxGeometry x="680" y="205" width="126.17" height="70" as="geometry" />
        </mxCell>
        <mxCell id="GYKvl5S0yWye8PO-afOo-7" value="" style="shape=image;verticalLabelPosition=bottom;labelBackgroundColor=default;verticalAlign=top;aspect=fixed;imageAspect=0;image=data:image/png,iVBORw0KGgoAAAANSUhEUgAAAOEAAADhCAMAAAAJbSJIAAAAxlBMVEX////ykREAdY8Ac47yjQD7w4AAb4v85cb2lALyjwAAbor74MH1kAAAdpH7/v4AepS/2eDz+fr++O/l8PK21d3//fj+8+YUgJnh7/JkpLXW6OyLvMiYw871+/yrz9j97NkljaROmKuBtcMghJzI4Oakx9Fsqrr72bP1qE35uGz3nin3p0X4u3X7y5P816v4sFtTnK42iaEAZYQ7lKr7rEL7zZZ5rbz86tL5x5P2ojf82a36xYj706H4oC9Zo7T6nRz/2KL9wWvBLynEAAAK+UlEQVR4nO2cDVfiOhPHkUCEQimFQqHltUUEBZHlqpdV8T7f/0s9ySR9pVXvXayWM7+zZ09JWE/+TjKZmaRbKCAIgiAIgiAIgiAIgiAIgiAIgiAIgiAIgkgavZ7+3WP4UmY70zT7Rvu7x/FlzEyqKJSSrX2uhnTI1jD6JiF0Z333WL6GvuKwv/XRhBLVbjS+ezhfgEOnIKvhqIS47u7gNHvnpXOmqYZ4MlxYkFR1D83vHdOJmVOtJ556A9vp79iSJKR/TmtS3ynT0MdGb7Rjbkd1ht82opNjmYoda+kzjeYZTVWDqHE1zS1zrWdkxjndie1+NPDWn/6oEnrf+74xnZaeRkfwYP8yfRczMgl1Z982phNj04nYAw/U8RstlxDtXHxq21SFtSztKmjV7ynRzsWK91S600E4x9CZTzXPRKKt7JKa9T4l7nlM1FmRJiaIwx31/GzOGU6VQXIHC3DuMx7M1zBSJsn7O/OocivJOfpEMZJ7mhoxz6LEMVDS1ptDSf8cMsahqTjJPfqWkLOIwmcqsVN6CJmegxELNtFSIu17oqYs0nwx3JKUzb2pkt05GNHS3LS9fXqcQeYRR5mndTWL5JDlUL6Gxi7dTvqUkPxnwz3NTd/YB5Q+ZjiWr6FJ35mIbZeYuTfiVbziFsGm9L3uXDBX3guwexp5ZxLng6kis/nkLWNO0kKe3OApnCWHpyx0m+Q8FZ4qsFnorpscvuxIMTlJzg2PIsu3qZK8LVpFYmY6oJNzRXlIo/OqRWK23zgQ5SqpIzfMyG4IOVQxpUbK4u9874m6ySv6A+X+QFPiU+ZO3UGea4sHyhbilBqWqiYbsT2hRCnu8psqGsTVG1vNKjg0sTzMzDyYmpTSnZHTZHE4VZy2a7ZZJpEa3gx7oyml6n1Ow5uZRhyTb+uz9FyYYUxVxc2pGUcKEeUK49d7udKwOVFISmHup8OGLpagk1Yflthaann1h6M35Qp8/CCTsKZKzsPUxjw5svHRH8k0p/5GMnRS61IM3WqOJrSf88saAyfZX1pXjxNN4eQ+Y5wleZvZTiOEUu3eNqz83y1OmoQjpVjczo12PvfDz9DY5b+c8QEWIVp+g+9PYRTPoLL4PoZL6f2ZXLNJodcn1Bycr6/hXE2ocsh3SPMRDWP768deCOt0Oul9rXc6Y4wmJz37HjYFRzOjJ9o/+evsXpc3i8Viub5sJfbd/nW7WD48RTrHNc7x9wu6o53wZNhS+RV6cnyKN6fQvvtMENx9vqnXq4x6vb4vP0X6xivou+CdlduXkCXLJfb1+mXSDxydMIOaKUWupKjGfuTQJNDxmYOhy5vShU+1VFmF7PJ3NdTHOvdjv6vMeyqJCgvW6Qr9Vywc5MTLzoZs/8Rl3t91MXxukSp/qHS9rtZG6KvKHvb0VvM631N4QhwqlMQvYPWJaE8pcYYYV8TQ9+X1+nm5r1RLa6+rs6kKVYvVavlXXX7wZnFGCj0lRTdSWO+5sp186NZARfXmTkzN1tN64ZvwWViwPOarr3W9EBJvZW9GCqeewmJEiuE1k48WhDBhJeReOtGu0rX3ubUExaU78TEbhfrOlxIpLsz95o9i4Rc+zmo5oacDi9DTAy3Ciq/C3NkobPPZqE1gmrbDzUzbRDsSnsAzH3SpltBzWQ/PSWAMRqwIq2aj0DKZCNcGnxKquI9U9tk2ucID90BtIOSLdGjge+UqVSGswspdpA2MKC2ekUJmJ7JtgpZ+0Hxgm+FkBq2w5dsmI5yf2hpv4X62DAofjn9065b33HQjjWJOL2CpZqOwyRVO29zfkOBMoc20URtmMIES9IwHODT4FTT6vAEuVcIsre6Po07wM9VFtPEJ9k4hOxuFIwLGs7ljoc1wK53pW+IvTxCr+it1CC54yx9/C/+4OYov78DPPEcbO8K9gqxsFF5xLY8FCxT6hyLck5pDIUMcQENgENytb3Px4ki3Kzf8zTj2o5fcuPX4At1DKyzObBQOCChrwKahSVfS4O7nwK/wcsNB2NYs8ue552v48vVs/lyX4dhLdKaCU6kc6ebfroNls1HocIU2vwvCY1M5TZssJiUjuSmK6wW6yRVOvGnaJEHIKjc5Nvdur0MaO/tEhbBs6+BMs1HIgzZ+zD6job2vzz5obTk15eVQUOsHqXzdkq30TF54zeLr22C83ZvAp4QQznTDH7NRyJcavRLJkmcj7kPh6u4AZIvF14ys1AMJx+qd9YWvcemFb+8pLGWocMKGCoeW/cBePCaFgHtEg8BUOFZpNt0tisnt0d1UvKl68bfwquO3n6HQ9RSGbPTITAiZBl+PRSKz/zn1F6WIhKJvg1wvZJbIliOsvfcUVpf8MRuFPGyBu4NimnIbtbderGYpocXJAzkvDjd4lBd7aanzu+JNVXAvYpZexD0N7JIZehpdJVIht5yYpoZcmixJ5E3eO3Q9F2I4eHZINMgTtNZvMqPftzyFR750Db4UgrxMFLa5BgW8vqFKg3H3Kl5yAYVFecunIXJl6OC7Z9KrdV2R04OCltjbn2JfWdX9QD0ThWIegkJho8kQEifhJnl4ymaj/O7ID2sa/JehJl2266yEFbkRIfAuvcS+Aa0iX85EodgGQWHjADayuC3FJGUKoUnWE3VIF/l/dQERwSTxeKHzWvVS/g1EL8tYP8R4r9lF3jOITYTLEDYaPPqTtKBPYBJ7KQdMU8K+/Mi+mXazpyaKGmwarsFr3kZDuTFkxZvssieDBgrFnNT4JJWvW4kSh/+q8kgRAcAQEo2UqrR0MDUvUXqLuhqxWYhiXOYKG37ZzavNiOSCegsO3BKz3YxA6pH8E1u+wu4r+NVobizCcaEqE4U8LvMz3xH1FMrwc3gPCv2aMJ+0ZDrk/4imXT97evO3QVFZu4n0hmdu9gp7nkBX9gqr0ln02xa3rJpWCoesEHxp4VrkxuugUxQ2vPJiJgp50kRMz5XIyiL1CvxSoV+eaXNval5B4SPwpOXLkDN5EapgjxD5U2jDEElIKdOKMHhF/4V5W0xT/6girhAyEY3/HkhwyvFUryzWTy2oal+uKn5MU5DlRCZiWWPdne4dWPAiVtV/qPmwPYT9/dStdQq1eCz0Zwo9e4gYhgTXHyGSC53Z2F6pP6itdthqq1bf9pvVann7JkMar3RRrspAdb/ZbF5F+vHml8DLIjqoePDacfl1v76rPHXrsfrOf2ZOInv3LlquOVLIK3PFaOLUCU6X6p4ev0TaWXpHa9WqzK5C9dNy+NyNT9/frPH5pfDP68NL5YsUgo1CO51QGJxctCfChJG04u7NOzkDKaWbcPHpuRKTcRGUOo4UcvFlprC8uP3fqRT2+U3A4H2kGWEfQ8evDtwUDAwmNshi7F5P627zxgxYKpXglDdaVnxavYnj4SqcBHNj7+Ux1aoUQyp8eFhtHk6l0Ioe1cOhfmgfEGf5QYgtgwI1fi7c6V4/L9lSK7+MjyvDrdp6uVgsNqu72kZorOyhLDeuxeDR6rjL/nS741N5mn+JCOM+PHA7Rl7T6FzvS2KpxpOqnwJ4mj/6TwI6sDBLq9ON6aT0IGwz/+wNpfGqUtonXDH5AQwttxhUF/+Ay308Lf5+evbgyj5osFue4BpI69PXozKjSSil5FOH3jmFvx4ptvp8v+yZjjUpciOaj+d7L7LdtB17lOtXWREEQRAEQRAEQRAEQRAEQRAEQRAEQRAEQRAEQRAEQRAEQRAEQRAEQRAEQRAEQRAEQRAEQRAEQX4M/wc5CNJXJJITkwAAAABJRU5ErkJggg==;" parent="1" vertex="1">
          <mxGeometry x="350" y="380" width="110" height="110" as="geometry" />
        </mxCell>
        <mxCell id="GYKvl5S0yWye8PO-afOo-8" value="" style="shape=image;verticalLabelPosition=bottom;labelBackgroundColor=default;verticalAlign=top;aspect=fixed;imageAspect=0;image=data:image/png,iVBORw0KGgoAAAANSUhEUgAAAWkAAACLCAMAAACUXphBAAABv1BMVEX///8Ax9QArUbkOSEBfO5RUE8R4e4E1ln/dVcMtv9OTUxKSUhIR0ZFREP4+PhCQUCIiIdhYF+rq6qSkpHf3t5sa2p0c3O/v7+zs7MAcu319fVWVVQAytgAu/8AeO7Y2Njn5+cAs/8AqTrjJQD/clJcW1oAqDTNzc0AdvUE2k7jMRSYmJc8OzmioaGxsbD/b00InfeBgH/sLgAGlPUL1uMBu0zm8v31wLv41NDnVEH74+DlPyjsfXH+9vVX1d/pY1N12+Pvk4m87fHyqaHvUzmU4uman5mq6e72d1lsrq+cxfcP2tkExHwDzVVeovJ06/S51vlgxYJGvW/O4/vo9+7F6dFPmvLpZ1nsgXXyrab2xsH52dX5pJbui4D/nIjb9vj/j3iecox7h6+JgKSxY3LWQjI7peHQRz2xlYqjbIF7qai9V1zIi3rvel5Jw/8+u8Jkk8PXhXB51P8EifIKqft9x/u4k4aUUlWNQDajPzSNo584cY5kTUkUcNRNQjUHmqQvho0HjslNNzUBi9gDwYQWmkYDuZEEzWsDrqYN08YCmsQDo7Z6sfQLzLF/0Jx25ZmU6rGv78Xb+Oa45MiT1qpBpVQ/AAAS/ElEQVR4nO2djX/TxhnHFQeF5PTmdyc2sUUSxyGxk7phAQKU0tKVdbAVFlpg67q+rHvtuhW6963r2vVtHesCf/DuTdbd6c4+yXZsKn6f9uPIki3pq0e/e+65kzGMJzoq3T137tylS6++euHC7dcuX/7RnTNn7p7d37948WiPwn3mhaPd4QR0YXWT1SrR5uz5c6/evnznzNn9IzmKEzMz7pHsaILa39yclSvgPnvptefv7o8ThAtBf/NJ90EdIkdRfu72nbNj8hQEOgWkjf3ZQah7vDfPvXZm9LSfQaBnRv61U6j981qoA9xXLo82tgnoVJA2LuqjxrhXNy/cHRlsCjodpI2LV2KhxrBv/3Akuw5Ap4S0cfFcTNQI9pU7w++4B/rE8N/1eCgB6tnZ1dnnh8wYeqDTQzoZ6tnVzaHiOgSdItKGcSkJ6tnVK2cT75EBnSrSCVHPrt5OmIewoGeeGe25TLkurSZCvXk+URry7Ex6SRuvJkM9u3om/r540GkjbVxIivr5uHsSQKeOdHLUl+PtRwQ98+xYTmeadTSoI6BTSNq4nRT1j/T3EQU9880fc4nqtbGjloBOJWnjckLUsz/W+/4XJKBnXhzvOU2pkqLe0UItBT3z3LhPajqVEPUVHdRy0GklbTyfDPX8YNQK0DOvH8VpTaOSod6Z3/lJ/+9VgU4v6WSor8wPQP2iCnQahsZVupMA9fn5/qjVoNVF00o2W0ly/C1gFpN8bgI6kwD1GkatqqKqQatJVx3L8qoJDn/b8RJdoUkoAeodSHp+7V056j6g1QWmRcc0ncUER79oO48N6QSor8xj1FdlqJ/rA1pNugRME+QSHPxjRdq4Gxc1IS2N6r6glZ3xomcVCpbHOq5bbPjhUpVbMvxGkVoNIe0r1k6dzsZETUlLoro/aGVnfMvyGg3P2iJLix7wC7bneU0arsWyA5cAXW1sm3DJKbXwtrbT2gZw2Qy8p5VDa8tT2k7GRB2Qnl+b51EPAK3sIgLQNIwmMEkS2LFBzYZsLdDG+Fpty7FMx3LKeHXZA3ClDdodA5E2mw7ZtkM+3LY8EzhWuzUeVMMqHuoeaSGqB4FWdVwqjp03jLztETp52wTNSrFRcEzHhz5iAqviun4Z4DQj74FaxffzjtluYNJ42y3HxObTaINcw3UrNrCm1EF+GGfEPCTNRfVA0KqOSxkgor4DungRkcaYtiwbBqrvkUSu6lloPQAOXrntWFlCGi92bKtgoKbVxovw4nXGhGpY7cdAzZCGqIPnCQaDVszKg4ixL8Cg9dFr3kYhTlaU4ItLL5CFlmDjmSWLTYBJW4Ro1UG5S9UJ1yZJZY5Eg+eyS0nPr60R1K8PBq3ouORppkZMhLERZN341W0tbnVzAJFuOfY289kwyzNBDZoHbFaLDagiDO6p7frro+ZIU9QaoFWjiAFPCKuJXiBpmjmUgAVxVbMoEYHpBSJdcbgEOiRdQ6RbjmnhbT0AEvU5j0ZoLvvm008P5s2Thj3zfS3QinS64Zm1XBMqVzM92MiJpH1gO7VsvlIEGqQ9s5mjKo0V1nC6OLv5xptvvb05CPaOQHp+rXFCh7Q8yctapkVlYpcN3QPTK1s2yZVt6h7ExA0f9U8E0tA9prUh5OW/swy18OZPn+5Lek0kPb/zng5paZIHm7JalqqGc7O8TfswuKmsBilJw0OkfY8uuu12OUK6StpQ9LX+1No01N7yAtbywlt9wzoCen7t2zpBLd3pIpOPdTA3mOXZ2D66lrMdwith94BEHWQxxpZtb0VIw4+QlLDVbnfHB2pY7S2fXKBafudnq0rQ5yWkf65BWp56lGhuh+TjsEX5tLVVWSxZAOXKZcvqthqVnI1bRKPSNq1Oq9K18edE0sU2sPPFBuxmTmsnEcoNQSO9rXQQsUHUjelnZXsttu1yuFSy2kVIGpQ8x3EA6VJXaw7OJ3KmhVPkrbZlOw78H63c9oL6NLAAeql4Fuqr216SGuzRSAC9sPyGCnWkQYQ+/R0N0tL6UrFUYoKvVSoVce5RgflwLUtSELfTtK1cxyiUiM20ujXbam756O8G+gBWtlTAr34WrS34Y8I0vETQEPVbCtTRBnH+6mDO+sO1JMtz2RbNFZo3cTnO2gkrChqiflOOeqQNokRhPv1NlAS0KqolNq0V0tpzp7/RpH8jAw1R/0KCOmrTO7/UCWnt2Y8dr90Y58lOUgrQEPWvonl11Dt+rdVD1J5V0+hmp7dkMZyUoKF+KqKOZtPv6nBOzYPM/dQP9PI7on9EbHrtPa2QTt0jLlH1Ay1JQMQcb0cPdEqnTrPqDxqifpvzD9E8tPosSOmd/Eg1CDRUP/PQBp1689AAvfzbp5XmoenRT8xDBzTvH5x5rL2rDXpS5lHFo4oNkjWivybUUX+fgl7GAwBKvbMq7bbs/G5GG/REzKOVbdp0VBGhLrc9rz2ZMS8Iennh5P2ndnfvQe3uPnX/JBoGiAZ12CtnQevUpAON4AGXDh4d1J/v2Mh5FjCJ8Pikg/+aRFC/v7Bwf/dYvV4/RoX+vAd5R2gv/2xTbA/Xruq2hUhav+tR7RSQtuVr/TZA8nTPruIFmAPSNvrLmQDp909CzMeiQrifus/B7jWKvfZw59f6zjGjWfMoOXjYti0fc/U9zEx3FkexbTJqT5L0+7syzCHt3fssalL/uJIooGf0euJFj2IBUhgxSedIRDu2WYMveFhnQqQ/qPcBTWizsEmnnLSHazu/jxXQmiG9ZVHS8rnn8Ui38NbArDC1qsmQ/mBpAGcK+6mTy2FQn6cph35uR6Vzdq4Z+Cooy9YHPq1HKosvm+Wz702E9FdaoLGN3LtPg3pzE4X0zru/PBEXtFZIVwLzgO2XL9ugUypDaeYeTXTZgjk4VJMg/ZIuaBrYMBlZ/sMf/wQ5X/1zTOOY0f1BsTIg9zsiNPQ8pCrO6NBcYUYTIP1yHNCY9e7CXxzb/uvVb8fnrJlLExu28ggHmQg5jKip81SPnvQPYoJGrP/2d5h/eR8m4Kz5OzUEcdnAUe0NOysG5zHiDOojJ+3eiw362DFM2vlHAtKaP0aIjRVmHTgDCaabJ9Z0kP7eoPROEtIbH9m2Zf9Ta56jIL3SUoOYh0uzanvIgcSpIB3fOyDna6cytuN8ODd3Oi5ozYIHzsrwFNMSDu4h53rFI+0WW4vb25WWP9xORcX2jo2PPzl1/PjxzL8yc0inYzmIZlm6avWqE+jBZunztn65VCp1q/wysZlGPosW0EOI2RIWyc1LnICUdHWxbHsObO8dzzO7fAPRQB/Lix/Iyt4MDyZQrAQPcb73KeJ8/Homs/LJXFzWuvV/Bm8V24dkbk3BQR2X8BSzaLkN8+tK07Mt1Kuxu0aL9G9oJwhwMmWk85bDVKKs3tOmzC6EySdbnuzNyJZuPM71+uenMOjj38pA1N+dm4sFW3ughbWM0EgE0hbfGcHbwTa02yvagS560KW/eNJ+U9weeN1wCxwA4lMGODsSj4806Gzr8lKs5nDjo88IZxTSYVBrwj6hPWuJNIP0QHHJApgRP5WStivdkFVs0kU7CH4Ltvj0b7vU28SX2D05VjxZO5SP70muihAvoD+lnElIZzLr352b04V94rT+j+Ph1A4Ek/hJfERSailpULJCm3C6RrHtINkUK6cI6Sp1FNsrbeU7hZxHalxWOC6DK4J8V7NDNuLtbRvtkGvG47j0xkfXe6CPY9CZlWtzgk4raJ84PRfjVwjxCfe6Kx07EiBK0uRWdpq4JoJaxEYFKY/XNSucIi0iaSOBtU3f8wv0avSsoRMhGJRj+YpBOXJFYiQeG5+HnGlIw6D+QkSNafO4T5w+Dd+NAbqC7z0zWPRlRQsVafhBuyNuqpflbeP9gBzz6Rb5zl7ThtN8wD4xE1TRuS+v2uI7+rl0/dg1BjQNaSQJaYY4Zoz1/X5oBeGIYIKkLCnEKUmDmm9EpEWa3BM1rpNE69q9G6qG7xnmPshTY+IKjjhUuCjX7h4ufXydBX29B3rl0z6oGcUBTWKYOXIS4zVhMwVpvgZNpUN6kexWTNdszoXxTtkyDHYcMRLwobDOrZ3ibXzJcg7Ng8v0RgWaFpeY6QGulIGcNPcUeU86pPGdE2kOsBGE8Ylj3Cr0VpNspAv4AyZ+z3yLbrV04988aMY8MplIozgs6F5xKVRBVmaSk5b/jIcGaYI0OpJWsLjrzjchOMmAzu5xN2FDuBza5rHxoQD6Okt6/T8jBk2KS9z4IK038RAVWZ70OzVIN9gcnhHJyHv77gLOGJB5wIBHwRHeTThDYS1G0zwioFnz0PGPeKBpn5AP4FwkzBWkuUgKpUGaNAbRMQfaahTZzXp7xaUCuA6xDS9yTmw29cwjYh28eQzIP+KDrspMeVu0bkNFOtprR9IgrcjaDRdwx4MPr3ckqBVFVwd/f5CHkg4imwp+pWMe9Y8ioK8LoLlO+bCgaXFJiK0qnwFgjZg03y9lVOO7qGW2ooEWcB0E2Udwz+Gw525AnW5L/Z7IWTSPAVYdFzRJmyLJczdaxhkHadngjtBAk442WcQBgMMdfTq4IbpiB3FPxzw2rkVCOmIeiq5iMtC0uOQLb9MeBPvWiEkXVDYvtBHYG+gVQdFL8nzcnpKRIWw3nNO9rGEeS1GTjphHv1YxNmjlTYx7JdzI7YRIk2Uygw1FL91jrWcfOCi4m1LLpq9rmAeWFHV80DTpz5VFNU3xCoyFtMQ9RNKdnmXgkSHaVmL76AZ/8ZOBNGx6KZLgKUlLUWvSZURnLoGI8Nucq0zIp2m/BO0Hp9qAeRd3AlB0c6WDPY2Qrn8WBS2xaRVqXbyMyszQkkTsTTnqLE9hW27Et8wgOUJ77PkNKn6grYqeeBgadbz6x5KQltk0kdgsauMN5XtywoFYWCMmLUvZkWiCyeT3hcAeHHYFehfdEnlb2FxnXKv+pb55ZCLJnjZeRh1bYR6BfzCnMGLSpNcdnavdiCRDpMlbxK+hTZDaUzCcwH6DRtGjLsk8+pDOrH8yJGjiiaBZkgmTZpKDEZP2FWPw0ZmBLi36ceZB/NlrVZkkkEqjQZS6hxo0TPYy/xkKNMmaFbPw8kKVc8SkaZE/8nlSxODQkW5UtQa4Y8X2sYVvDW7Q09XJ8TY+1em3cGFNWH/xQHrCg0TKcYqZpSTowiRg1KQLpOoq2EdL2CsS7m5bpJzqcluCHL0KzNY6A1v1e3v/HVheisT1euZaZn09CWpSXFLOli7zna9RkybPHAl9F7cGovZNGkkx1t3ehG++TqVRyKsf2zMMEbU69RCA31Dw6qNF+dBsIOotwepRk6YZpsOVXMpW9L2g1RONLhgyFgbPB6ceGHQEtS7pzHp81Dnp+FIokxvJHTlpOsztZMOZNHT2iDiEuR0M0zrsu60gReWfFtFIPfbIljxqbdLxo7rYrz1EIjWR4LRHTtrIE1SWVWj51WqxEsw7E0cwe2k/31C6lL+wn92BIb0XbPq1fFh85KjJY3FAvQF/KUZP2sjSuWWW4znwP+oRkn/1qEmnT/JrusQ+hIZGN6KRvpbMqdFCfVNNLSrS7VWgIiJD/rTHPAbSRsGLVAOA7J+Xoj0sYWSzQi4Un5O7gxrEPXZrBnUc0vFQt1TTd8VToY8gxh9HFNJH2RP6FeAAnnNOdkANkqcIVRKak/CuPmAYoL7Hf0eIOoZ7xERdbHueN+C3i9G/iePRlHcRbx+6eh4vy59PrKJ/aqctFOpK6FcnxCnw1XyNzr4GAJpISfG8YxftLBIVW5JD6J9O138gfvP/TiUiHQu1j37ZpP8mbvgzKPDSwL99ZqW4zKoq+W5X8Usqxe1sqVlr5sqFiurryM6iU0v86CH0HXCJgg5RxyQNUU/zz7cegfql0zLQPdRxSUPUB0d9clOlPkNbctA91HFJZ1YyqY5qdcdFBdowHp5KRBqiTnNUv6IivfSy+kMYdaw07wlqZXW6H2jDuHUqgVFjpRd1ItAEdSLSqUWtmGY6CLRhHCayjxSjlk9BGAwao05GeuVw/Kc1hZKS1gGNUCcM6nSilnXG9UAj1MlIZzJpRC0hvfSS7ocPEwZ1Zv3WOM9pOhUdRdQHbRgHMEN+glpPEdJxQA+BeiV1qMUCUzzQT6JaXwLpuKBhQn4zKeqH4zif6RVPeumrBF9xY/0Jag1xRdNEoA3j0UqysE4XapZ0QtDQrG8mC+tUoWZIJwYN9TBZw7j+aHRnMu0KBwKGAQ31KBHrFKHukR4SNLSQRKzTgzogPTRopIc312PDTg1qOrg1EtBQhw8ycWEnmmD9GIqQXvre6L7xFoIdh3ZKUL8yatBIB49urMSgnQ7Uu2MAjXX4vxsZXdwJ5rI/foKk6+MAjXVw69GDm5j3AOBpQH3vWP2VMe/i4PDhoxs3M+tQKysK6EkehnnM9MrSuEH3dHB46+GjBw9u3LyJ0K6sIPIUPsR/VEcxMbmaY4aj3u3BwcHh4a1bD5EeQaVxZPGJxqH/AyFY20ylDTbUAAAAAElFTkSuQmCC;" parent="1" vertex="1">
          <mxGeometry x="20" y="205.15" width="181" height="69.69" as="geometry" />
        </mxCell>
        <mxCell id="GYKvl5S0yWye8PO-afOo-9" value="" style="endArrow=classic;html=1;rounded=0;exitX=0.5;exitY=0;exitDx=0;exitDy=0;entryX=0.5;entryY=1;entryDx=0;entryDy=0;" parent="1" source="GYKvl5S0yWye8PO-afOo-4" target="GYKvl5S0yWye8PO-afOo-3" edge="1">
          <mxGeometry width="50" height="50" relative="1" as="geometry">
            <mxPoint x="400" y="280" as="sourcePoint" />
            <mxPoint x="450" y="230" as="targetPoint" />
          </mxGeometry>
        </mxCell>
        <mxCell id="GYKvl5S0yWye8PO-afOo-10" value="" style="shape=image;verticalLabelPosition=bottom;labelBackgroundColor=default;verticalAlign=top;aspect=fixed;imageAspect=0;image=data:image/jpeg,/9j/4AAQSkZJRgABAQAAAQABAAD/2wCEAAkGBw8QDw8QERAQEBAQDw8PEA8QDg8QEg8PFREXFhUSFhUYHSggGBolGxUTITEhJSkrLi4uGB8zODMsQygtMCsBCgoKDg0OGhAQGjAdICYtKy0tLSstLS0tLS0tLS0tLy0vLS0tLS0tLSstLS8tLS8tLS0tLS0tLS0tLS0tLS0vLf/AABEIAOEA4QMBEQACEQEDEQH/xAAcAAEAAQUBAQAAAAAAAAAAAAAABAECAwUHBgj/xABGEAACAQMABgYFCQUHBAMAAAAAAQIDBBEFEiExUWEGE0FxgZEHIqGxwSMyQlJygqLR4RRDkrLSM1Nic6PC8BZjk/EkNVT/xAAaAQEAAwEBAQAAAAAAAAAAAAAAAQIDBQQG/8QAMxEBAAIBAgUCAwcEAgMAAAAAAAECAwQREiExQVEFIhRhcROBkaGx4fAyQsHRM1IVNPH/2gAMAwEAAhEDEQA/AO4gAAAAAAAAAAAAAAAAAAAAAAAAAAAAAAAAAAAAAAAAAAAAADT6V6SWtvmMp681+7p+tJPg+xeLPJn12HDymd58Q3x6bJk5xHL5vNXnTyq89VRhBcajc35LGPac3J6vef6K7fV7K6Cv90tZU6W38t1VR5RpU/imeWfUdRP9230iG0aTFHZaulOkF+/fjSpf0kf+Q1Mf3flH+k/CYf8Ar+qba9OLqPz40qi7nCXmnj2G9PVc0f1RE/kztocc9JmHoNG9NLaphVFKhJ/W9aGftL4pHvw+qYr8re2fn0/H/ezy5NFkr05vR05qSUotSi1lNNNNcUzoxMTG8PJMbcpXEoAAAAAAAAAAAAAAAAAAAAAAMN5d06MJVKklCEVtb9y4vkUyZK46za07QtSk2narnunulla4bp0dalSezZ/aVO9rd3L2nz+q9Rvl9tPbH5y6uHSVpztzn8mvtNCzltm9RcFtl+h464Znryei2SI6NpS0bRh9FPnLb7zaMVYZzeZZsxW7Hgid6wjmtc48fYyszVO0sFW2pT3xi/BJlZrWVt5hAuNErfB45S3eZnOPwvFlmjdK3NnP1W0s5lSlthLw7O9GmDU5ME+2eXjsplw0yxz/ABdE0Dp2ldwzH1akV69JvbHmuK5+4+i0urpnrvHKe8OTmwWxTz6eW1PUwAAAAAAAAAAAAAAAAAAAAx3FeFOEpzajCCcpSfYkVvaKVm1uUQmtZtO0OX6d0xVvqySTVNPFKlw/xS/xe4+Y1WqtqL/LtH87u1gw1xV+fdP0do2NJZeHPtlw5IY8UV5yWvulynw8y828K7eVmoV2Tuo6Y4U7scoFJqmJYZwM5heJWdY1zRHFMJ2iValOFSOGsr2pluVoV5w1TVW1qxnCTjKLzCa9z+KK1tbFaLVnaVpit67S6V0d01C7payxGpHCqw+rLiuT7P0PptJqq56bx17w42fDOK23bs2p6mAAAAAAAAAAAAAAAAAAAPBdPtL601awfqwxKrj6U98Y9yW3va4HC9U1O9vsq9I6unosO0cc/ch6GserjrSXryX8MeB4sVNo3l6clt+SdKWe40md1Oi+EC0QiZZFTL8Ku44ETU3YpwKTC8SjziZWheJRqkTG0LxLBlp5RlvtO8L9WepCNSDT3PzTN+VoZ/0ygaHv52Vyp7cJ6tSK+nTe/wCDXcW02ecGSLdu/wBEZsUZabfg6vTqKUVKLTjJKSa3NNZTPq4mJjeHDmNp2lcSgAAAAAAAAAAAAAAAAR7+6VGlUqy3U4SnjjhbvHcUy5Ix0m89oWpWbWisd3KbCEq9dyntbk6s3xbefez5Ku+S+8/WXdnatdoejqPs4+49Vp7MYXU0TWCUmnE2rDOZZowNIqpMqSgRNUxKPUiZWheJRqiMbQ0hFqIxtDSEWqjCzSC3nh8nsGO20lo3hg0zR2Ka7PVfd2f85ml47q1l7HoFf9ZbOm3mVCWqv8t7Y/7l4He9LzceLhnrX9Ozl63Hw5OLy9MdJ4wAAAAAAAAAAAAAAAB5vp9calnqr97VhDwWZv8AlRzvVL8ODbzMR/n/AA9eirvk38Q8n0fp+rKXGWPBL9Th4Y6y6WRsW8yfkab7yr2Z6ZrVSUumb1ZykwNoZytqEWIRahhZrCLUMLNIRKhjZpCLVMLNYYTNZKrR16clxj7f/Z6OtWXSWX0fXGrdSh2VKUtnGUWmvZrHu9KvtmmvmP0ebXV3x7+JdGPoXJAAAAAAAAAAAAAAAAHjPSTL1LZcZ1H5Jfmcf1efbSPnLoaCOdmo0L/Yx75e85eLo9t+rPCQrJKTTkb1lnKTTka1lnMMymaxZTZSUyJsmIYKkjK0rxCNUZjaWkItRmNpaQi1GYWaQxFFky3+avH3nox/0srdUXog8X9D7VRf6czb0/8A9in3/pLPVf8AFb+d3Uz6lxAAAAAAAAAAAAAAAAB4/wBJFP5K3lwqSj/FHP8AtOR6vHsrPz/w9+gn3Wj5NDoWfyS5Skvbn4nJxTye+/Vni8PxIieYkQkaxKkwzQmaRZSYZFMvxI2HMTY2YpzM5stEME5GdpXiEapIxtLSIRpsxleFpCUyhsivFnopyqyt1R+hkNa/ovh1kn/45fFo9Hp0TOor9/6MtXO2Kf53dRPp3FAAAAAAAAAAAAAAAAGi6a2vWWVTG103Gqu6L9b8LkeH1HHx6eflz/D9np0luHLHz5PCaEq/Oj3SXufwPncc83XvCfV2S79otylEdF0JlolEwyxmXiyuy/rC3EjYdQcRsxymVmyYhhnMzmV4hgnIymV4hjKLCWQM99PUpS7tVeOw9FuVWUc5T/R1a5rVqvZCmqa+1N590fadH0nHve1/Ebfi8mvvtWKvfHecsAAAAAAAAAAAAAAAAWVYKUZRksxknFrimsNETETG0pidp3hyS5oStbmUHn5ObWfrQe5+KaZ8jmxzhyTSe36O9jvGSkWju2tRa0U1t7VzFo3jkRO0sMZmUWXmGRTLxZXZd1hbiRsOoRxGyyUyJsnZilMzmVohYVWUAkW0PpeRrjr3UvPZA0xcZkoLdHa/tC88ysOh9EtHfs9pBNYnU+VnxTluXglFeZ9NocH2WGInrPOXG1OTjyTMdOjcnsecAAAAAAAAAAAAAAAAAObekS/tI16VPrF+0t6soR24g9sdd/Redy3vWOf6joL5cf21I51/OP2/29Wk1Vcd/s7T1/X92u0XeY+Tk9n0XwfA+epbbk61oTq9HtW/tQvTvBW3aUfJlu0V1xujY1hubKZI3SoAAy0qWt3F6U3VtbZW+ulTjhfOa9VcOZrado2hSI3Y+idjC4usTlF9WlVlTclrT27PV3uOd78O09np+knLfjtHtj858f5l59XnileGOs/o6lHcfRuQqAAAAAAAAAAAAAAAAAcz6fekTqnO1spJ1FmNW5WGqb3OFPjLi9y5vd7tPpd/df8AB5cufb21c1tdFTq5qVHLVk3JttudRva22+PF7z22nbo80N/b3KyqbfrY2bctpceZ8h6r6TNJnNhj2948fOPl+n06d/Qa+LbY8k8+0+f3/VvbHSWMRnu7JcO84Vb+XUmrYypxltXb2rtLTSLc0RaYYJUJLn3GU45heLQxtPgU2WALo0pPs89haKTKJtDPTt127eXYaVx+VJv4Ybu/jDZHEpcOxd/5Fpvt0RFd2iurh7ZN5k/+eR6dDocmrvtHKO8/zux1Oqpgrz69o/nZ5WrO5oV1XVSUailrQrQeNV8FyxsxwPu8GDHjxRipHtjs+WyZb3vN7Tzdj6BdOoXyVCtq07uK3LZGuktsocH2uPiu3Hkz6ecfOOj04s3Hynq9qeVuAAAAAAAAAAAAAAAcw9J3Tdwc7G1nieNW5rRe2H/ag/rcX2bt+ce7S6ff32+55c+X+2rwWhtE5xUqLZvhB9vNr4HumXlbG9usZjHf2vgTFN+qs2a232VYt9rw/HZ8ReORWebcKq479q9qPmtd6NTLM3w+23jtP+v5ydnS+pWp7cnOPz/dMtbyUdsJd67PFHzWbBl09tskcP6fj0drHlx5Y3pO7Y0tLfWj4xfwZSL+V+FIjpOk+1rvi/gTxwjhlV6RpfWf8MhxwcMsNTS0Poxk+/CRE5DhQbjSE5J5erHgtnmyI4rzwxznxCZ4axvPJAlW7Ft59h29H6Je/uz+2PHf9v1+jman1OteWLnPnt+6HpKq4Rjje5dvaktvvR9Vgw0pXgpG0Q4OTJa1uK07yuouFWDTWeMX2Gu01V33aS9tJ284zhKSxJShUi2pQknlbVua4mkTFoR0dk9HfTNX9PqazUbulHMtyVeC2dZFceK8e3Zy9Rg+zneOj24cvHynq9meZuAAAAAAAAAAAAB5H0j9Kf2C21Kb/wDk19aNL/txXzquOWUlza4M9Gmw/aW59IY5snBHLq45oWw6yTqzy4pt7drnPe229/xZ1Jns8MNvfXWPVjv7Xw5E1r3VtLXo1ZqSiJhMS3EFrwUuK29/aeS1dpbRLXaSk4L1dknua2NLiV+yi8bWjeFuOa84naXptC0Kd1bwqYxNepU1Xj1473jdtWH4nA1XpOni8xEcP0/mzr4NdlmsTvv9WeWhuEn4pM8NvSKdrz+H/wAeqNfbvVSOhn9b8P6kR6PHe/5fuTr5/wCv5pFPQ0Ftk20lltvCSW97DenpWGOu9vv/ANM7a7JPTaHglfudeUnlU5zerF5xCOfV2d2Mn0eHSY8NOHHWI+ji5dRfJbe07t7RomsQzmWr0tPWqY7ILV8e38vA3pG0M7SiQm4tNPDRaY3VhtITjWg01v2SjwMpiay0id2kzWs7iFWlJxnTkp0qi+PHZlNdqbLTEXjaSJmJ3h33ol0gp6QtYV44jP5lannPV1Utse7c0+DRyMuKcdtnRx3i9d25MlwAAAAAAAAAAsrVYwjKcmoxjFylJ7FGKWW34CI3Hzvp/Sk9J386u1RnLUpJ/u6Ec6q8st85M7WOkY6RDm3tx23bSrKNKmlHZhasV8SYjeVJnZq8mzNVEoXEido24UXqy+bLc+EjPJTfmtWdkXSkc1ZcsRXh+uSK15Jmebd9ALnVuJUH82tHMf8AMgm15x1vJHk1mPenF4ejTX2tw+Xv5WnI5j3itOQGm6aVOosamNkqrVGP3vnfhUj0aanFkj5c2Oe3DSXLo0jrbOdu9CrxQt4S3zlHEVzWzWfkU4Oad+TRyZqqtZAuo1nCSa8VxXAiY3TE7NheUI1qezf86L4MyidpadYX+jvpA7C9ipvFCu1Rrp7ovPqVPutvwlIrqMX2lOXWF8N+GzvhyHQAAAAAAAAAADxPpb0s6Gj3Si8Tupqjs3qkvWqPuaSj989WkpxZN/DDUW2pt5cs6O2+FKo979WPct/t9x0bS8UL72trTfBbF8TSsbQpaebCiyq5EiqYQqSKtgZLS4dKpTqx+dTnGa5uLzjx3FbVi0TE901tNZiYduouFSEZxeYzjGcXxi1le8+fmJidpdiJ3jeF6pIhLnnpQuk6tCgt0ISqy+1N6sfJRf8AEdLQ09s2eHV25xV4g97yKNgWMhKjIFrCU3Rtba4Pt2rv7UZ3juvWUHTttiamlsnv+0TSSYds9HGmneaPpSk81aObeq3vcoJasnzcHB97ZytTj4Mk/i9+G/FR6gwagAAAAAAAADjPpovde9oUeyjb6336k3n2QgdPRV2pM+ZeLUz7ohqaC6uhHjGGfvP9Wb9ZY9IaxM2ZKpkoVTAuySK5CDIDIHVOgl/1ljTi3toylRfctsfwyivA4+rpw5Z+fN09NbfHHyeh6w8rdx7pZeddfXM85SqOnHuprU2fwt+J29PXhxVj+c3LzW4rzLTtmzJRshK1kCjCVpArCbi01vTyRKWx0nTU6MmuxKa/53GdeUtJ6PQ+hbSOrdXFs36taiqsV2a9OWH4tT/CYa2u9Ys201vdMOwnNewAAAAAAAAo2BwL0lVNfS90uDoQXd1MPzZ19NG2KHPzTvklfpF/JvvS9pevVnbo1KZqzJSwNxWBMEr8koMgVyAyB7H0cXmKlejn50I1IrnF6r/mj5Hg11eUWevSW5zD213dqnTqVHupwnN/di38Dn1rxWiHttO0TLi0pN7Xtb2t8W953nIUyBa2QKBKjIGPW24ISqwNtZPWpJcnEyt1aR0Y/R/cOlpWzecZqypPmpwlHHm0NRG+KU4Z2vD6Di8nHdFUAAAAAAADDXkBwX0jQcdK3L+t1M1zXUwXvTOvpZ3xQ5+aNryv0htpvwftL16qW6NVk1ZsaeWR1Sypkqq5JFcgMgMgbborddXeUH2Sk6b566aXt1TDU14sUtcE7ZIe16YXWpZVuM9WmvvSWfYmc7S13yw9uonbHLmWTruaZApkJWkCjYSw13jD8CtkwrCeREkw3Gjf7P7zM7dV69EPo1/9laY//ZR8utROX/jn6GP+uPq+hreZxnSSAAAAAAAAIlywOPeluz1bmhXxsqUnTb/xU5Z9015HS0Vt6zV49TX3RLV2U+soR5x1X3rZ+pvPKWHWGprNrZ25x+ZpMqQUxBK/JZCuQGQgyAyBfSquEozW+MoyXenle4iY3jZMTtO72XT65To28U9lScqnhGOF/Oc/RV91pezVW5RDxOTovGpkgMgUyErWyBjrrMX5+RFuiY6o1OoZxK8w9FQ9Sim+yLk+/eR1k6Qx9Ard1NJ23CEp1ZclGDaf8WqNTO2KVsMb3h3i2ZyHQTgAAAAAAAItwgPG9PNDu6s6kYrNWm+upLtcop5iu+Lku9o30+TgvEz0ZZqcVXKNB3WrJwe6e2P2v1XuOpeO7wRLNpSj62st2xPk+JWs9kzCMjRRXJIrkIMgMgMgMgbbTt71kLNb9S0gn9rWlF/yIww04Zt9WuS28V+jUZN2amSAyBTIFrZAowlgtKGZZe6L83wPPM7NojdPv7r5NQ7ZPL7jTFHdS72Xom0W/lruS3/IUnxSalUfdlRXgzza2/Sn3vRpq9bOp2yPA9SaAAAAAAABjrRygNbcUwOPekDo67as7imn1FWWXj9zWby1yTe1c8rgdTS5uOvDPWHhz4+GeKOjW6Ou1UWrLGvjan9JcUaWrtLOJ3UuLBrbDauHavzLRbyrNUOUWt6a71gvuqpkBkCuQGQKZAq5ewCmQKZApkgUyEr4UpS3JvuQ3Eyho575vC+qt/mUm/haKsF1OMHJc3heJnFJtK822hbobRda9uI0ob3tnPHq0qfbJ/BdrNcl6467yrSs3naHc9D6PhQpU6NNYhTioxXbzb5t5b5s49rTaZmXRrWKxtDd0IFUswAAAAAAAACNXogaq/soVIShOKnCacZRksqSfYyYmYneETETG0uT9J+g9a3k6lspVaOc6qy6tLw3yXNbePE6WHVVtyvyn8niyYJrzrzhobbS847JrXxszul+p6Jp4ZRZOhpWi97ceUov4FeCU7wv/abd/Sp+KXxI2scjrrfjS/APccjrbfjS/APccjrrfjS/APccjrrfjS/CPccjrrfjS/CPccjrrfjS/CNrHJTrrfjS/CNrHI66340vwjaxyV/aaC+lT8EvgNrG8MdTStJbm5dy/McEnEg3Gl5vZFai472XikImyXoDoxdXslKMXCk3tr1E9XH+Fb5vu2c0Uy56Y+XfwtTFa/To670c6P0bOkqdKO/DnUltnUlxk/huRy8mW2Sd5e6lIpG0PRUKJmulJAVAAAAAAAAAAMFWhkCDWtgPO6Z6LWly26tGLm/3kcwn4yjv8cmtM16dJUtjrbrDyt56OKW3q69SHKcY1EvLVPRXW27wxnTR2lq6vo+rrdXpvvhOP5mnxtfCnw0+UeXQW5X7yj/qf0k/G08SfDW8rH0JuP7yl5z/AKR8bTxJ8NbytfQy4/vKXnP8h8bTxJ8Nbyp/0dcfXpec/wAh8bTxJ8Nbyf8AR1x9el5z/IfG08SfDW8qrobcf3lLzn+Q+Np4k+Gt5XLoVcf3lLzn/SPjaeJPhreV8eg1y/3lHzqf0j42niT4a3lmp9ALh761Jdym/gh8bXxJ8Nby2Fp6N0/7S5k+VOko+2TfuKTrp7VWjTeZem0T0JsqLUlR6ySx61Z9ZtXaov1U+5Hnvqclu+30a1w0r2eqoWxg1T6NDAGdICoAAAAAAAAAAAAWyimBhqWyYESrZ8gItSz5ARp2XIDBKy5AYnY8gLXY8gH7DyAuVjyAyRsuQGeFlyAkU7PkBLpWfICVTtcASIwSAuAAAAAAAAAAAAAAAAAAFrppgY5W6AxytEBY7IC39iAfsQFysgL1aIC+NugMippAX4AAAAAAAAAAAAAAAAAAAAAAAAAAAAAAAAAAAAAAAAAAAAAAAAAAAAAAAAAAAAAAAAAAAAAAAAAAAAAAAf/Z;" parent="1" vertex="1">
          <mxGeometry x="650" y="20" width="80" height="80" as="geometry" />
        </mxCell>
        <mxCell id="GYKvl5S0yWye8PO-afOo-11" value="" style="endArrow=classic;html=1;rounded=0;exitX=0;exitY=0.75;exitDx=0;exitDy=0;" parent="1" source="GYKvl5S0yWye8PO-afOo-10" target="94biOsbA02pQEUe8V7PV-1" edge="1">
          <mxGeometry width="50" height="50" relative="1" as="geometry">
            <mxPoint x="400" y="280" as="sourcePoint" />
            <mxPoint x="450" y="230" as="targetPoint" />
          </mxGeometry>
        </mxCell>
        <mxCell id="GYKvl5S0yWye8PO-afOo-13" value="" style="endArrow=classic;startArrow=classic;html=1;rounded=0;exitX=1;exitY=0.75;exitDx=0;exitDy=0;entryX=0;entryY=0.75;entryDx=0;entryDy=0;" parent="1" source="GYKvl5S0yWye8PO-afOo-4" target="GYKvl5S0yWye8PO-afOo-6" edge="1">
          <mxGeometry width="50" height="50" relative="1" as="geometry">
            <mxPoint x="400" y="280" as="sourcePoint" />
            <mxPoint x="450" y="230" as="targetPoint" />
          </mxGeometry>
        </mxCell>
        <mxCell id="GYKvl5S0yWye8PO-afOo-18" value="&lt;font style=&quot;font-size: 15px;&quot;&gt;Fetch Leave Report&lt;br&gt;&lt;/font&gt;" style="text;html=1;align=center;verticalAlign=middle;resizable=0;points=[];autosize=1;strokeColor=none;fillColor=none;" parent="1" vertex="1">
          <mxGeometry x="250" y="130" width="150" height="30" as="geometry" />
        </mxCell>
        <mxCell id="GYKvl5S0yWye8PO-afOo-19" value="Trigger All Tasks&lt;br&gt;&lt;div&gt;ETL, Data Load&lt;/div&gt;&lt;div&gt;&lt;br&gt;&lt;/div&gt;" style="text;html=1;align=center;verticalAlign=middle;resizable=0;points=[];autosize=1;strokeColor=none;fillColor=none;" parent="1" vertex="1">
          <mxGeometry x="205" y="183" width="110" height="60" as="geometry" />
        </mxCell>
        <mxCell id="GYKvl5S0yWye8PO-afOo-20" value="&lt;div&gt;Fetch Visulaize Data&lt;/div&gt;&lt;div&gt;&lt;br&gt;&lt;/div&gt;" style="text;html=1;align=center;verticalAlign=middle;resizable=0;points=[];autosize=1;strokeColor=none;fillColor=none;" parent="1" vertex="1">
          <mxGeometry x="454" y="171" width="130" height="40" as="geometry" />
        </mxCell>
        <mxCell id="GYKvl5S0yWye8PO-afOo-21" value="&lt;div&gt;Load To&amp;nbsp; Mysql&lt;/div&gt;&lt;div&gt;&lt;br&gt;&lt;/div&gt;" style="text;html=1;align=center;verticalAlign=middle;resizable=0;points=[];autosize=1;strokeColor=none;fillColor=none;" parent="1" vertex="1">
          <mxGeometry x="290" y="320" width="100" height="40" as="geometry" />
        </mxCell>
        <mxCell id="GYKvl5S0yWye8PO-afOo-23" value="&lt;div&gt;Visualize data &lt;br&gt;&lt;/div&gt;&lt;div&gt;&lt;br&gt;&lt;/div&gt;" style="text;html=1;align=center;verticalAlign=middle;resizable=0;points=[];autosize=1;strokeColor=none;fillColor=none;" parent="1" vertex="1">
          <mxGeometry x="530" y="234.84" width="100" height="40" as="geometry" />
        </mxCell>
        <mxCell id="GYKvl5S0yWye8PO-afOo-24" value="" style="endArrow=classic;startArrow=classic;html=1;rounded=0;entryX=0;entryY=0.5;entryDx=0;entryDy=0;exitX=1;exitY=0.5;exitDx=0;exitDy=0;" parent="1" source="GYKvl5S0yWye8PO-afOo-8" target="GYKvl5S0yWye8PO-afOo-4" edge="1">
          <mxGeometry width="50" height="50" relative="1" as="geometry">
            <mxPoint x="140" y="410" as="sourcePoint" />
            <mxPoint x="190" y="360" as="targetPoint" />
          </mxGeometry>
        </mxCell>
        <mxCell id="WYzAhRS5wFJilVeLzUXv-1" value="" style="endArrow=classic;startArrow=classic;html=1;rounded=0;entryX=0.458;entryY=1.038;entryDx=0;entryDy=0;exitX=0.436;exitY=-0.018;exitDx=0;exitDy=0;entryPerimeter=0;exitPerimeter=0;" parent="1" source="GYKvl5S0yWye8PO-afOo-7" target="GYKvl5S0yWye8PO-afOo-4" edge="1">
          <mxGeometry width="50" height="50" relative="1" as="geometry">
            <mxPoint x="211" y="250" as="sourcePoint" />
            <mxPoint x="343" y="250" as="targetPoint" />
          </mxGeometry>
        </mxCell>
        <mxCell id="WYzAhRS5wFJilVeLzUXv-2" value="&lt;div&gt;Fetch From mysql&lt;/div&gt;&lt;div&gt;&lt;br&gt;&lt;/div&gt;" style="text;html=1;align=center;verticalAlign=middle;resizable=0;points=[];autosize=1;strokeColor=none;fillColor=none;" parent="1" vertex="1">
          <mxGeometry x="403" y="314" width="113" height="41" as="geometry" />
        </mxCell>
        <mxCell id="94biOsbA02pQEUe8V7PV-1" value="" style="shape=image;verticalLabelPosition=bottom;labelBackgroundColor=default;verticalAlign=top;aspect=fixed;imageAspect=0;image=data:image/png,iVBORw0KGgoAAAANSUhEUgAAAT8AAAGoCAYAAAAwxeJQAAAABHNCSVQICAgIfAhkiAAAABl0RVh0U29mdHdhcmUAZ25vbWUtc2NyZWVuc2hvdO8Dvz4AAAAvdEVYdENyZWF0aW9uIFRpbWUARnJpIDIwIFNlcCAyMDI0IDAyOjE3OjQ5IFBNICswNTQ19exu1wAAIABJREFUeJzsvdlyJEl2pvkdXWzxBVsglszIzFqY1WST7Gr2RctI38wDzHOPdF+MjLBHhuS0VLHI2rIyMmMF4KuZqZ65UHO4AwFExoKIgMP1K/GMAuDqtrjZb0fPpvLtt98qmUwms2OYz70DmUwm8zlw3/3y//jc+5DJZDKfnGz5ZTKZnSSLXyaT2Umy+GUymZ0ki18mk9lJsvhlMpmdJItfJpPZSbL4ZTKZnSSLXyaT2Umy+GUymZ0ki18mk9lJsvhlMpmdJItfJpPZSbL4ZTKZnSSLXyaT2Umy+GUymZ0ki18mk9lJsvhlMpmdJItfJpPZSbL4ZTKZnSSLXyaT2Umy+GUymZ0ki18mk9lJsvhlMpmdJItfJpPZSbL4ZTKZnSSLXyaT2Umy+GUymZ0ki18mk9lJsvhlMpmdJItfJpPZSbL4ZTKZnSSLXyaT2Umy+GUymZ0ki18mk9lJsvhlMpmdJItfJpPZSbL4ZTKZnSSLXyaT2Umy+GUymZ0ki18mk9lJsvhlMpmdJItfJpPZSbL4ZTKZnSSLXyaT2Umy+GUymZ3Efe4dyHxGVEFXP0j/egdEQcCJ4gW80UtvUARFzz93/flBoYlCq5L2Qd9m27rx2thvAeQd9z2z82Tx22UUNMZeSwzvPBEwgFG8UUZOGdp4/qekRxGDEhFUZUMEYR6ECYYmkIQv8o4CuP5ZrGTxy7wzWfx2GINiiBhAEERi/y+IrAVGegsu6Uv/e1GwCjYycpEjH9m/IH6KEcVIJKoQ1VwQv7NgKDqDbQ2E/qWSPl05f2/6WXrJi6hGIBBVUIUogqohqmYBzLwTWfzuGko/ndXekro0nRXApOnqXhm451vGLlBZKK1Se6X2UHsF7YCAMx2l6yhsi0gACSAxCaBRSqMMrVJvTHtFVoKp51afblh2SxWmQZgHgeBALRotXbS00RCiIURLFw1tNLTB0AahCUITYNZZ5p1l0lpOOstZC1HN68e7OVU2eYqcWZPF786haFSIEa4SA5Peg1UOisA3w5YvBw17ZWCvCBzWkcNaOagi0IAuKdyCvWLBqJwjpgFpewFMn2WF/nXZ55cswNV/N4kKnQpBBaKH6InBswiORedooqfpHE3wzFrHrHXMW8e0tUxbx4u55/m84McZMIPJUtAo/QFeFrfYvwSxOcaXSWTx20a0lxKFtbgl68aKUrtAKYHCQmHBG3Am4mzESMC4DuM6fjZq+fmw4Yu6Ya/s2Cs69ivlqIK9CtAl0FLaJHzjcoHQgulAuhs6mF781BGiYxEcTXA0nacJjmXnmXeGeWeYdbYXQs+LueflouDp3PNw4ng0cTTREnGoWtqQLMiVpbgM0KilAbp4lWVItgp3jCx+28h5oGJzWptu4tIF7lcdD+uWo6rloOrYLzsGxZKRbyiLJd4t8b7hsOg4KAJ7PlDaSGEjtTPUzlJaAxqADms6Stv19pvtjaibsqCkt1ANIoo3AdP/W0VLKBa0UWk10kahDYYmGhatZdYlK/Bs6TldJrFsYxLMs6bkbFnxctFbiYuC5wvhxdLShivETxQRWU+NM3eeLH7bhpKmteFymkr6o3eB+1XLfzho+Gq84MvxjC/GM46qOUeDKeNqRl3MqPy0N3T0wsRY1IEW6d9Nzqe0Ajhem8feAEaUwgaU0B+OgCgqDUiT/v/qHKyOWC0aCzR6Fl16TZuSH6cjnk6H/Pl0yB/OBvzxRADLpAHCZXVTkIhacz5Nz9x9svjddqJcEBormvxzrmOviOwVyrgE76YUdsZ+ueCLQceXo5bjuuGwajmoGkZFy6hoqVxLYZVC7DUbtKTcuY+gbm/JufT0+yAYkuBesU/SW2pWMRJwJuUbigRqP2dUnXE8LvjmoOBvZiVP5yUvFyXz1jFrCyaNY9p6zlrLJAjTTugirC1CWW8jc6fI4neb6e8/3bBUrIV7ReSbUcPXey2Pxx1f7wdG5TOG5QuG/oyRVwY+UrpIZQOlVZwI3hisKFYMxOKaja6CBrcItW/IAVzbrVYipVWsCTi3YK+O3A+GbzrLojMs2pJ5W3DW1DydDnk+G/KXyZAnkxHfT4Y8mQttJ7QB0smPYAzpOZHV766Rxe82calwwYpSuUjhUiKxM4GhD3y7P+evDub88qDhl4ctvzhs2a+eM66eUruzKz54FVQoWN/E11l+t5E0Zf0pUl6h4oDKNWBakoOyRz3Egllb8mQy5snZmD+dtfzxRDmolOGpxVvLq6XQBaWN0GJpsCkqfXmXMltNFr/bggIxJe6u0lGGReBnwwU/Gy05rhbs13MOywXHgwXHgyXHVeCohsMSSjfHCddYdJKsp126Y7UPzGw+Ufpz4Gxgv5oiZkldTrg/esEvFiVPZyVPZwXP5xXPZwUvZiVPFhV/mRlOmvW5k41cycz2ksXvtqB9nloU0nQLah/4q4MZ/+3BGT8/eMVX41MejM5StNa1WAMehxOfUligt+6uYtfuVNtHkTdJ58CbyF49ZVh33N8TQjS0wTFZ1kyWA55Mxvz+5R7//uqAf35mOF0WnIT1Z6npq10+o1808+Fk8fsc9IX8QroRvVUGRWTsOkYuUBVLynLJo9GCfzia8Lf3pnw5mvBoOOOwnvdJxh1pOrv6wBW7JnJv4upzISheFL+qUgFUO0YOlmVk6CKVCeyVS4bFkKPhhL+cVUzbgnnnOW0tJ63lrNtMqJbzRg+Z7SCL3+dABU3GHZWFsYs8Giz5+d6Mn+3NORqecDQ85d5gxsO64UHdMPaByvf+q/MAwC0MTmwFG26A84RxwYkgNnBUz/B2wb2R4av9il8vap7Nap6cjXkyGfO7k4rfnlScLgvOG0KIpNTHbA1uDVn8PgOpxF8oRdl3gaOy5ZfjOf/5/hm/fvCKL/ee8fjgGfvVdD0out6f53ivDiyZS5gL02IBnICzgdI27NctmKYvvSs4WQ753fN7/OuLjtLtcbpUfpiYlGeokprScCG8krnlZPH72PSBDODcSf5guORx3fDlYMHD0ZSHgylfjmd9UvKcw2pGYbgYvFBLFrxPhekDJsX5eS9sx/HwlCgtzp9yf1jz64cDns+GPJ8NeL6seLp0PFt4dLOZwqpqJHPryOL3sYmrgvseG7lfN/yXB2f8+t4JX+y/4PH4Bfv1nIGLVD5QiFAYuRS5fY9mo5n3REDdRoRcKGzHvdEZo/qUR3uOv71f8Wpe868vjvjXl0f85kVEXw14Ni02xC+mRgqak6RvI1n8Pha966e2kcorteuoy5a6aM6nt//5+IQH41c8HL+iss16bPQpJy1bep+Riw8bK8rQtQyLlqPKwrBhGRaMPIy8UtkWaxtEOqaNYdYaFsHQIDT0rsUsgLeKLH4fg36qaxSORw1fDRoej2d8sXfG470zvh5P+Wo85YvhjFHR4DBXTHHznXK76IMkUfpgk8GZyP3hGWIa9upTHh8M+fv7I/54MuQPJ0O+n9Y8X6ZmCt2q3f5rrf4zn4ssfh+DPmdPFI7Ljr85nPH391/xd/ef8fcPfqQqlli7xJkOUY9oaumUue3Y/sHU/yTK8XDK0fAV3xw5/m45YLoc8Y9Pjvm/vxcsBSE6ThZprRLJwneryHfcDWEESokUJnJYttyvljysF3x7OOXbgwm/ODjj8f4Je/UcZ5qUpydxHQzJU9wtRLHSYaXDmIgVQ2UjvzwUIi371ZTHpyMenwx5sij5YeF50fjPvdOZns8ufvoxeiN9UqTPtlNqG9l3Hb/am/Lr+y/5Tw9ecTyYcjyYcFjPGZctxiz7FvB9coSEPjcsT3O3jz65RRQhUpgltuj46iAwqs74ev8lfzo55E8nR/zzizH/8/mI543rr5jNT/k498Dl7WQu8tnETxCMMRjZ9q8o7X0hysgLex4eDpRvj1p+/XBO7RdURYOzkYDlVTv4zPub+dhYB/dGLYNijjdDKtty2il/mBoK668QpZsTv7SES/q8qIqq3gED4+PwScVP++ReAGcsw6Jm5AepxdKWYwUGJlDawFkc85uTIxp5jLMN3rZYEz73LmY+MW1wnMyHnC6GPFnUiKl5NKz7OPLHeeQHjYTY0cXAMiyZdw1tzNfeVXwy8Vs9fVYC6IxlvxhxXB/izTa1V7oeIxEjylkI/OY08MdZ6Fcwi3lpiB1EVeiipQuWZRCssTwamrQ86EeSvy52NF1LExpeNRPaGLL4XcMnn/aWtqC0jqEfMPIDBq7C3RHx0/5/ncJZk16ZzAoRGDg+ovQl8XNiccbSaqDTgABtjLTxphaduht8cvGrXclBtceeH1K7EnPHTKJt92BmthsjBm89Ioahxr5m2TJt53Qazv2BmU8sfoIw8BX3yj32y/Gn3PQnIQtf5nNjxGDEYI1NLdPEYDF0Gph2C+KG333X+WSRhosnPJ/8TCbzefmkYVbZ+G8mk8l8Tj6xz+/the88Xym7KDKZ11k1itn6PNnPx2ev8LgOVSUEJcSsfpnMJqsYoTWCMSB3LGj4qbjF4gddVNou5yhlMisEOV9HHTVJ+LL2vRe3TvxiVKIqZem5d1QxHhU4a7DGYHJH3MyO07SB2bxlNl/SNIGmDYQQe0HMU+B34VaJnyqEqHQxsl95fv7VAd/+/JiycFSlw7m7kQydybwvk8mCJ0/PePLjCc9fznn+asZy2WGtYE22At+FWyV+kKy+rlOqwvP40QH/5W+/pK48dV1QFFn8MrvNi1czfvf7pzhRQoicTpd0Ma0jbEzO4XsXbpX4pQhv6kZhrDCsLUf7JdZZnLMYs/0NEDKZ92Hl2isLy2hQsLdXM3g1w7p8T7wvt0r8IEV5oyrWCIPKcbhXEjGoCpqfapkdRQTEQFVahnXJ/rhiUBV4m2dD78vtEz/Wi704ayhKSxeELkpeFPUj8D5ZEnetPPSnzsFVx/sxxrxpvBgwBqw1eG8oCod39s7Vxn9Kbp34bRIR4sriu2M33G1A+gXK3vWmFO6OAP7UObjqeD/GmAvj80P+k3BrxU+BqBBUyHnOHwmhT5J9+yEx3h3hA84F6Tp38nXHe9NjVqiul/m9U+f5FnJrxe+nCFFpg9KpEnXVsnv9d2PAiFwoXrYiOCu4Hc4XVE1+VVXlZBE4XQZm3drUsM7ivMVek1Y0FGFkod5mP3t//KjC/BQWL4nN2dXvLfeg2kPcIPWnNw6aCSxeERenyUzT1SLl/cf7EaHYQ32NcR7jCmjn0EzSdkILobmobq4AV4NfvYaI2NXuZj4CWyt+XVQWIbJoI11MpXCbFqK1gjNJ8FaUzlCJ2W3xQ4lRCTHybNLy+5OWp4t1k8uicFSDkqK6Wt2+LOHLUrZb/ACNEY0BM3kOL/8NTv589RsPvkYOv4bxQ5AScRZtzuDFH9FXf4LQQewuzFXj+EvC+DGMHmDqAeIcdHM4fYKefg/NDJppEsAV9QFUhzA8gvEx4iswNk+BPyJbJX6rZgdR4awNPJt1vJh3dCFZgQI4Y7BG8DZZeVaE1XN5WCj7CCqarEBJS07uCiJpSraMyjIoT6Ydv3m15LvTBiuCEagGJYPOUnUXL41VjwkThX2bXkbYOod7mk5GiA20DXr2I/L0t/DsN1cPCEtwBVJUIGMk2mQpvvx3ePLPa/GLa5XSoykaFcSCBSkraM6IJ3+EH34DzRksJ9BtiN/wHjo4Rva/RKwgwwOQIq2Pni2/j8J2iZ8qy05pQuT3Jw3/9GLJb14uCJrK4ipn2a8KDmqHFcEaAKFTaFU5Ki1fjIRHg7TK2r4Tyu26d9+blcO9A04jvGyEPyyU3561/GnSMHCWgTMMTGRoArW252ODQqdKq7CH4aE1HBhDYQyFk615gJwHHWKHaSbE6Uvk7I/w6jfw4v+9elDp0GqcpqShBQSd/AgvfwM//iNo6IVvrVBCgyVFPYwXGO7B8mUa85f/Dt0CumUau2K6h1T7MP8aSg9H30Be4vejslXiFxWaEJk2gT+ctfyPJ1P++w+z88WRDsqCx3vK4z2LET0fs4jQRHg0hCmGaNKIgYFyW+7cD6V3tnfAaYAnDfxhHvnNtOUPpw1HpeeodIwIDOmoN+7LTmEZ03m8bwyvvGPmgQK8vmO4+HMiq2ThjticYiY/wskfkZdvEr8RVMdosZ+aCNgSZj8mwXz2j6/5+wCMBgSDWI8M90G/hsVLePH/wff/Zz+FuSiYuBrcEOY/wtFXSGyywfeR2SrxS9UfECIsushJG3i+6CiswRuhiTCPMO3W92NUaBWaqCwCLAIsg9LFNB3uFBZBmUcI/fuVtBSlAQqgNOm1Kh7fZBnT+KVeHA99Rr5AiVKY1IJo0994XsusShNhibDcTI/Y2I9KoLJCseFrS1PRFOhZxvRqWe/HarwDagcDlyLnnUp/PpRZp8yCMojKMkIRlSIodkP8Vuc8amoxtnptoyNeVmHUGNLUt5tDN4V2mpLpxALaBzICtLPeUmuT5Re75KtrZ9CcpvdfHtNNkXaWrLvYIapobKGbwfKkH2PSa0UnaZ+Wp71VmJ19H5utEr+rEBEqaxh7y37hqIy5UNwt/c0vJgmHvWSkNFF52SkvlspSk/goghelEGXPwoEDa6/unzYLyotGedUpjQrtRmqOETgwkQMbGVuhcgYrci7MSprCL0LkrBNeRuFVWN8QVhQvaUH0Qy8cAcUFSzUFL2JUzgK8amEShUahUcGiFJIis/dKwcoq2vuuJxm8AaNCYbZnmvvOGAemALSPxv5UOzX5sDGb4ncuoplPxfaLH1BZw37hGBeW0prX/m4lvbys+/ZHki+rifCyge8WyizCIgoBpRKlNsrCgS2VCvAYil68FEBhGpSnjfLDUllEWGj6XEji98gq0Sl4RYxQstbmZLEpk2XkWSs8CYYfurUyOeF8P6JCbYW9vvpFSBZZF5OAnjbCjw0875RFFBbaW3xGGVvFiGFokqWrqv3C2W/XBKR3nSYr8g4FiWTzDIgk8TEe6C1DVn9O82W9kKXcfwlXjbnyrG5ux6Uxxl36e1/Dti1uhC1n68XvfYjApFN+WKap4vcL+GFp+mljsty8gBdhGZRWhVlUjkrhnoMCpemUJionS3i2hB+XhlZJll+/HQOoEaat4SzCV04Y+bV4tCo8bw1/WsCzFs6i4SSuL3zLej+8KGMTGQkUViicsASeB+HFQnjWCE9bOOuS5ddqsvSmAtPeWhMUh9J1kYFGSmJyzO8KmmITooIRg4hDjSWK6afCHdAAEbRP/xELtgBXgq1QqUB6q03pxyz7z1+NMUnYrFtbd2KStWcrQCD2U+gVrk6vYpz8inLxIZ65eXZS/FST+DURpgGeLIQnS0m+sv4JbUjP4lkQ5qpMNJk9YwSP0sTIdBl5tRSeLS0/NsmHGJELPr8phqfAVGFQwuON/QgKzzrh3xaW523y13UbVoNs7EclypGJHBhFCpvET+F5C79fCq8a4WUrzEISd92wa4pe+FSVoYm4GBlqoNCI2SHxW5edCQaLNY4oFk1nJ4lXWAUiVua7RV0BrkJtgZoSEZ8CGhfGwHnxuUifEO3B2LVVaZOAJuG7NEV2FbgB+PFaIDMfld0UP/pASIgsO2EWhGm8XEZ3PjnFByhCshJjP+1ctd7qojAPMA1XX6xWkgU26wMvm5uIJAttqunvYWPKfHk/lkFoY1+d0ce3I7BQYRJgEoRpSGJ9eXwrMA8pt69CMe9YL5jyK9fnbRsDHSuSABpwJVKNkPED5OiXaHdNhcfRL1KCc3WAFiPU+pSMfPBLuP9r1lmkGyfl8FvY/wbGD9IYLFqMYfwNev/XSJhDmF8Uv+oYqvuw/wt0cB8Vf1Ug+a0RwFnFSAqo+S73RLrMToqfkCKwtVEwUMr1V5iBPmig6WT1F6Tro6/eyGtBlM3tFAYqo4xcHzHeuASNQGGVsU9pJIsohGv85aaf7pZWsKtGDxE8Si3KVC5+9uWxpSh7RhkItEaYRksj5tzSfRPaC3enSqO6/c11rEPrEdFZVP8OygK596sr36oHv0T2f4mOHiHFIE1/979Gv/nf0fHXGO0QWmTjiaCjL2H4GEaPYHhMFAeDh8Qv/ze0uo+JSyTMkQ3x03IPikOoj+HwG6IpP7iL0cAp3imFj0y61PBUNEvgit0Vv14M1KR0lOsuCdtHWytRHIJEwIAToXKpkuRNVQ7eKCOvjHwSr813ClAZGDllFoTQKotr9sQaKGwSXGcABdGUB1sbpbhUx3zxeJWy9xlWBl5FYSqGJYbwNuJHShJfBGhX1u82Yxxa7RHrMVRDOPwaaaZXvlWLPfAjsFW/Roag+98Qhw/gy/8GukTikuQ06cf4EfgR6urzlBatH6FfHqAP/gHiEuISYe3zUzeEYoiaVNaGsR9U2SEClVf2q0DpI09n2l+n2/7l3RxbL34KLELkpOkQY3AuMrj099hPJ1tND1MRKJww8ELhhcYKhU+RU+3DuCKCiDBycOCEfQ/7PqV8CCntBQz3SuGvIgz9umHAps9v6GHohMMC9tzFSKkTOPTwTS0cuDRlnXWrz+k/o88t/KoSDguDM6uLWCiMcuAhqjB0cFTALKz3gz4yXRrhy8JwrwQh0jZpyu9Tm1iiKrMu4ERQaxAbkY3qgtV0XEnlbN5C2TeIeJN0rioqrv3i+HxTaEWICGLLlMzpqivfJ6ZATZHEaPU76zBSp6mzVn2gI14c40pE0u2lCmItSI24AtESuWqMKfvI8Qccl65q3COejpFpGBVzwt6cmgnPFoZnc89p4/oA8+6K4faLnyqLLhJUwRjqyqcba5VLpym9o4kpwBF6p3fhDKMSvBHqUnhUQwgQYkR1ndfn+/zAQoTKpPevWhOJCPfKJKSPQyqxC+Gio6Z05txiG9iLWQxW4NClz2/Kvowspohk6GtFjUkL0wyssGdTw4bV0oWlEQ59SoG5r9BEoY1K7Nc7NqIYa/AmCfDYGpoAXYg0BIrkjSKoMu8iXWyJ1mCKArdh3mmfwA29BWqE0qXa6OvEbbN/3VWGserny+NV0j2f2kdZjCuRa2rJFEuKu68REcTZ5DvEIOo3wlyAWMTYdWNeXY0xvWvi9TFXbee9jk1T4jwxid+eWTL0c/ZkylfVKb99WRI6w8ncI73bZ1edgVslftLnmDkDlTPse8u9an0IlYWBSdba6oYLmgIVRoTK0r+E2gm1lyQKfYAvBCWEFMhwVlh3CH/96pDeqto3ySJUVUJMn7Fp+VmT1iO5KjfOCowdjC/9PqxEVJPYXbcfvhfjzfGqKxFPFqK1vVAbwRhh3sDSRRqj3PPC/drxcLm+8UfeMHbC2F99R+wXhoE3FCY1jdi0/QTQGPoUjtVyinp12lovPp/d8Fjd/Nf4DCRGNLYX99Ok6/A8G+XS8QkR+jHnZb/yE2NU0RjTtHpVAfIeqqSkh7BGxWigMh33ioaH1QRrXqE64odpwXdUXIpr7xxbJX7J6W+QEr4Zef7rgwF7Gwu41L5vbFCtb8lIsvy6CPdqw1dDw5e1sO+SVQdJKFXAskpgTn688wv1LSKc0jdSMMZsvFnORfKn2JwiOkl5aOmeebcbQM4Fz1zcbn8jWhEG3sIA/va4oiws/3B/7XuqvWNUOmp/9aXxzcByr16vo3xu2SXlQ7oJOj+FdoHGDrRDr7q9jKSZ5HXRok/E+Zrfb5iem0u7L/zElH4DsxL5nxojBUZ88vm5AepGfGjFhyIEDNYFjgZn3K9/4Hmz5HevCv50VrNQYa6b3srdYqvET0QoHXi1fL1X4AV+MVgfgpHkh7KXzKxVmsZeZbg3NByVaSrqzut1e72ygvQ1YKsStncpBzN2JXTr7avKW4lnOj7Ox6/2Q1XeaXookFoiycVtr6wsI8LAGUpr+PvC8leHFU1Yb8AYwYp57RyuWNUYrzrmXNh3lNhMkLMf0fkJEpZo11x58OIFKQRT3II51xsCXtd+b28Yc+34N23H1qgdoH5M5BhsnSzA9yQlA6zF73h4yl8dPeHJIvLo2QFHZeBlZ2g6Q9jRCPB2iR9JAI3AXmExY89haZOZrxD6qWcXFdf39Nu8ievCMC6E2sEyBqbLSBsCnXZ01+SYGDEYcZifuBBXT3Zz6emusU86/knLsZ+BXW5coGvxfhtWloyRjfw8TXXChmRVFsZS2PTavzR+1SE7aN/zsO+IfVVThwsHGQISF9jJd+jLf4azH5DQXOxZJ6zm4En4yvTKkKpHTI2WR8BfE4oxIsUHBYS09yoaUUrXMiwWfDGc8avDM17MTvm3s5r5pKJpTXoy7thXsVXit0lhhXFpqbzpfXWRZZeCH11MgYZBaSg3psXeSPpZlLM28HzZcLJcMl/OmDfzK6dnhSup/YDKlz+5T+dO/v7nPnD8dhewbEyN3mf8FfuBrp37pYFCIgNvGfvy2iUP26BM2sCyjVTOUPs+l/HyNHqTGFL6RnuGOfsd9un/QE7/kJJ4Y+BcusWA9+A9shSkAVl+wN19h1BJLfK1fAS+RMe/IPbXxE1GxO/VS/72/inEiiDKX6YFZ9EiRm6BA/bTsrXi561QeIsING2kaQWIKQ+NgLXCoLCMvL0gLGIgopx1LX+ZLHkynXA6P+FkfprSQ1ZI8rYNiwH7g45RufeZjvTDMaIMTGRgIgelxxvLmItivhLaZVSmy8jZMjAuNEU0fUosNNd1NIghWXjLM+zZv+Nf/F+YV/+r/+PGmLTwLJRlyhxvI/jduuF+Cq2+TsLHEsxrfVI/mKO64T8enVKL47tpyf/zwx5G5eK1vyNsrfjBKqwPPzTCk5nhtIFFJ8w74dgYJgYOVBkaGPWpGarQxcjT2Yzfnjzju8mEeTNn1szPP1cQnLE4Y5kSmNuW8ap4fQsRUqK2l8hDNVRF5Ji1LHWaap0nAV4u4fnS8Gop1EGoWuGgNDyohEfuHWZGYgDXO+37UUZAHDs3v7pFFK5lVE04HFoeDUd8M96ji4ZJEM66jdykHfiKtlb8VhERQBpkAAAgAElEQVS0NsKPS+F/TeH50ia/n1omosyAhUYelEJtBbsaE5Tn8ym/ffWcP0xOCDHSxe78CWvEUDpPZQoGdMylZarNG/bm9mNJaScBx/Hg4lO+i3DapbZcTxepQ83zRrBtynV8FFLKzYPyXYKzBsT3ve7k/Ffr0OruWRq3AW8apIgcDZRHo32+GS+YtZ7vZ5bTZcqLSu7tu69+Wyt+kPKZ2gBnrfBD39Jp9aXZTnE2UrWw79a32qohwaRteDaf8MNs8trnWjFUGFoXiSGgXSSYu5EQMC5SB+dNgirTkPoaPm/hWWd4sdEgwRr4ukuVA4Y3BD4uIKx73cn5r5CYXpnPgjURKy2jcsmjUQp+zDvLrKv4fmLXz6W7r33bK36qqyUYlagCmvufvS+KpNpdhaXKa51lzs91SH6/y92sM1uEGlCLF8sXowW/fvicJsLT+SEwZCdUr2drxS/quhIiRvpI7e58cTdJSgQX5grNRinbClXO1/q1mLdO3M7cQtSAegqxPB4t2fMvmXaGf3kxJDlHzudIn3EnPw1bK36rPI4sejeDnr/k2uv+XfINM7cYTQnppWsQ03KvrvlytODrccM0CNMgNKs8mzv8lMtzxUxmBxEBb1sqv+CgnvLlaMa3+wse1A2VBDTchd5lb2aLLb+UlLkqrbd9dcXKOjF9nwwjqxZQmetYnT8PONalfatKEXueAfGulcaZ20r6zgPWNOxVC74YzfnV4YygJS/mAlFQkZT3fEe/9K21/Iz0LaesUHlh7GFolaIvXCgExkbZN6mR5y6tVfGuOFH2TOShixza1BlagNKmczryUDnpl+7M/r47g1qIBUMrPB41/Md7J3w5njPwSp8c9bn38KOytZafSIo6OlKt7sgr0yCcdcoSoRBlJJE9kxb/udtf44dhgZFRHtrIwgovJFXOFJKEbyV+ru9ancXvrmBBDQMnPB4tsJzwx0lB7dLcKXF3jYatFT9Yt5Hac8qjUvAC0y69HpXCUZk6HN/phbZvACupISoe7qswJzVzHbgkfMdF6juYhe8uIpQ2cFjPMUZ5MBiyXzYM/YBWoLs+/rX1bLX4QXo+HTjB1Mr9AtooNBH2rbDvLEOTGpNmb9X1iAilEUxheWiFqhC+DPRdrJWBhX2Xhe+u4mzHoJwids7hYMz9+pCDsmUSDZNwd1d23nrxs5LWwTjsOw+vv6gseG+LkdTWvyCluT7c+Fs+h3cfJwHnG0rfcTQ44qheclS2hNYziyYVEdxBtl78Nkm969LiPdIXaGdr5d1YLZ6Uz+HuIaIcVS2/OpwyaQbIyYCXS0fqrXX3+v1tbbT3KpRUhtWF2Dc4vasG+8cjdcqJhBCJH7JqdmYruVc3/Opwyl8fTjmuGmwEjZLWebhjbL3lp8AipEW/27gqeYPKKpVNa91aSe3Z797XdzOsumDHmPr5LQI0oV/BzoKXtL5wae/cwz8D9KUcCIaDsuNnezNOlxN+86rCvk833S1h68Wvi/BDA3+ew6QDVUOMyj0fOXaRfQ8Db6i9ycX41xD7pSvnTeRlB89a4VW3WqAorVn8uIavzJ2udtphBKIDMQxc4Hg44+G8ZFyMMdKxEse7xtaLX1B4soR/OYOnzeoLEn7mI20RMKUi4iidyeku1xAU5k3kdN7xfWP4fWP5rlt7RB5XqQ3+45/u5J/ZSgRwiMLQR2o75fnQMioOQDpSJujdW+B3a8Vv5ZTvYpqiTTthutGOZGKESRAmESqVu2q53whBYa7Ciyi8DMJpuHgupx0sQ1oc6rzM7W7dB5keKxFrOwbFguN6yc/GDd/PLNNgmUd7p5odbLH4bfTzi2uLb0WHsBDDXNL/v4P+2hsjAlOEF2o5VWH52hNeidr38+sXYM8e1LtKBNNRuoYHw4ZfHTQYcXw3hVkraaGj1NH2c+/oB7O94oee95hTNVwuYOskid8CaJHX/p5ZExDmaniFMEFoX2tmCrrq5ycmNYrIp/NuIhGko3Qd9wctvzpsabqW06XhabSp2cHn3scb4k6lumQymQ9EDURPaSwPauXbw4Yv9jqGBaybHdwN+dtayy+TyXwMUrMDbxzHA4ja8OdJYOjhrjU72FrxEwQxiolXl7FZVbwqHsWS1p29K0+sm8agFCgDIhMEKxcnBMnHndtZ7Q5pmdf9ssHIhKO6pHJDOL+Psvh9VkTAGIM1ipjXBdCh1ERqVRyya4vRvxMGGErkSAILMUwuT2369mHWGGwWwJ3AmkDlp1gJDIsCb/Y+9y7dOFssfoIVUo+5K5JvHUqtkQFKgck23xuw/YPiHoEpyvPUw/n879JXyDibW4PtClYCtZtR2xlDP8Tb7V63+iq2VvxWWIEHJfzNCB6168YGDz088Ia9Aqqc4PxGrBEG3qC14wsL4oX9Lvb5fMJxmXr65VO4WwgBTGRQLLk/aPhqtGTSpQWOOt3+BY62XvycwMMCapsScWNIKRkjJwydpTbgrMnreLwBI0LtDM4I3sNeB18Hxdi0YHlphT231dd55p1RkADSMnQND+slXw8bnswNzdzSBoNYs9VPxK0XPyNw4NMrKr34ce6jMtnk+0k2+/nVUTnwqSuONYK1WfR2k178TEddNNwfNDweLZlHz/O56eMe2x1E3Hrx28QIiDUYq9tukX82xIATQfvu17kZRKaykcOq4dFwyY9zizUrn/B2Xxt3SvxEBOmDH6pp8YFc0/tuGElrgIpoPocZACoXOaxaHgwa9ooSZwwp4Xm70162XvyiwizCLECjqU41IlSi1CiVSQ59m4vxryU1MFU6VRYRZgiNplwvj1IKVEZyP7+dQvqlLR2lhYOy4/5wwbCosXckb2z7xQ942SlPlnDSwjzAPAhfeOWLInLPK6U1VN7kYvxriKosQ2TZRZ62wvet4Vkn7DtlzymHHo58CnxkdoVe/EiLW+2XLfcGC0ZFhzNZ/G4FQeFVC3+aKz8s4aQRzjqYVYqrI5UqUgrldvtmPypRoQnKpIn8sBB+Oxf+1MCDQnlQKG2dOjkf6RusZwFFUAwqff83WSVLy/l7OM8hjKwrBjIJQcUkxyu3wd1gQA2FEfbLjuN6zqBosRI/947dCFsrfqpKVOiCsuhg0gqTFloVFGhUmEThNApOhSHJS5F5nQCcReGHYHgRhEWU1OYqCM/b1Mj0yEHnI66v8LgQCDEW1RL8GK3vo8OfoW1LchhubEgUrK7zw5xJuUoZ1JRgPLH6imiPiOq5LUuoeNsxLBbslZbaNphs+X1eVCHG2Iuf4axNN2vov5dG0w19GmGouaXVm+g0PSR+6JL4zfvmr/ModC1UApMy0kVFEKwxFyxAFYvYEvVDYvmAWP8MaVskzCDM1ibMZtWcsWA8eP+pD/dWonaEuhFaPia6I6K6WxNs8jZgZMF+JdS+wWTL7/OiKBrTwjtdVJb9YuUrOlJTzqVCp7fiAXpricBShUnf0Xl1vpoIDcI0KE0grYh31bxXDCoGsRU6eEg8+mvE19BNkW7ClWffW6gKtMziB4AboW5MLO4Ti4cg7lYIH6y6OwdqL9SupXaB0ipBlPDTw28tWyt+mduHGouOvyAahYOfQ2zS6yrxswacy9PeFaZETZkswPIBmOJz79EGESQgVqh8y0HRsVcEZlGYbXGL9Cx+mZtDDHH4BYweEImgKQRyFQo5C32T8+CQQdX0kdbbQgRpMUapfcdBmcQvdIZZe5v2893YWvET+jZLmpakzLfR+yMkA6wU8KKv1UGLgBhZlwtee7IlTdeMy26GD+C8cuy2sArWi1LayKgIDF1g0gFBVqtabV02xfaK36rHnKZ/t+7M3yKEJHqVKKXIFVHx/ly/5eJFejf84ZnXUAobGfnIwAa8CBoEMaZPpdiue3CLxS8JoFPwBmqrDEI/nVKoJFV3eJPcS+9KSqWJqUXWTe/8LcOIUhoYWZhYpbbCNKYOz0LqmFMYwRp+sjWYnkco9aNaMKvlMzd353y7/TZvYtPXbUc3tnPTmFtajWQEChsZFoGRDxQiEA0qimi2/D45RuDIRX5RKoemX9FN4bgSjivhXimMbWp8+rYoShc7Fh14U1DHbY5p/TROUssq6tQfUVDcuSWY+iUeOkHeYr2rGNMylzEqnUKnNy8SIuCNobDSF9mvth3pQiTESESI13oc357CGrwV3MZ2QlSaEGnjzaufEaGwgre3rwelSGpycOBbRkVL+T5WxS1i68XPChw5xVSBqVW6oLRROSwtR5VlXBic8E7iFzWJX4iBwhWEOz6P8wL7Thja5PtTIk6UfaOMjXLohX37dt2wVZUYIk1UliG9Pob4DQqwxl6YooeotF2gaQMdQsDwod/coCCtabKhRF1UFl1k3t78deGSeZVKyG6Z+ScotQuMy469osPb7U5T2mrxE0muhpEDWwkjp3RRCBFGpTD2QnXpCFXBINyvav7DwREjX7xxajv0A/brAXtl9bEP56Oymr49rEr2vN34fXqVQInQqtKqUBgYGxgZZWihdivf6vVTWVVoe9FrukgTlCZ8nLmhldSsQjX5IY0IXUz1yYsu9sIXP9jy81borGBXFq3CIqRtNN3Ni18waaEoK5xbf/aWmIDJ4o4MfKB2EW9gm1tbba34rTIDxECJwRiovDm/QEsrFE7YXIhM+8oqbww/39vDGcNp0xBjat55Fd54KldRuNuUd/XupEgtjLzjuEpP7PNzuHHtDpxwLOmBUohQiuBNmvaJWZ/DqwQwJUYr0yYJQ9BkJd00Aiy7JGydS/tXGKENyiLAIghx5XP8wG0VQelixHSkB0NQlp3SdB9H2G0EJPmaq74px60RP8CZFPH1Nj2AtrlodGvFD9Y3r3OCc+lL+KnLRBWcMfx8tM/PR/vJRxgiXby7U1uRJH7Omtebk26WnAGVg8pd+uUGev6fq//aBmXWRhYfYUp4kUiISoiGygnGSm9pps4+G3v7QYQQ6YJgSNbeokvH2ITkYrlpgmhfvZSe2laE8sa38n4IYHvxK6xuiJ9uvLaHrRW/Hxcd3087ns6789+lFcYMzl79NBo7Sf6r3lrwVtYrk2EuWEGrovLt+jqvRuiblCKpb19MftGni44fF4HJhlBZY7A2CeVVHBfCcWnYs3K+lu/mlkxvKXZGzq3wj4E1KTBQ2vSvswYb9ObdZJKCKs4Ihe270az6H97wpmBlXaVZS2GlF5jbgaB4E6l8R2UDzmy3wbC14vd0FvifT5f807PF+e+8s9SFoyxSH7LLPK6Eb0cWNzQMvMWKbCx9maZ1pjd6NKZWT3dC/Vj79mLk3Fn/768a/ullw58n69u49Jaq8BT+6gfI34wtf7dvGQ4s1qSO2RcavEjKB/RR6GJaU+XGj4UUmCmsUDnB94JtjCI3XHQvIr3VLEDEYIgx0gbhY1wcIkloK7sSvxvfxAfhbKT2HZXrsvh9SpRVKgU8n3f868sl//h0jhHBiVAWlmGpDKqr03BjTFbfvUIwRikcGE1tsFLHkosikYIj6UZzfS+6yw/iqGnBpKCKklpBbd4Stg/KJKc8r1VPpLSQ1FYqAptakYqdUr6dkVWe3cXxq9y2rm/gcJXWJD+n4Ej7uQjKWat8Nw38y/Ml/3ba9J8v1IVjVEK1MdfazNfbs/BVLTys0t6l9kZyvh1nhNIJqgYbFfMRuv4K4J2hdKnXnO1TXpxNr9LdXAqG7z/bGgE1CJFOhTYKQW8+1cMZktXn0jV9Kxbg0uRcF1K+Z22TP/IGT/NnYbvET7X360TOlh0vlx3Ply1DZxk4+5O+kU6FaRReRcGrMNQkciedctpq+o5l7dBXhdrA2CmjXniMubioT9Mpsz7C2GJoJOWXrahFqUxKuC5tyk1bDY+axi9jTI56FRYbheIGpVClIFI5w8Abyo1GANrn00VVToMwCbC44mFsBPY9HLi03upc0zl40Skv2sCLpmPkLLVcfTVrL6xtL5yLLjn9xacL6HyPJIls7S3e6vmD4aYRktW3Er7V9+GNMKosxQ3elZU3fY5fH+0WQ0Wqaij9x8jzS8E63wvubdC+1NTUIRi88QwKR+Ut/raZpe/IVolfjNCEyLQJnDaRl8uWF8s0ZaveIuGyVZipcBINIxUCoFF51Srfz+OVOWEHLvXgrD2pOfGl4q4mKpNl4HQZmYkyE0vobT8B9o2ybyLRCVIKxcZsUlVpYmTWRM46OOmbr67wKLVGhhrYq9LFtinwqaeh0mlk0go/NHB2RT627++goYEOmKrwKhpetsrzpuPVssO84RwqvfBFmMdeAIPinF5YvVBI6RnOXszt+xieA8O6oerqYbJKSI43mH62KudbVRSJ9rOGj+QPPp99cPHYPi+SxE8thXHU3lF7gzXbbfptlfgpyVoKcb3gTtdPg9/mQlTStLBTmHTKizb1rPthCd8v5Urn/NynKoVWYa8Q9kxKCu5C2varRvl+KTxfGhZiWPRTX0gX7pnAS2M49PDQCgO/Tg4ICq864clCOOlgEpNlusICFYZK4b4IWMVJTNM7IzTAaYTTRvixgad9C//L+L6jvJPktG47xceIUUX783h5ur5JiukJXvR839dlbJfe29+4ihKiEmO8eZUQwJhUjXJZHRRE9bzT9/tkWKecyD5N6lLZlvT+YF0d2w0h/Yxi1aTjdojeJVQQIoYWQ4fIdlc+bZX43RRRYdIlUVsE4S9LeLI0V96js6jMozCNylcmWYCeNPWet5GnS/hzY3jSSF9VwIWGnx6lEDiOUBTCQ11Xm3QIz1vD7xbCqzZZpu3GnSaqOMBiaIxSWKU2gZoUjW0UnnXCdwt40Qovm9TN+jJeUkcONDIQRUNkSKAgYt9GmSQJqNF+OvY25zgqXQi0bfgo2ue9RbDYjanXyg0QYjx/vU91iRHBWoONBmNX39d6OzEqbehobzDJOS0Qb7CSOucYcxvre5XknW7SS7P4bR0KzPuE2LNOeb40vGjlymnvIqaW+I3AOAgPVVCJdBpZdIHT1vJja/iuu24KkK7gRuCLwIVtBIXTIHzfCC+6VcH862MByjZw5JR7PlL0fr8GeBWE7xt41QonrWzkuK3xkrq2eJQDE6mJDFRx+nbN/VdNc+zKenzDINVVeaDStJFl032U8jZFMGLSOs3979J2U31v1wW6cH3y+puw1uCiYh341DwNY1Z1wmkbyzbSNDeX7OKcwcW+vysGRC9M7W8Hvfhpm14fXDz4edlJ8ROSReY10iG4N0iAAQpRalE8rLpw4kSoeh/T+zqlk+Mexl5ZKLRRWF5zPaWCd6hssrxUky/SkwIqhfQidcWxCHruP/Sk1uMTMSzFEG6wNEmVPhE4VXh0XSQEufnWLiKETukkUmiKQHpr6KIy65RFk0Qvvmku/xMHYqJiQ6Dyhoq07tLK1dJ0kWWndDdo+IiCCREXUueUwgquT0y3W95A4Layk+IH4DVZQJ0K/g3dSoxAIalFlkPOE9mdrHLMfrrN05s+uzTKyKeF1yetsrxGjOwqr82mbXMufimi7OX6nivSH++ASIGyJAlfw9XW7vuiwDJEzhYdyy4mX2xc7cENItChtBoIquAtzvYBrTYFkM7rtd+nzXpMDwyR5Dc0gLfrRg1Nl/ym7RUuhvc+pJjqBl0XKC1Em3IuRYRrcvYzH8hOit8qVWLc54ZNBRq5uhphzyv3CrhX9F1P+vFWUuLeXiE8LIUONm64jW31Tvl7BYwdFwTKCOw5eFQmgZ3YJICbO7qKNN6vUqMGbzjP/XLA2KZ9E8ChTK6YiRVGeeDhsEi5gl3s89S4mJZzHau4wSoP8U2G3Cog1YaP2M9PUw9CCdAapXTab1v7dlMfuNGNL7HqW6RZTXXKbR/oavvA2Y3RbzNKclNE03dEvFUtne8Wuyl+kvK39krDAVA1cK+92jleORg5YeCFkZHztJFUFWI4LlNU8GGdUnEuRDdllRsIQycclxetRCdw6AUryn3Pef7cekc5bx1/6OHQG6zV3g8klBYOfQpGHHp4VCTL5DJWkvAdekujMF+SHIZviWofjIlK20eGryNVeHBe4RHyzftOpCUDUkWJNQa5HYl+d5KdFb/aGw5qYWjgXtG3J7riPl1VDqz8LnL+GUmAji3cK5LV14VkeejGOrXOmHX794tZEziBIw9HXghhNX4tLWIEZzQl8q5yzTaDIJIiyIcIXRfpSr3SwS8ChTN4bzjt4CRGpHl7UYok4VtEaFdlf1edV5JF7IwQjKC63Usbfh5SpNe5lEd3uaInc3NslfiZ3u81LA17heWg8ByVjqEzb1UA7gUGJjXprEQxmnxnVlJ96NXbTMX61336KtKoJKEyfY+5Fass/et2T87fl34yG1UWq6YLb0qkX49PUcl4RTlZSovrLVaglpR8feCFo8JyUjjqN3QONgZqYynEMCoNlU8lbO6KdAxnhEFhcX2LqSp8eE+9q47H9sGmwhm8WZVeGYaF7b+DNGV8n21L8jcgRqhdKpezIlResCZNfYuQusrcNEYkVZVY0y8On8XvY7Fl4pcuRGeEvdJyVDrulT7lnr3FNeJIzTn3TaQSwfSRWxH6wvWreZsLcCVUcsnBvvL5/TRX1+6+7bW/WtDpun7LAqCC1UgtyoGNHDnhuLCclA5v5NqxTgT7/7P3ps1xJGme38+POPPCxbuOrpq+p3t2RrNm0u6+WjPp4+oDyGS2ktloZdqZHrWme9Q9VV0Hi0USxI28I8KvfRGROEiAxSIBMhOIn1kCJDIzDo/wfzzu/hyRRmlNN4ZOBIl6teSuaB5OStQxt7XbyfWs9urFaugZn7hICbqxIo1kncrenbHCfwS1n12dR6+2ZJsEByEQq3ruzzqBu4bYPSkbQVeyqeXRit91sVLiV0cp1BbHWqr5qBfz0zOObZFWZIkiTy6+YTZTwVok6CtIRb1aGsLCo/8qju/ttyMaR9p3+f4PdZRFooZM1KuJ9xLJT3ox5/wJY02WKNLo9G9aK6JIEUcRdzJPNw7EMjTW5vl9LpIA6BBwDpy8njk/dbaU5uI4m9RTIYDzAiffzupcJHl42cVENeca+YAT4K4htnVh1dZW35Vv/h0RzUuyyhmcF6yU+J3lTq75d3cS7uSnN6iSkkhLYn2xb8BaJLibSDpxPcy9jXPJqrGehYDP12OSWPLzzdMs1VpJIq2IznR8KSVK1e4kW5FgLV6UsbxcrOu6ypJ3LyF0yfZfEwEhmoWmOufWW2z7Bx4kl1n5V4JY3uptNRpE3LxW2wdnZcXvbqZYS1J+s3Ua6l/Pv11+49QBUXXM7FVZe6uGlKJeKFGKzyLJx4PofBqtM+41Z/+4mNtUCHQQTfTB5fsRohmCX1v/eP31OxWnt5z1e+25LVJNXU9qg+W9LwWgQCS1+K1wCntYYfFbZGL+MYklQuN0e5u9LxYPCJopBCF/XBD9ImriTdpwMZT/UFzn/j/0ucGZxPFNLsnrxYOw2OCbGibNvbDCrKz4LR66P+oC3GLRu4zgf2QQROt3u1S8rvLg1VELX0BQecPcWObGXUvd4vfJyorfiRP+arf/B+VExNo2XAleiZgJ536dY2GYBgQBSVhM+AhRz9W9koX6NZ1JNOIXwHjLzDgK46+lgNP7ZGXFr6XlZeocfldfJH0ZEL7WrTpZRJ3+R8h64UmrRYnWOj5YLuomKIXVKUZ3cWoLrx4SpK8/EM5m1a0QfgZh/tpjCIDxkrnVFFZj/dJOTr4Rrfi13BhCqAsm+Zuofg3W1hlrAuGkWJTW9SJJaBzcZZNxPOgIqwJG9XBqk6BmBOk4dVlpcBMgINwbiJ+TFFZTOIX1q51tZqnFbxEOdl3rai2rjRBgvWduDDNnKaylMI7qEudjLTVaynNRNKvGvLQcO8dQQJFq5FpKYjqvfE4KEF1L1XOMc81uIvhe5cTy1YDDiGPSkJE4SUSBpkRhXvlcQOC8pLSK0qnG8vMn764aSyt+tStlQInalH+T7CMtt4cmtJrKW17MJjwbj9kv5hxWhpG5OGtDN+7QiTokOr7w/VXAWE9ZVcxF4KiXEB6tka9lr3xOACSeIvbsphv45A4H6hPUBaU9+xxwJ3zPXT+gH17Q9bsXih/UGYFKKzFukbTiAktyRVhq8RMClAj4xvfpBo9mWn4soh7eld6yPR3zp4NdnkwnfD+fsVeWF35lK99gI9+kG78qFqvCog94EQj9hNCL6VzSMYSAOVCKwL6olz0ucmu6yy4/lQNQGcELkjAmDeNX900jfk5SOnFG/FYz4mPpxE80iQSM9YwmFdt7E5Sq40rFCg9XWq6WRbKIaWk4Lg27peGgMkyspXAXp5cvnKPynmrFXTROaEpqvk5yFvL0OiqRUIqUUuRYIvwlaXFDEBROMq40k0pdaTLXD8FSid9J5KAEYx3Hw4JnL8bkWULeSYjjpTrclg/Ewo1DALPCMawc+5Vj5PylZQBaLscjcWiMiHFouET8fIDCKYaVZlxFlG61jZGlU5NFULm1nv3jGd9+f0S/n9HvZWTJFRZkbbkRvDAF++OCo7Jiah121cMOPgABgUdh0Y3Vd7FFF4DSSsZlxKRSVF6u6nQfsGzi16Rl0kiq0rK9M8ZYRxpHJEmEviRhQcvtZSQNT9SMqS6ohMW36VOvjRAElZdMjGTqNAYFSp6ES64aSyV+gib5p5RUxrK9O+LF3vhMCuQVbOGWa8XmML8D87vgYvDqOpMptJROMDaSmVWYIBGqsRRXsGsulfjBaVYR1xS9to3Tau3Y2dJSUydqDngj8F2Fs4qgJUGu3qrj0hPqkDjvNYVVjCvN2CgqL35cVowlY+nEb4EUdW45KUJTzLsVv5aGpoau8wHX5Nby15Y5sAUkeE3wEXMTcVRoRlVd+nSVWVrxE6JOTa9uY8bRlh/EWI91HiSsuMfFCiAIKJyLKUzEyGhGlUKopqbnirK04tfS0rIcVE5TOc2wyJmbGLfiMb0LbsZZtLS0XBvGKRdw2mIAACAASURBVKZVyqjImbsY/0o6rNWktfxaWlouoc7xZ7xkXMYclVlt+V1H7ZIPQCt+LS0tl+BAOkrvGZYR+9OUaaXbYW9LS8tNJoB0ICpKHxhWmv1ZxqTSuBVPYrrgPVt+AVMWzMMIWVycdmiBEHXeNaFaj9WWlwgBaz3WeJwX+DIhhJTWv+8qadLai0BhJUdFxO4sYVIpbAic5vFbXd6r+AWgKgvGc/uDWWCl0ugoQUXJaz/XcgsJ4CuLLR3Ba6hAhPY+uS4W4rczixlVCusX4rfCgb18gDk/W5XMihnWvt4/SOmYOE6Jk/w9HVnLyhDAlRZXWdAxqkpRbbLHK0bUkR1BUFjFwTzixSRmXKkmj59nFXP4naVd8GhZPeogcILWEGlQP7L4cMsbIOoiRz5mVsXsziK+n2oOK4Whield8TZvxa9lJQlSEiIJkSao1e6Ey4uGoJjaiJ1ZxJOxxiKxi0r3rfi1tHwAhKgDwOXqWyBLhQggHD6A8xHWR8yrnGkVMzEKlGisvg99oO9OK34tLS2nCAfC4PHMXMK8WmNi+hifcNNyhbV+fi0tLWfwIA0OT2lThuUaU9PH+JRa/G6OZLSWX8ulCCURLw0rg/cE59tSejec0gt2Z5rvjhKejxWTCn64FNJq0Ypfy8UIgZASoXUtgA3eWgiB4Frxu8kYK9ifKr45jHk+VkwNnNbovRnWXyt+Leeo6zHUFp+KIkSkm1TlNVJKgpB44QjBE0KTZjbQWoM3AgFBUjrJ3kzzl6OI52PNxIh6MQRBfbFXf8WjFb+WcwilUTpGRjE6kiilzll+KE+IHN57jLU4Z/DOEZxrrcGbQJAQIioTszON+fIo5uksYuKa+0CudlTHWVrxazmHlAqVpERxSqQVWkvkOVeS0KSRd4iyoDSCYKpmKLz68Z4tCrymtDG705gvjxMOywgnVONM/qGP7+poxa/lHEIKlJJEUdRU0hMvid/ig4IoigkETADnAh77/g+45UopTMRRlXMwDYyqjJnRlF4h1GpWaHsdrfi1nEMIgRYCrWrRE5c4EAsh0FojpUD4QGla4Vt1QhBMTUyYdtmdScZVSgiam7LA8TKt+LWcQ4ja2tPq9Te8EAKtNCiNtw5Tlu/pCFuumvrxFhAEpiZmPOmyPVaMyxTPQvyaFFc3iFb8WlpuOQKPwqFDxVEhOBonfD8RDKsILwJChmal92bRil9Lyy2nLkxp0VRMS8Hzccr3I8VxpanTboYbN98Hrfi1vCWBQPABHzzOOULr47eyuACVE8ys4qDUPJ2kPB0rhkbX+ZpvoPBBK34tb0kIAeMMxhiMrfD+ZoU+3Sasl4xszE6V8Xxm+G5ieTYVjJ28MZXaLqIVv5a3IoSAtZbSlDhT4V0rfqtK5RVDG+OrjKdzw5NxxbNJABUI6uZa9K34tZzDW0u1WLmVTXyvkAipkELincU7i7OGylq8rfDWEnzr4LyqlF5yWGmG04TDUlN48MEv6he1w96W24FzlqqYYUyFjDRCK6TUKBWhZIStKmxV1Naer8PcQvAEf3MthJtO4SRlGVHOUo4qReluRoGiH6IVv5ZzeOfqIawwSKeRkUbqGO8DXoKpKmxR4Ezr1/chCD4QnMPbU0u7zkVxWldDCH5UdmvjBROjOC4iJkZSRymufoGiH6IVv5aLaWJ1PRZcIEiHk4ZgDaFd3PhgeGOpRjPMaHYy1SC1QuUpUZ4gY41UCqFvrmhdFa34tVxK8L5+CQcYhBAnaaxaPgy+clTHE2YvjgjNIpOMNOlGD+gTISARqBsaknaVtOLXcjmNyC3ErpW8JUCAVAoZacy8ohrP8cZhhgXx4Zyok6CyGJXFECtEopBao2ONjqNLY7VvI634tbSsEFIrdDcjcx43qzDHM8r9MUUyQsUxuhOjOwm6kyIGKbIfEw9ysl4XHem20t0ZPpj43eAV9JZr5sQCvYXDb6klUSdBasVs+xgzqZg+PWreDag0Jupl6H6GuNNB3e2QWoMUkiStvyfgpO6uWCRmvoW8Z/ELGBEQEpwKaC/QVxg2GAAf6tQ8twEh6rhMeUNOd5EJ37/B9fPOg/UIIxG3KYO0FLX7EaDzhLiXEQ/yZgXYIbUkhICvDAznOOdw44qwPaXMD9CpRiYROonRg4y4l9d+mrcwEe17E7/QPF6sCHgViDwgA9pdXc9ddJybHJJzFklA3aRHdwD3JtcvBLABjENUlto344a0wQ8ghEBGCqEkOk+I+hnxWgdXVrjS0JgA+NLgnMdPKpBTqgCTALqTEvUS4rUunUfrCCHwuPphcst478NeLwVeCUIA5cEIcaHl5yUgQ7PSeAHNkEcQyHUg0Z5EOWJtiVSTWDPc0BUvUedWM15TmoTCJTgvcF5ysa/xIjGpXMopnxDql5KOvqpItUFJixIeecn1F8YiKovtpszzlLnqYaXCioC7yRMqTYJZIUFlEaqXItdSwkTUDue2STLhHMF6nDcEF3DGUhlD1EmxvQw7r+p6HFLgJFTTGXZS4ua2qcXStOFiamEZb5x35L2Jn0DUz2YpQEuCDFS+FsGLmlVIkMohRXHxBkNdSyIisJZWPOwYHvUn3O8OudcfIoKEoG+eAIoAwoGwHMwGfDe6z3fH95kazaRSGPvq+QohUDoi0tHFKek/MPUINtDXM34yGPGTwRHdaEKqZyTq4usvnAfnGSYDvlmP+DpbZ6QVcyFuWHXZ15BoxCBBTDKC9dhpCcEjCSdTIupkTkQipAYJ3lnstGC6fUgxLfEiYCtDVVaYcYGvAvUHAyH4RiQ511EvNllWi/dq+QkAKQhC4BUYwL6mEQWu7ugXvhkI3pMJR5LMebQ+5zd3D/jre8/59b3nSCLwuhbAG0UAaUBWfHN0n//2PGYm7qKmAiMUTr56vkJI4jghjTOUUh/gmF+PsZ7KOtZyw6/ul/yPD/fYyvYZJEd04vHFXwr1j2fhLv+VNYZ8gg8xBglh+c7xWkgUoh/DLMVPS9yhrONxm6mQWrMCQdURIET1Ioe3Dj+eUUwK3PawzuEcQp2pxxd4H5oqbp460iPU1sjZ4vWElRfAD6AMi/qf9b9fN1MTfuhdUQ+bj4ziu3FMP0t5tJYSfIJSnigyaCrqx9YNsgBFCbIijyti7VASpFzU3L242FA9VBJIuVztEAAhAkJIpBREOpBHjjy2dGJDN65e+/1OsCTOo1ydhv2WTP0BoOOYbNDDV46wX1A5j7cOtAB1eh+I8z/q6B0A72uBC6dRvAkQhCYWsJg/rGv51qM0EzwGjz/7pRXlg5hFV/LEaOY9HJKdImFuI7SyPOr3+cX6jEE6RSQztDIQops3/G259URJRGfQRzmwyZC58wTjaivtByx8QW0Vci4OOJChiACP4nzdDoEPgam3uODwwjVD4dV92qzumLC5aB7BcaU4mgs6keXnowHPhiUOj47mpNo2wqdY6cdUS8tL6DhCxxHSBqZpgpa1QL3pXS5E3SvOmssKQXyJLLgQ6qzPfiGatbXtqYfMAVaqi62u+J1FgJCBsdX85ahDX2/xG1eRRCP68Yc+uJaWa0YIVBqhBzneL9x+rt4iE0AiFD0JjsY1JgSq4CiCweJrRV0Rx9ObIX6yfhKNreLrYYd5GZPGIz5Zi/j4Qx9bS8s1I6RApZqolxGMxVWmdnK+6v0gSIQiQhIWc4IexqHAeDD4Oq1WWI0C5zdD/ABEnZF2bx5TVppvhz2eDNfYzAwdHehEHkWzhN/ScpOQApHFqPUMYQyMA740J2scV6VDgnpYrITAE7ABLB63WGcSolnAuqIdXjM3R/wA6wUzrzBG8nTU5cu9u+RS8dFgyEeDIUqGxvWlFcCWG4QSiEwj1lIoC3xpsEEgBajLHGnfERsCs2CZB0slPFayUkNeuIHiZ5wAJ/h+3OPLfciUJtGG+/2jxmdQtiu/N5jLut7qdMkfj5AC8gixntY+f0cl1gu0rH39ruPcLZ55sAy9qUO1JI3wrU5L3yjxo0maEIDDUvPlcYaQjjReZ5AV3OvMyCNHpsyZFeCWVSbCMRBzHokhAtBk6Esm+weUdMKc/IY9/JxwyByS9YTxJOEoldhrEL5AvbhRBcschxH+VPiaHa2O9N048QNkHdpzVGlKm1M6wVpWcL9jkBxztzskiyrwC9+/VbpcLS8T4Vij4JEcEbwiNB5sLyOAHhXdUJDcMPFDBNJU0FMJ0SjBZIqZCOdd+K4AT6AIhmmoKHG4RezAiW/9avWlmyV+cOJ/NLWSiVd44MFRjztp7QIQqYJBMq1DZFm1y9XyMhGWdTHmY3bRsiINU9ZC58LP5szphDGxS9/zUV4XtUtLAIzQWK0QespINiu9V3RzewI+BAyeAsccixGNM/XJHN/q9aSbJ34LZP3kK7zgm1GO84K5N6TRnHvdgkichDq2rDCxqNjiEIVjU2R8EhJmXOzcGZMQ2xTlb8htL+rYd+sFo7LLcJ5TDiPiQuKCbKbh3tzp+TJM8BTBnSxueMkZ4VvdCN8bchdcgABUYO4lXw8zvh9mSGH4ZDDhr6sJaItSFiluXx6zm0RMxabYZ00c4ZD4UEf9XIRAIKxc4e76ErICaSit5Plki+3hJkfDLaL5XazfQsurGfoaPLNgmQRLkI34ydVvxZsrfg2e2v+v8IInk5x/3t0g0p6fDsZ8vjZiLXl94HzLciMIaCwau/jDLaDOtmK9wFhBVca8OIQ/7yq+3BfszB0zCtKgSIREvmOjKASRkKRIrAAjQpPaYLUF8MaL39lFkOdFyv+9vcH2POF//nibzWzeil/LinGaz7GyKbMyY3fc49/2NviHpxs8Pu5yOINZKBAiIiLmXb0aIiQdoYmEZCaqE+ELzXzjqkrgzRc/OFkEOShj9suIb0Y59/IZv90ccicriaQnUqsy/F3dLBqXc7bzNGmdCSudMeT68AQcQVhmRrE36/LdcIM/Hazzu501XkxjwCFEQYTAoXlX8dNCopHEdcJ7FvJXLyGGlc3tdzvEb0GTL90a+Pawyz88ucewSPhsMObz9THyWjqbb5yrr2rbiyf/DRIGUeciFMIDFiiAqs5bKK7QMg+KV1ISrwz1feQD2KCxJubx0YDf72zxx90tvjjqMPcS1GkKqiuNbaO28FIUIURUSEochainG1axGuMtEz/AB6wTPD7qIqxmXCYoEfh0bXI94iccCANXtrCysIhuhviJc6+AwEAogKIWPnmF4uejOrfjynVTTu4jj8TYlNIkPB4O+K9Pt/h/nm8xdoqZVwhF4+soGk+YqztXgSAJCo1kjiUIKJuiAas4BL5d4tfgEezPY5zTRMqzlc/Zygq28jmDrKSjLVfhBRgCTEzCzOQUVtSV5fzrs1f/GJ6MNtkfZUzmgqIE6zzBXZD2XwSctRhR4qW9or1fHdYFnPOUpeNwovl+2GFaGQ5nkix+V588cVISM9eQaUiUJ1aOWDnE0lvQTTW2AD5IRibh+ajL9njAv+yu88Vhl+/GGUKFk+xGC1yoxUmGOhmBumTpo05S4Js0VfUnJK9+p05sIJs0p/V3LBorPHaR3XmFuF3iJ0DIuq5p4QOHJTwepeTbG0yriN/c2+e39/bo9OfgFe/aPB7B3miN747X2Z/mFFZRWHVltbYP5l0eDzfYG0oKG6isvbAEoRACYx2uMktZwMgH8D4wcobHooOvHtCJ10hVRazfzfILiEY4BA/7E+73ZtzpTFnP5qylc9RSi1891A3CYb2mcik74y6/297kH5/f4S9HPXaKpBa+l57VAahw4MESyNDk4uIHug2OeTDMwulDX6PIpSYT4kJrTgVJJjQqCOZY5sJiWJV585pbJn71HEgIgrmHuRPYYcrMRHx3PMBiedg/5JNBBSJu5ojeXixCkOxN1vjT8094fLjJuIoYl/qS8pI/nsIpjkvNsJRAIAQHl9Quc1Cn/r+aXV8pTS0iRqXncZmxP3pAJD1KhDrV+jvgqS0mB/zy7h6/vLeLDxItPb2kWPLo7gDCgjBYH1GZhBfjPv/0/A7/6xcPmbqIIM/O852nDJ4qBEwAKQWZUBdef4tnFgwjX1AvjihiEVBBkIqLW0gj0UGSEQEFBl/H+q4Qt0v8FjSen0EKDJKRqQXx66M1fv/iEd53uJsX3M3nJO+wCuwDHEwE3+5KvtiT2BAw3nGRz72Usn6pWhwXQ7XXYbykcPLNLcnw+pJQHxofoLCSEMSZyIR3O+La8hN44HCWcTDpspGVrGfTpiZ0k+lnqR4LHoTHh4D1mtLFfH20zpdH6/xhd52/DHuUQeNfqqi2QDRuKIhQh6+HV1fOzyYpKLAY4QlKsBhmOxwFAuE5SWAaiYtjpmMUeYhQSCocRrilvs8W3E7xg5MhsEEwsVBZ+PpoQKZjymqdv7m7yyDeIVHlW+8iBDiawDe7gi+3AzpyaO0u9LhXSqOjBBUpXGg67BvcQe8evLQ8uCConMQ2J/6mbfBDLDZxNE85mPa4kxcUfU0QBqSvS5wukw3YLG64oKlczLRM+dPBBv/l+/v8696A3XmCFaoRvsujWU5zPLxa1W6RpGAWDCUWK8O5lFQ+eArvsCFgQ6ArNdEleTDjoJBCEAXJTIDFrYQL9C0Wv/rm8AEKJymc4NkkR9LB2A6JMmxkE6yHLLJk+seXwg4BJiXsHMP2EeSZJ8v8heKntSQKEAuFDQLn687/OqQIaMmSz1u9OSGADXUHdE0buCtYrVy4YUxNxKRMmZQJlZUEHPXAeFmEr14zXSxujKuYw1mHF5M+/7q3zu9ebPDlca/+6Js0S+PfejI0CE2SAgImOEocs1BhpH8pSUF9DFVwVL6+X6Mg0XikELwcICgR6CBxJ9b6woJcbm6v+J1BSEkgMHGB7TkEFEr2mVQP+fnmkJ9vDPl8ffTejqcuKSh+0PWm1u/lv8neBkFASoF4x9Wh2rtJXNki0/Vx6sdXuIjC5Hxz1OePewP+dX+NPx31OSyjd9h+3QCmKTZU4Cix9breOeE7g2y+08wJuuBJ0aRCcXb2sBKOAkshHFVdy23prT5oxe/EAhQCpg6KmWdUSsamx/ejlOMyohdX71f8BG/sgrH8t9jbIRfC/o4nWAtfWP7pAeEbPz5BaXNG8wFfH27wD99v8V+erFOGiFn48eK38L9bYHDMmpx8Xi1SWopX8/GJxkVQeIyvy1aWvp5DjJGoM8OXCsdUWAphG+lbDVrxWyAErhl2eavYmcUUVpPHPfJkkzLAvU7Jg7ygl1RI6VE4zkysXO3hXPkWV4+raAOx9FZIHSRWeknhcoZFxJPjDZ4M1/n9zhp/Oe6yO0/rqmhvmZrZi1ALFIYCSykcVjRDXbHY5kULJ7UABhFwwhMEVMA01PG+i4XDQlgMri5duUK04neWZhHEE5j7gCvgz0cdjp3kz8Me/+HBAf/T/UM+1Y5YWKSqEEG1RZFa3pLTJAXzIudg1uXpaMDvX6zzu50Nvh3mPJ/HtfC9ZnHjdQjqSmsFDidKLB6rmiqGF1l8F3w/NMlBgvCUIeC9q12fhUAIQYWvxXTFaMXvLGcWQWZOMXOCY5Pz1bhLvu8RSB52KtbTkq4waFVPABOWflB1a1nmKxOoU0P54BmWMdvjAX852OJ3Lzb4P77f4LCMagfmS/z43hRPoBCWAs7onHjp9+WIxvoLIVC6WgDrb8raelxRWvG7ENEUQmomA4XAeslXRx3+98f32R5n/GJzwi82R2RRSaJKImHOBM7/eJqwY6xf3s66itSZ75atTevFjcIpjuY9DucpXx2u88XBBv92OODbUUYV5GnkxhVw4vv30t9+1PdFOFkYEYu+scK04ncRzTUVSp78wXn4y1Gf/UnG02GP0o3YzDpsZofI9IBILYoivV3gfGjcO64yEL3lNHpkqWj8+Aqn2Zn0+PZoi9/vrvH7nQFfHncYW0URxMlq65Xt9h2V9MR3UL251bjMtOJ3GS891TyCoyLmcJbgQsxWrthMIx72Ane7hs3Mk2rIVEA1vU1I6ESOOz3Lvb4jSSCOxYUPTKECQjukNu/j7G4fAgZJxSAt6KcVia6nMU7evDYWRYbqFPsuCOY2ZWpTtsc9vtjf4Iv9Lf603+Uvxx2+HycXJilYGlbc2jtLK34/BlmvHg6N5A97GZNK8VeDwF+tSz4bpDzsj3jQG5PpOnOKDJI7/Ypf3quIZUnQmqAuiReWASEtQs7f7zndIj5dG/Hp+jEPB8f00wqJBu+53sUqB9LhvMb4iMIkPBn2+W7U49vjHl8d9fjqsMP2PGZk5YVJClquh1b8fgwigIKhkfzxIOPP+xm/3lAcTGPKKkVJx1Z3SNbkoBNBcrdb8qt7Bb24okBQoC+ZhPeAaV4tV40Q8OnamJ9sHPFwMGSQVMigubo8ixexWM2tcAgqHzOpEh4fb/LPLx7y5/0+344U3wwVBvDy3Rc3Wt6cVvzeggDYAMYLdouYL4872BAYGsteoXnUG3O3M2czq+jlJZ/f32ejP6MKERXR0k1B3RYe9Cfc604YpDMSba4pczecJgeAmUmY25wXk5zvRz2eDHt8c7TG14cJz6aKg1JSBkFY1mHuDaYVv7eh8XsSAo4rxVfDjMNC83wa8ZejPr/eOuZv7x3SvXtIP69Ioh2sF3gkrvUH/GB0dCCPPIn2RPLiBBNXgwdpsF4yKnMOJgP+db/HP+8M+MNuj1GZMiw1E1v7k4YrXNVteXNa8XtbmqDxiVOMK83eLGZnVqcWn5qURAnWEkcvndLPZ6RRSSQdsfScT0Pf3PXtKu/1EyLwMdcxx7e4oiEITJBUTjMuNU+HfZ4ON/jj3hr/+LzP73a6p18S4Ur8+Frejlb83hUBQtaVrIogOLaSr4Y5XmzxbJzyUX/Cx/0pD7tT7nYm3O3MUNJyUoQoqHdOmtryBgSuqZ1dk5BAYn2EcRHbk5Tn45Rnk4wnwwFPRgMeDzN2ixTUqfAKsfq+cqtMK37viggg6741D4LKSopxxrNpwu9frPGbzQm/2Zzy661jJJqtzNZuUiIAru6QPqINj3sfXIPQiHqI652m8hGljXg6WuMPOxv8eb/P41HO43HG0CgKLxDqpWNoxe+D0YrfVSBq8XM0CTmNZuThMMQkSkDQzJ3iqJLsFpqtfMZ6OqefVMQqkMqAPBcUvmyZhVtq6oWMRTILH2BmY+Y25qhI2J922Z91+OJgjT/vD/jmqMf2PGZnHlMGgZDhyh2XW96eVvyuAxEQss60t19G+GPB7lzxb8OYtd0Bv1wf8+vNMT8djNnIJuh8Rny2qlrQTbKEVgCXh9MkBAQJQeOC5nDaYXvS4fGww5eHPb486rE3izmYJxwViokTdZLPE2u/ZVloxe86aG70AByUmv1ZBGSgBqA8/+HeEGOOyESEEJ48naKUOePbKupsMa34LRUBV6e+D5qAonKK/WmPrw+3+JfdNf7bdp9/2unhg6eeCwygrjZGt+XqaMXvumncYup/17935zH/stdjUikedBLu93rcyedsZRUbeUknMnQiSyzPODwHSTscfl80w1vhT9q9copR1eO41OzPUnamGS8mKS8mfV5Mezwd5eyVul5TCUATBytku6ixrLTid92I0Exyn7q27E0TilLz+ChnK+tyJ9/i08GMX2yM+dn6lDvdYyI1JNZniicF3SyMLEu9iZtMUzJS2rq4UYionGZv0uf7cZ9/2+/wh/0OXxxmFC5hbhKmVjN1svb/BE5i1FrdW1pa8btuBLycVmRsNKMiYgcYzFLWJo7D+ZzCZBRmzMNSMbKCjTwiVY5EOSIhiIVEn3Sml/wEW96C8/6WHlH76XlFFSTGawoTMzcJx7MOj4drfHe0wR8Pcv5lP+ffDlPqh1GdZVmcC09rr8uy04rfh0CEJl/gqW/gk1nC3MHTScTdXpc73Tvc6855mE94lE/YSEvW0pJ+bFj4lgFtFum35oyvJbVzsvUJxmrGZczePOFglvBskvBsnLIzyzicdzie52zPYw6r6CWfvdBehhWjFb8PgQDUqWN0aRVjo3g6jtGhz3pHspZLPumX/PX6HsX6Pm4wJJXHtfgJB7JaVJ9pfre8OeG0DRfi5yU2xJROcTjv8N3RgG+P1vjDfsYf9lOejFO81/igsUJgBQh1dnsf7GRa3pJW/D4wHiCAC2C8BC8IpaIQEh9icF2mhefxMOZOJ2Mzn9GLS3pJSTd2dKNAV0OkDJE2KHFBfeEAtVlym0RysWhxWrN20QY2CAqbUtiMqVFMjGZaRRwVOcdFxt4k5/mky4txzjejhO1ZwnG1cERXTfoxWp+9FacVv2WisQir4AhVYNsHZmXK06Ek1zm5XqeXGD7qFXzcnfOoV/CoW/CwV9BNJghVopp0Wue3KxrfwVuUKK7Jlnwypyc48Z+0LmY4zziYZ7yYZryYJLyYZGxPU55PE47mMVOjmBrF0ERMnUboxUr7+ZX7ltWlFb9l4YwTrAkBYz0zAwcuBpecfCxTnp+tz/nZYM5P16fMqjHej+nnnoGvyGOLkgElQIo6q7QgNDZPnSZfiGUu6/P2LOQohKZ2R/PbBYEPAu80zsVMyozt8YDtSY/vhl0eD3MeD3OeTBK+HyeMjaCJ1wEpT8tGnttLy6rTit+SI+Si7HTd+awMHJQSOYoYm5zvJ4o/HnTI4j5Zskk3qdhKLBuJpR9ZOomhF1lS7UlVINaWSFq0vCxpqlziRAtNEOElCUhd0FinqVzE3GRMrWRSaYZlxLCKGBUxx2XCqEgYlinDMuNwHnEwizgsNYelrFPJKliEsAnRuqvcVFrxW2YaN5l6Yr22OBxwWComZczTsSZWHWIFSjuUtgwSw+e9is87Bfe7Bfc7BXfykkE6Zy0tQHiE9GhZcaEVczI8XkZ/wlD73omLhdu5OlvyrIo5mGcczDJ2phnPxxnPJhlPJzHPJglHZYxxEusVxgcqB9aDQWLEor3PFKNvnZRvJK34LTsv9bsQoPCCact0MwAAIABJREFUuT9bLL1xrlXQiyxFWTKdpezMSp7nFVtZST8t6CdzuklBN56TJzNiGYhkQEuPlgEtA5FQaBGhpapTrwqLFB4pwpnMx57rGP4tivz4oJrfzf99PWx1eBwRDod1dTnR0gtKJymcpDAJpcmYVylH85yjecbOLGVnkvBikrI9j9mexQyrs8LuT15CiZfqZ7Sid5NpxW/VENQOtSf/gVNXi0DlBTtzTVkFnk01nSgjjxyJtiTa0Y0q+mnJWlzRiy292NGLLVnk6WhHL4ZuLOnGEMk5WhZoVRFLR6yaeTBxxs/wCvFNkZ/KaZzTGKcxXlFaReFUnS7MwdwJpkYzNZLjUrNbROxVmtJEWBNhbERhNHMbMa0UEyOZVIqxk5ShrpR3QaNCm1/vVtGK3yoixJnaqXDWCiudYK9S7LmF/58CoRDNZzqRZyO1bKSWu6nhbl6xmVdsJJa11HAn99zpeGzHkSpFogJp8MgoEOEQTf46hOWqCSFQhYjCRpQmpmzSRU0rzdRoJlXEuIwYVzGH84jDIuLZLOHrccLXk4TKSIIT0BR+r5d1PIRGtJWsR/MXil8rereNVvxuIkIQ5NkkCOFEHitg7CSh0pgQGBnYmSnyyNGJPL0k0EsC3dgTyRQt+0SqIlKOWDYpnWTjaC3qfcUykMhAJGhWki8fEgcEIYANoh6y+qZQe6gtv8rGVDbBOo31msrVll/p6ldhBHMrGzFUHJuIw1JhfB2edt7n+2yomWySDFx9c7esJq343TSEaEZwF1uGVsDMC4yRjI0mQhIJj5YCLQWRgliBFgEhzs/5KRE4DQvztfuHFOQa+trTUx4hFolZLxJAQaCey5s6wdhKxk42/iiC4CUuKLyv5/xCkDjEybyfC+B8wIaAdQLjJWWoXz5wUlr0vAve4j/yRKxbWqAVv5vJK+4Zp2rggTIISifqLPq+EZ9F9MIPmkaLeb9QD72lpKsDa9rT174Rystr4fogCUEwcZJjKxlaCU6CE29QxKnJk3c267Wg9sNTZ875FQfkVvBaXqUVv9tMs3BSa84ieuFNVnFlLTCNyJogGDuJCQIhZGPfvbqdhWt1CIIyCCrfDM0bi43wQ/te+DueTShAa821vBWt+N1mhDizcgxv7r5yPled8XUUxdy9uftLHYHR7FvyBsL30r5f/lNLy4+kFb/bzhUIR6BOzODeZWOtgLW8Z25Tmo+WlpaWE1rxa2lpuZW04tfS0nIracWvpaXlVtKKX0tLy62kFb+WlpZbSSt+LS0tt5JW/FpaWm4lrfi1tLTcSlrxa2lpuZW04tfS0nIracWvpaXlVtKKX0tLy62kFb+WlpZbSSt+LS0tt5JW/FpaWm4lrfi1tLTcSlrxa2lpuZW04tfS0nIracWvpaXlVtKKX0tLy62kFb+WlpZbSSt+LS0tt5JW/FpaWm4lrfi1tLTcSlrxa2lpuZW04tfS0nIracWvpaXlVqI/9AFcSgBCqF9XhRAgmt8tLS23muUVPwLBB/D+6jYpBULKWgBbWlremMDrjBCxkl1q+cQv1D+0EMSxIpJXNzIPjdXnBRjnMc7jr9KybPlxLNr+oksgmh+r2KtuAouRlw9084ReN6Wbpxd+dDgtGM8K5qV5v8f4jiyh+NUWX55F3O1l3B10rmzT1nsq56ms42hecjQrKYy7su23/AiajhVCODPFcfq2kAKUbKcoPhQhQOUIxvLxwzv8/V9/xi8+f3DhR//5yyf8/svv+W7n8D0f5LuxXOJ38rTxpFryYL3HLx9tXNnmi8oyqyzTokIcCaalbcXvQxGopzWcPxHCs+IXtKwFsDX9Pgw+EIyFwvDJWp///Dc/43/5T7+58KNJpHm6e9yK37sRCC6A9XTjmE/vbfJ3v/rsyrY+mszYH07YOxpxPK9QUHc+IUC2ney90Fh4qVZ0Owm9OCKNI5IoQqvTKY6j6Zy9yZzRrKyvjWiHwO8TKQU6joikZNBN2RjkbA26J++f2ClAHsUoH6C0tbWuVmNefcnEj3qBwzg6UcxPHt7l3//2Z1e26Z39Y55s7wLw/GiKDhCsRyjZit/7IFBbFD7QyRM+2ujx0WafjX6X9UGXPElOPvqnJy/4w1fPGI5m9fXRkpXoUTcEpSRZpMmloNNNiSJ17v0QwC1ezhMKSygMItGgVsNiXy7xCyADiAD9LOGjexv85mefXNnme3lKVRkOjsYkWiMDteW3TMJ3dvJ/iQ7raggnQ91OrPloo8+vP7nLg7sbPLyzQbebnng3+RB4sn0I1hGEQASurj2WsY0Xx/S+jucH2kBJQZZFbGQxnW5KHJ+XCh8CxtUvW1l8YaCyBCUR8cXbXDaWQ/yaOR8J5GlEniesr3XIkuhKd1May3AyY/d4zGReYoNfnuFUMxwM/vSuFAufxA8lzv6Mn+Vi6PkuLB42laOjNA821/jFTx6xtTHgznqfJImojKUyhjSO0IjatFBXtCJ/sshy+ichae6BD9DGZ3xZF8d07df8ojYQnF7f5n2tFYMs4f56l81eRqrPS4UxlvFsznBaMh5PMc4uT196Q5ZE/OpOL0Qtflt5wsYgI02vWPwqy/F0zt7hmPG8wPrQ3GRLcMUCBO/rzr74kxAIBR/s+EIzB7u4p9W7il89n4uxZDriwdY6P//sEYN+h/V+Bykk03nBZFaQxRotRD0NciLC77h/v/AdPdPGQSDUh+q0Z3xZF14/gnqYH67pmBYP2LNtIMWp6DZtpISgn8XcX++x0ctI4pfFzzAaT9k7OGY0mWKdW56+9IYsifjVN7cUkm4ac2ejx+Zal/wl8Qsh4JzHeU9pLMYYKuMQQrzRQ+fF4THP90c8Px4znJXYEEAIAgHhXnKmPmcJLNwxzvz77OcW1/x1FsTLESshIBAoLdFKorRAIZDUQ4rgPS4ETADrFy6mzb7f1Ap7+Xhf9mkUJz9Or4FsjkdJtFbI5n1HwFHP71jn8YsHx+sa/iU3FhkCeRKRJjEPNvrc3xpw/846nSwhz1Kc80yLispYjHF448B4UM1DQYQ3j9A528FlbUklkSYRAnnm+zYESu8xixXnxXdOrucb7u+yiCRxtn3rD2ql6usuBCoCiSCE2u3HeY/xAeN8/fEfexxn93XWfahpg1hJ4qh5sDS4ECidp/KeYOs5dxXHdKKYzUGXfp4RR+f7onWO2azg8HjMbF5gfSN+KxQwuxzi16CkoJun3NvocXetSydLzr3vfaCoDGVVcTSacng8ZjieIaVEqR/2M//yyQu+2dnnyeGYcVHVN3ytNrXVteCskJ29kRad4+wN3txUSFk/sRWX3KT1Ez64piP7gBSCVMVksSaLNXmkSWONNY7KOubGMioN48Lg3al1INSb+sCFU2tn0TFfEW5Rf645rmhxLFlEpjV5HBEIzCrL3Fhm84p54SitQ0QKIsWF6hfO7Nt5cJ5IKbbWcx6s9fj84y3ubQ7odTKiSKOkpKgM49mc3aMRx6MZ5byCyoGSBCUA1bTxD5x3CPVcoXEgRH2cUtFNIzbzhPyMFTOcVxzMK6p5CdbBwvWpWbUUiw79Q20d6vMM7pL7qGkH6QNJLsm0Jkvra55FGus8xlrmlWU8rRgVRf1wfpvjeKndQZxcqyyL2MoSemcMi2lh2J8WlJMCKgulRcWOTEcM+l3yTv7KgodznqIsGU9mzCuDhZVblV8q8ZNS0ssT7m702Vrrkifxufd98FSmYjwt2D045rtne+zsH6EbK0X8wI3x1dM9vt455MnR5Mwci6iFz7rzk86yWQE+K3qLm+nMkAEt68/qUI9UpLr44gfqIaTx9dDPe4QQxFlML1KsdVIGnZRBllIYw7ysOJ6VWO+ZzKrT/QYIqGau6gcaNJzpBK8T7kDd6a1DS0kuJetJzKCTstZN8T5wPC0YTgsoLcZ6ytISEAj9mvNd7LvZdhQL7vRyfvbJFp9/vMWDrVr8FtfNWcdkWrB3NGE0mmFmZS1+Wp6KvRD1A+a1512v4lPZk/kzESl6acz99S4bZyIVtodT5t4xnDVD8so211U1m5L18b1JWy/OdcFi7k6KetvWgQ9EaUw3kqxlSd3GnZTKWOaVYTQt8KVlWrl6TvpHH8dL7d48AJBAJOnEmrtrHe718pOv7I9nFMZy2MzHMjOoxJEqzaDXodNJiaLzUuGcZ15UjCYzirLC0Qj1Mi0e/gDLI36NEZYlMWu9Dv1uhyR+2dT2jGcV+0djvnt+wJ+/3ebbJ7soLVFaNU6xl/P8eMLhcFaHtLmAsJ61bs6nn2zwyb11Yq1QSmKdYziZcTSe4ZxDAEoIumlKN03rlWIlUFLgAQfMKsPjFwc82TlkVtnaOlGyvumdJ9OazY0em72cQSejn2f0spROJyHvxHSSmE5a+7xZa6msZ1YaRvOS41nFbF4wn1eMpnNeHE/YGU6YGXvxcKgRuSzS5Lmmn8Tc2xhwd6N3zp1k52jE7uGQsjJs9Xts9Tr0uxn9Xkq3k5InEZ2ktvymhWVWVgzHM4bDGfujKU+Pxjw5HlFad37fPtBNYx5s9Li/3qcT11bkIE95dHeNR/cG/OThHTbWeuceWFGs2Vjr8qlzmN9a+lnGb3/1aW1dxprdyZSvt/f5bvfovNXanG8SaZJY0000W50Od3odOllClCfEecJWJ2Orm9I9Y/Uczyr2JjOOpgVmVlLN63PcOR7zYjjBeE/l6+Hoy9MaAuphpJKsd3M+2lrj4621kxFIaQwHwwmHwzFaKQZpSi/PWOtnDAY5vSwlTzV5EmOdozKOeWE4HM44HM7YG07YPR6xMxpTWk/hXD1PfdE1bx7SSgjiSBGnMfcHXe6t9Rh0s7oNsoSNbspWJ2OQnxoW43nF3mjG/mjG+HDC+HBCL435+Wf3ebC1xlonJ3lJ/CrraiPkcMx4XmKc+3ALR2/JcohfM6wUAdIoYtDLGXQz0pfEzznPZFawdzzmu+1D/vz1Nn/6yzNEJBHRD1t+U2sZVxbRWAahtGxsxfz9zz/hP//7X5NlmjhSlJXh22c7PH66Q1kalJREkeLB5gb3tjYYdDvEkSSOFcbW4XI7h2P+z3/6M3t7Q6ZVgYh1rebWEUpL1tV8utnnl5/d55MHd/j4/hZ3twbEkSZSimgx96cU3nuCD1jnKa2jco6j4ZT9oyHPd4/5f796ynA+ryNVXnYoXawe+kAWKe71Mj66s8bf/OxT/t0vPmVz7dRR9Y9/ecK/fPEdo8mcX/3kI3712UesDXI6WUSW1E7HWikC4WSubzidMR7PebJ7yP/1/3/Lzp9mFNaeTjk080b9JOIXH93hf/j5J9zb6LM16LPez+mkMXkW0+9kdDvZueuTRBFbaz26WcrWoMevP3/EZFbU1oSS/PHrZ/xv//gnHm8f1AkqFKe+g9aRRJr1RHNvvcdff/aIX3/2kHuba+SdlE4nJdWaNFJodWo6VtZRNFbXdFoyn8359tkev//yCeVXTxiXtRuHdaG2ts8MuYUQJFrRiRSf3V3nP/7Nz/hPf/NTZPMQHk8Lvvjme754/JxulvDRvU0e3d2k38vp9zLyOD6ZX/XNNausYzKrmMwqvnqyzf/35WP4xnI0K7FTj3GuCf07c9EXbeADWkvyWNPPYn79+QP+7ucf8+n9O2RNG2SRJo00kT5tA2sd88oyN4Znzw94vn2I955PH23x4O4ag96r4mesZTgt2D0cMZwVVG4xBwyrMu5dDvFrnt4iQBJr+p2cXicjvkD8ZrOCg+MxL/aPebJ9yDfP9mvLQL/O5G7+rmU9TFMC0czzdeOEnz26w3/625/SzROSWFOUJfcGOet5zLysiJQk0REfPbjDRw/usd7vksSq+axhVlQ8frrPl988J0HUwxslEZEkjyOyOOGjjT6/+Oguf/fzj/mrT+/z+ccPeHB3AylEvWDzAy10cDzixf4x323vMzeO/dEMKWorc1ZW5566i2FPphWb/Zyf3F3jt3/1kP/4N3/FgzvrJ9vsxBrhLIfDGX/3q5/wt7/6nLVeThIr4ujiseVkVjCdF9x/vs/BvOS7g2Oe7R8znxvmRVUPN60n15pP72zw97/4hI/ubdYWxJkIgYuItGLQzRl04d7m4PTuaFxBAvD7L56A9QQNQkikEERKEknJnX7Oo60BP3mwwd/+/CP+/lef8fDuJt08oZtnl+8Y8N4zns6Zzku21ru44JkWBc8Pxjw/GlNMi/o+Wiw612tlpFr+9/betDeSK0vTfGzffN+4xapdnWtnF6obAwymPw0wf2b+3zQGg8FMV2GqMysrs5SSQhEKxUIGSXf67rav8+GaO91JxqJUZkqRtBdQCIggzdyvXTv3LO95Dy1L506vwa8+POJ/+c2nKGWnynzp0rRUTEWiUbf54O4e9w4H1G0Tx7bQteuvX54XRHFGHKd0WjZ5kRJGEc+HM7xwLsQDpK2qQukIqrKMIkPLMRi0ahx0Gvzy4zv84y8+4KO7+9Qsk5pj7RR7rqIoCp7vjXm+N8IPY3rNGr12ncYNYW+cZMy9gNPZkoUXkuSCL/s2B+SnhJ+G8cvZhEu6olCzDCzTQFN3S0d5nhNEEYuli+sHIieiKWWuQX5NpUnaJGKldf4FxP9VBVlXUHRRaNBUBVmW0FSVQa9FgahqKbKMpsg0G3UaNRNDV1AVGUmCOBZ5j9lqRRCEIjxCbCSlgIdHfT4/6vPx0YAP7vb44G6ffqdJ3TaF4ePdzknT0Om2GiBJJJlEp1Xnq+/O+NPTE/709EQYdVXe4WoZqkLTsYU3ZRs77WMAe70Wv/r8IX4QczToUrcNdE1BeUP6QFMVLFNnr9vkNx/fRZYkvnz6ikffnfFkNiyfY46KjG2YdBoNao6NesOL/i4oioI0K0jTnDjOyOIyj5UXFGqBYWj0Gxb9us1HdwZ8cv+Aj+4OuHvQZdBtYZs6mvr2e0uStEmz3N3vkRUF/U6Df/n6BdFXz1mE6wOGLV6qTE3XGDRr9JsOtqnuPExD1zja6yFJEqau023XReVU11Beo1YkSaCqMqBy0Gvx688fUK9b/PMfnjJd+CyWwWWetnQaFFmiaRm0LIMHh10+e3DAp/f2eXDY46jfxTENdE19p33WrJnc2euSpBmOZVCzdAxd2/GWAaI0Y+KGvJismAUhUV52SlUFj++JYqsSpqrYloltGdc2bV6USdalhxdEJEV2WXB4Hf1DQnhh6/BQKjeOIkEhI+kKmqFgGCq6Jh6erqv0O02adaEoI5X0CFVRBP1Dujzh4jRl5XnMlyv8MCTP1436OXIBDw67/Nf//Dm/+vAOnVaNTrMmqAbldd4VpiFe4rpj0Wk2+PTBEfvNJt7S409fPqMwuAyHyjDIUFRaNZN+u0b9JuPXbdGqOxR5jqZr6JqKLEtvrJrrmoqqKMiyzK8+usNhp0FL11hNXJ5EJ+XzFDlSxzRotxrULeudDNBNKApKw5cSRxlZnJbFqfKwtAz2Gg6f3unxy0/v8ZuffcBnD4/QVBVd11Bl+a25YBDPWNc0NFXF0HUG7Qa/+vgeMRJPzqd8N5pdvtTFmpda4Bg6/aZDv+HgmPrOygnj16HfaYheWUVFVeWd/XPT51AVUGSF/V6TdsPiwdGA2Tzgi0fHm6gC7TK9oUiS8D67dX7+YJ//6def8I+/+BBD1TB0Da3Mh7/NK5MkiUbNxjYN8kKwL2RZRpala3s1SjMmXsjzyYosFykR3jOtzJ+G8SuNkiRL6LqGYxvY1vUTO88L4jjFC0PyIscxDQad+htL7FleEGUZQZqJIm1RIAGWrmHaCr2GjWPoKFubY+0FrMPutYeWphlpmgqOW4n5ymc8WzKazHG9gCxOaRomg4MWh4ddfv3JXT65v8/dgy6WaeBYhqgwI7xKzw/xw5gwiomTjDhN0TUVQ1MxDR3HEr+jyLLwQFUFVVGpWRajww4PD7p8dNRjmWas0pRwbRgQLP2aZdKsOVi6jiztGj9DFwWCNMvwy2JKGMVEcUKSZBiGKMBYpoZlGNimjiRJKIqEpet06g6WrvG0O8JxTPFSItY4LXJWQch4uiCMQnRNwdQ16raB41g7nsR6NeM4wQtCVl4opK7KZx5GCVGUcnYxwQ0iKHNtuqGx13T48E6fX316l88eHnF3r0enWd9cO4oTPDfE8yO8MCIIY6KtiqxjGzQdS3i9uo6pa5iG+A/g3qDDx0d9pguXueszXwXiRc9yJFnG1DXadZtm3cbUNLY3oSzLmIaOaejESUoUJ7h+jB8m+GFEnosija6pOLaObVqYhrbhrZqGhqGrqKpKv1Nn0K5zNl0QUhBuURINQ+Nw0OGXHx3yy4/u8vBowKB9mTbI80Ls3SwjDCO8ICYII7KykKNpKo5pYFsauibWQFVvTnusxXdExT8h8EJh9JT3q9gBPxnjJzwWqdzQNcvCNs0bPD9I0owgSlAkiW7DErmpm6pfJaIk5cINiJcBWcnBkmWJuqnRr1vstxwaln7tVJTK8HFz2BdFSUeISNNLLtdssWI4njMcz1ktPLIood9t8A8f3+MffvMRH98ZcNTv4Fim2FCl4SsKkdwez1ecjSZM5y4LL2DphTRrFk3Hoteuc7jXxTR0LqMkCVWRkCSFTsPmgzs9/uNnd3k2nvN8vCBYJhs6i6oqWJZBvWahGzrya/hxSZIxWbicT+ZM5itmC5FW6DTqtFs1+q0G+/0W1pZnI8kShiHCN9u2UCwNTG2TvojyjIv5gqcvT7EMDVmWcGyDuwc97l4No4qCHAiimFfDKSfnY2FgEF0vYZQQxgnPXp0zc10kRca0dFp1gzuDFp89OOQ//fwjDnptmlsUDoAgiDgbTTkdTTmdLDgbiwT9GncGbT447HP/oEunWUNVapucHcCgWeMXD/aJo4jHL0d4y4C0pEVJRYGpa9TqDjXHRtP113o+UZwwW7pM5yvOxguGkzlpltF0LJo1m4NBh6M9aWN0xZMGJMEqaDomh4MG40WDkV9y8kqKhGZq3L/T57/84hM+ubfHXrexc+88zwmjmDBOOL+YcXYxYzxdECUpUZJSdyz2e232uk06zRpyo3aj8SsQGSohvFSQx5kQM9BUkJQf3gH0N8ZPxvjJioyiKRiGjmOb2KZx44/mRUGWF1iGimXU2Gvf+GObhgwvjEmznNkyKAmfICPTMDQO23UO2nVqln7t94U9lcjznCzLSNOclR8KXlN8qVg7HM85G804H81wlz5FkjGo1/jNx3f43/7zz6jXTOq2vUPbSUpC68oPOLuY8uT5Ga+GU0azJeO5x6BTY9BqcO+wh66qdFsNZEkSIakkoSiC1C1Coi6ud4dUhtHK2+EDaqqCbQrjJwzo1RxqIVIJUcxosuDpyyEnwwlnF1Mmc5fDQYfDfpuHRwNMQ2PQaWwOGVmSMDQhRWXZBrqlI5sqRSb4bmGeMZovefLyFF1VkCRo1G1MQ2O/12a7/JCXn8ULY16Npnz55JgkTTefMYxjwijh+GLOwvVAkajZBv1mjXt7LT6+f8AvPnmwIcWLrIPoBJq7PsdnE7757oQnJyOevLpgNHM39/78wQGBHwpuOhKOZe48q17T4bN7e6RRjLsMePZiSFAefnIBhq7TqNnU6w7GDb3oeSnY6gURo/GCk+GYb49HPD0+J01T+u0Gg1adPC9o1mzaDVEU2kQhgCzJ1G2TvV6DvVmdYJgxWfoiHFUVao7F/cM+v/nZQ+4NLvUvi3Ix4jTF9SPmK5eXpxc8eXHGy9MRfpTghQm9dp0P7wyIolgICZs6lqnvfI71BbO8EB0oSZl/3fA95bfzL39i+PGM31Y7kKnK4uVq2tQtbefk3YZpaHxwZ48sz3cM0E2I05QkSRlOVnhRzvH5giDJNnM8LEOn07DpNGwsQ3+txz6er3h5Nub4fMp04TKbuwRhSYSVYLxYMpwsmcyXxBLs77c5utOl221Qr5kYmr5Jbq89vufnEx69POfpqxHD4YzRxZT5ymflh6yCiMkq4GS0ZDRziVLR5jTotmg1HBq1S89GVRUc26DTquFYJpqklGRskXPUFZW6bdFuNHAsE0Xe3Z3z1YrJzOVkNOXLb1/x9dNTLuYr5l6AF0XMliEnJ1OW84C6ZfLhvT2R+7lSnVYVCUdTaZg6SZIRJRl+nHJyMYe8oGnrNGyDopAIot20QVGIJvkoSZjMlnx3POLfHh0Tp0IbrpCEt58koio9dyPkHPbadX758R1++eldDvutnT0TJymnF8Lbe/ZiyJOnp3z79JThymPkeqzCeBNrP3s2IncTZqcL/st/+pRus059i4JjmTqdui3aLXUVaU0gBqS8wNZVus0anXq5j7bWJUlTFiufuRvw3Ysh33x7wuNnp4xcn/HKJctyzkcr6rqOlMt0mjVaDQddE/nKG3PCZT6ZJKPXqbM/aPHJg33u9tsYVyr0SSkSMRwv+OrxCV89PuFsOme4dJm6HnGaEicZFwufi4nH82cjfv3zD0SLoyrCcV1TNwYwL3ICP2TpR8znK8IwvP753iP8iJ7fug0nR9dV2o5Ov2XjWDrqayphtmnw8M6AfrdBtiUAcBO8IMQPQp69GnM8nKEWlKrBEpIKtiH6FjtNB9vQXpvkn8xd/vD4Bb/94lsuJi6jixVBGG2oJVEm8mwF0HEMBgdNjo7a9LoN6rYtcnWKvDF8eVHwfDjh//r9N/zzF0+JvJAwCInjlCQvSPMcDVALibPRggLQVYkkTdE0dcf4aapMzTLpNstqrixvqq1kOZqsULNtOs0mtnn9UJktfL47GfLouxP+8PUxf/zmhLkfkUiQSQVaMkNLcmIv5sN7e2R5gaJcL6prsoyjqbQMlRUSaVEQJCkvLxZcTF0OOjUOu3VMUycIY/Jiu4+6IElSgjBmMl/x7HjMH796iZ/loAsdvzzPKQqIwoTIj5Dygv1Ok198fI//+Ol9DvqdnWJOnKQcn4/51y+f8uibVzx7cs6z74aEckHIEtVxAAAgAElEQVQkQyJdJszCWcDFiykn7RHdZoOff3YfepefztRV2o0a3UYNx9CRcy4jiBwcQ6fbEIUs60ovepJmjBcux+djvvjmBb/9w1O++PIFkSoRKqJooiU5apzRcGwe3tvn7mGfAkTK56YwskAcbklOz7b42d09fvXRXe4NWpjq5f1FmibBCyJOh1N+9+9P+T//3y9YRBGhDLF86fkrGZjZCBsZWVLY77fodRrlHlM3jkGeF3hByGS6YDZfEEbxje/M+4IfNewtKD0/TaVVsxi0azRs81pVcg1NVWg3hfDl27BYesxcj9kqwDZ0cYoWhTB+gKlrglPmlCHp1j7L8pwwjAnjmOPzCd88P+MPj4+ZznymMw8/Si4JnWULU8022O/WuXPY4Wi/Q7ux26GSpBl+GBFEMS9Pxzx6fsYX356Uvb5l3+66cFO2g2VZzt75lH7LoVlz2OvtxviyJKNpKqYpKuMybDXzi3+zTYOaZaDr6ibsXR8b07nLty/O+eLxCY9fDnlxPsPP0kv6UBCDl7Dfb+H60aYIccOD3BUFQCLJMuIwYZFk2IbKoF1DUVUkWd45aAogThKWrs907jGaLjmbLPHzHHRl094FCKOe5miy4M3d2e9y76CPYxnXQvqiKBDdYTKObYoiiKWCWX63NVUkziDKcCwTXVOuRQCqomAZmqDMKIr45GVaQSr3bqNm0ahZGFteEggjfD5d8NXzc758fsbj4xHfnU/BLvOjRQFeDF7MdO7hhRFpJgjuu9PSxKEYlzm6NBU9xE3L5OF+n8/uHzBoNXb6bwtgvhJplW9enPPoxZBHL87xi1zc29h69eMUggQlTDkezQRxeeWhKFKZfir5o0VOEEYsViuWrk8UJ69nWbwH+Enk/ExDpdeqcdBr0nSskuf0w5BkKX4Q4QUhUZqRb1WEJUlUOh3bwLZNNF3bDVeSlOFkwdnFhMfPX/HybMZo7hMkKalWttGVv1CU4buiKnSaNR4cDrgz6FB3diddhVHM+XjO6WjC8asLVguXIs0A0b1w2bcpbYxMKsEqikUo6vpE677Tm7AOd7ea4WVDQTNUDENFUeQNPawoxKt1MXd5/HzIl0/PuFgFpJqMpGqgSBSCcAZWAbqKVFI0bnoySZbhhTELNyJGqIRswzJ0uq06B90WjZq5Y6iKosAPE6YLj8nSI0gzijUtSZFFLmn9s7m0SVvotkHNMXGs6xw2XVO5t99HlmU+PNpnufBZzn1Bi9K2erZhnb3H0jQ+/1R0uLwVm5SN8Ixsy8A0ddQrBbowSXk5nPPbJ8d8ezZmkiZIdUMcLpoiDr7yM0mqiqYIhoMsKzccEBmrIGblR2If5DmObbLXa3HnoE+7Ye8UkfK84HQ043ePnvPHb15wsliS2TrSmhu7va6FItZBlgjznJnrM1m6mIZOq15sUnl5ISryrieiqjgraTfvYaUXfiLGz9I0ug2Hw26TRu31nt/3QZLmoqzvh8RZSiGzoWJIkiAyO7aFYxsl0/7y4UVJymg649GzV3zz/IyXwwkXc59ClSk0GYzLTSalOUWSoSoKnabDg6Meh4P2Tt4IIIpjhhdTvv72mJPTEe7SE32/qlKKA1waVAkoJIlMhlUYMZq5LNyAOHmD8SsKKPKN8ZMMFcXU0A1BZ1lr8q0LQXlRMJm7fPNMGL/CUMkMdaPJJlFQ6KKSLpkqkqa8lp+WpjlemLBwQ1AViiu5J9M06LYbDHot6o69G34X4Ecx06XHdOnhJwmFKjwzaS1osF5ruaBABlVBt3Qc29qMU9z+XLqmcvegy+GgU4bMxWWe8erHX/+1JAzZ6yge136pXEhNVXFME9s0N21ta4RxxsuLGb97fMzZZCnYBg1zc8hJIAy9KiNrCqqmoWsaiqJcKzREScoqiFgFwviJwoTBfq/N3YM+uiJYAGvkec6r8Yzff/2M3z8+ZuKFZE7pbSLtrINUQGEUFKpMUGRMVwGTuUerXtvx9ouSauZ6AV4YkeTZpZjB+2f7fuyCB4KoqgnybrtZwzGNa+z3JM1I0pQkTgkiwVF627zd8/GMs4s5J8MpCy8kXytspDlSVoiCR7NBq9kUFI6th5ekGWdTly9fDHkynDL1QzKl7BC52rxdfge5EH3JDcfGsc1r7WFJmjNf+by6mAkPJ0l2uYnXXkoheWUbOq26hWMZ117MvChI0owwTkjSjDwvUCUZx9JxmhbduoVlqDsfN8vyTTHIj2Khi1hWiDcv3IYLqaKbGq266AndvlBeCO5YkqYEQUwcJeRp2eJUXPL9yAo0ScLSNGzTEF00W9cpKIiimNXKY+F6hHFCIUuQb61z6WVZukrD1unUbAZNZ8OJ234U62tKssJaYeydUAhaTZLlSBkiPJcl4izDj2L8MCZJU4pC8Cd1VaHRtLAsXRDW5UuvOMsL8kzw4EI/IXJDkiC6HO6zhiwh6QoFGoqhopkKuqqKw39nixVEUYK7ClmtIuJEyMUrqoKqyRiasuN8rQ83342Yjl0mFysCBJ3o9XJrQtPSUBQajkGjZmLqu+ubFwV+FDFdesxXPkGcVmHvn42Spa8pCjXbotWoYZrX8zdJkhJEEUs3YDJbMp6vBNfqDRhNF5yPF7wcTZm6PpmMIGMWGVKaY+sGnXaTTrtRcqu2cjVpxul8xRfHI56dT1mGsfDObnrQ61ansjXPtgRN52o7UJJmzN2A04s5k6VHlGyphNxg+CgKVFmmZhn023VatevN5VleECcZfihEXfO8EAojtsFeq86gZmNrV4niOXEUC9HQKCnVSth5c4q8QKbAsgzatk6nZpZFoa2PWFJQglAozmRJWtJs5EsrVBZfFEnC0BRsQy1pL7uHRxwlrFwf1/WJkkQMl5d33mTh6WgKh80aD/daHDSda99N3LIop4oV5IXEm4/I3TXP0oI8E/tKUUFWFcIkxw8ifD8URqcoRC7VMWg1LWxL33RtbJ5LlpMkQvYrjRIKP6GI0nK4z67xQ1eRFBnF0tENDcNQS1L9Fc8vTlktA9xVQFIIL01SJFRZQl2nn7lMa+RFQRjGrKYe7swjNVUw1ZsN1SV5D1NTadcdus0a9hX+a1HkeEHMZO4xW4lntZP7fs/w4xq/dT+vWlIymrVNN8M2ojhmvvQYTRecnE04OZ8QJwlX3fdtjBcu4/mK4cJj7gWkCGJuUW4r09Bp1BzqNQdN3j014zRnsvR5dj7l1XQlNsDr8pCl8ZMK0BQFy1AxdBG6bCPLC4I4EZPtw5hk23gXmz8oa0BQCApJs2Zx0GvRaTqYV/QN0yzHCyNmK2/DZ1RVhZZtctSu06+bWDco8AZRwmLl4UexEMy8GraUnp9jqPQaNr2mg2XuGj+hrZjgegF+GJEk6cZD23yR0vhpshB4cCx9hzohfqogSmJWrs9y5RNH8eb7rz9LUa6xqcj0axb3ug26joWuXl3jnLRUwQmjFD/MSHMh5nljuFsUbLTugCzJSJMMSQZFU1E0hclkzngyZzhb4AYReQG6rlKvG7TbDo6jo64LIVvPZX0wpGFCHqcixaEVO/eXZQml7KU2bR3DUHf62dfqzkmaEUUJnh/hh4nIW6oKsipaz64WhddfLYlTfD/C9yKxBPoNpfpC/JWqyJiSTNMy6JRjBSxd29EKyUou5sXSZbzyhaTadr/8e4YfMewtNgKhuqxs+Gi2ZV2jZCzcgJdnFzw7GfHd8QVPTy5E/usNLrcbxeK/MGYeiFaedS5MMnRkXUFVLk9NKN9VSvZ6IiSvhJimAuoPe8CqIlEzBGdssvDRJV9Udcviw9axzbr32LBM9gYdPnl4xNFej7q9S/wOo5iL6ZKnx0Mu5iuCNEXRFGqO6Odt1u1rU7eSNGPhCbXkZRAK47Dujd6CLEnULINBu0G/Vcex9N2wNy+I4wwvCAmiWOjMbed/tt5zXdOo1xxa9Qa2aewIJxQFBOVslYUbCGWYWOgUFoh1KPsS37rGYRiz8gMmsxXfPRvx9NmQVRCLg2v78NqIfRbCkOii6JDnIjcoycLrk1UF1w3wXI/RZM7z0YyYgoZl0Kk77LfrNGwT7cp+XYtdzFcrgiQmv6q8XeoP6ppK09ZpWUJjz7xizNMsL1viAqI4FqmetZrzG1o6146YpCqiqlvmcot1b9p64ct1cAydXtNmUHe4f9ij165Rs0z0K2FvkRcsgohXM4/zpY9bqmy/k8jqTxA/ibBXkHFtOo06lqFfI+Mulh7Hp2O+fnrCo2dDvn42Iki2BENvQC5BLktkkuioyIpc/LysIlkasqagKNLuO0EpuJtDluQQZsL4yRI/dDiBIis4JWG2bupoa+kruNzEa6XlMglu2Ab9XotPHh7RbdbQr1QTgyhmNF3w9Pici9mCME3RdJV6zaLfEqGyecX4pVnGyg0YTVYsvZB4nbSWdo2WJF2OFOi3Bcdt1/MrxItZGr+kuNmIgmjwbzgO7UbtWqdJAYSx0IabuT6hH19WwcXKsSkwvAVRHDOdr3jx6oL/73eP+O//9LXo5jBVMLaeXwaEKUSZ+LeaKugnZeuh0AoUleYsTknTlCRKCKKEWCowbY1u02G/U6d5g/GLkpSV6zJfugRJLCT4t1WOS9VnXZfomgZH3Tr9uoGpXX9WYRSVPdepMH7rVMlrigxS+exkSRI6l6YqKEOKJKhC2zSFJIMsx7ZNDrsNPrnb5/5Rh167gbNWHdoO54uCRRhzsnAZrnyRH1VKSfHK+H1fiEVTVdEgbltCUulq1cwNQ86nS44v5pzPVkw8nzDJdjfUVay1+9a0hgJ0VcHUVbp1m5qto6nyzjMTxYCMOIrJ0lRQEdbu4Gu/ggibcgS1YelFuEG006MJgs4z6DX55MEhcVoQhoLHl1CQSGJItKHKGKqKU7OxGzaf3Nvjo7t7tOrOpt0vLwriOCEq5w+fjxe8Op8x86JSjEDHNDSaDVF4udofnaa5IKrOl7jBpQ7bbnGhHCNq6LQbNdoNB9Pc7VsV8mJC9dj1SyXfddZ9zaksISsyuqFjGAbaFdFZCWg4Jvu9Ng8PfWzDpGabJEVBLkOSF6yCGNePiOKMiRtwOnOZrakWW1AkMZzH1DUURSInx4tDgijDy/NSnFUWSX1Vp+7omA0TvWmj181LgyJLFKUhH17MGa58Fit/k57QVY2aI8jltmVci1TiJMENAla+aIXMofTYuFzjvECTZRqOyUG7TqvkCW5DjIeMmC5c3Kgctbre75koqqRpTpLmG+WV9dIqssxep8l/+OiIpMjxgohVKaYAZXuiLGHICnf6LT5/uM/nH+xz/7BHs3aFNlNWy+M0IwwSAjci8OP3Trb+Kn5c41cO/pFVGb1UGFFk6Vok60cJ46XHaO6xylLyMkn8xkTrdvhVJsxNU6PvGNzp1OnYBvrVvFyaEkcxYRCQxMnrSb3bkMR3yCTwopjJwqW/9DYUjDVMQ+fOfh/T0FE10VGiazKrKMaLYnRdo1O3addtjg77HB30eHDY48PDwc5Lkec5rh8wW3qcjmacXywYTlzCVAw9UmRxr3rNKpVxroRSqZi6tVis8MsZIde8iDL0M3WNZt2iUXMwdX0nCZ/nBWEYMV94IixL09d7I5Ik8lOaelkxL6HIMvu9Nr/69B7tpsNoLNoFoyQhzjLcMOLF2ZTnpWjs6WxFTMHHc09UG7fX2NTpterkWcEHD/c4u5ghOyqv5i7e3MUwhEJNv2nzcK/Hw0GHXq9Fq1un3qzt7KdCEnSjf/73J/zTH74tjZ84GDRVFOiaDQfrBuOXJCmeH+N6waZIssE6gi8KVFmiYZkMOnWajn2NIRCX7XGjqZgznaw9v6IQJPg4I4lzojhFUxU07ZJALkkSDw+7/NfffMpht8mLswtenI3FIYXIT7frjhjjsN/l0/v7fHJ/j267gX11cFhWCBWXMBM5zDCmCFMkQ4wXeF/x433yUsKKcv6GpisY+s3EBD9MhfFbeLhJRq4roqr4LtgkzHMsRaZXs7jbrtG+IVzJsowojAjCgDTZMn5vOtxkQJHIJSGicDFbMug26bZ3lTUs0+BoX+dgr4Msy6RpiizlTJYek6WPbRocDZrc6Xf4/OO7/Ozj++z3WoJYfKWSuHQDzsczTkdTzi4WjCarja7hWkap4djYpnmNHiPkq0JmixVBWI4c3NB3pM0LLhVCbqlZzvUwDO2a5+eHMbOly9LzSZKt6+yslwidZEXeJOi3zytZltjrNLBNjaNBh+FUfB8/DAiDkPHcJQoTTi+WzPwQL8sYhzH/uBDGrygNwrqIZRqCbPzwwR6T5YpEg/ClxCiIsOomrZrBwX6Xn392j3/4/D73D/oc7nXobUtAleIZaZ4TRwnfPDvnSXG+w05wbItmo45l3EzN8oMQ1wuJbjpEN9cR1fxBq07Dua7sHCdb+Vk/JF3LR5fti3kiumjCSBwCqnpJkVFkqVSqcXhw0ObfvrbQyDdEeUNXORh0ONzr8OBowEd39/jwzt6NW3zNKgijlCRMyf1EdIUoElzXBHlv8Lc3fuvTU5Kp1Uzqusqg7WAb1z/KumwvOE4Ry2VATPFuHtnVC5XKxi3Hot8pE9VXDEMYC7LtZO7hRjGZRBnKveHakoSkyMRFzvF0gfb0FWgqrUaNh0d9tiXqRUQl0W3V+fThIXXbwg0jvCBC1zXaNZtWXcgbOaV23vp31839C9fn0Yshf/zmBV88PeFs7l5KSRUFSiHhWBbdbptms46u7+7OOM2Ye0KefeYFYvbChsPIZfV6Td0xDJGOUHe7KLI8Z+mJdMRk4RFc6/OUNjpvUZoyX7hMp3PqlkH9SgujXurJgRCMbdg285XHYumSZoLMK8tl4SPJKEjwlmJg9sVUSG2tc1QgiMcHvQ6/+OwBnU6Tjz+4yz9OV1imhm2IfN2Dgy739rt0WnWMco3WGY7hbMWTkyGPj0f8jy+fMpot2fxAlqMrCk3Hot+uUXPMa5X9KIqZrTzGCxcvjLb4dbsbSZFlLFOnXrOxrOtqyUkq9B4XS7fU38vL/Ky43twPeHZ6zv53DgeDDgel7Nh6X+qahmMWDDot/sOHR9Qcc0MRU1WFdr1Gs2HTazVoOK+X+Y8TMVJ0tlrix5HwO97zkBd+JONXZAWaLtFxTPZbDoNmDftKjmybrxTFCatlwGoRkBlK2Xnwjgu/rqCWysZNx2TQalBzzB1GPEAYpcxdn4vFCi+Mycv8zxvvJUsgKUQUHM8WzMMI0zL5+P4BeZk726iglP/vNGuYusad/b4gCmc5iixtVDRsQ8e0jI2IKkCaCq7jZOHy+MUZ//3fn/LtqxGLIEYytbIynaIWULMsep02rUZNdHdsIU5SwTecLpn7IUleiAT/dj6qHBCuK0o5UPz6SIE0y8UkufGC8cLFj68Yv/XaKTJhkjBfLplMZsidJnY5HEksiXhJZUVG13XqtkWSpVxMl4x0BS+KsExNFEnyHFIgTfAWPheTOcPJnH6nKXKi5fPUNIWDQZtGzeLDewcEZbFinfMT4qEGNVP0POuattGqS3M4n7r805++47/9jy+5mCwZz9wr+0gpFbIb1ww5QBAnzJY+47mgIOVrj+3KNlIUuUxR2MKDvLIf0yQl8AIWyxVBFIm2QVkCWYGiYOH7PD8d0q7pyAr02jWs0hWTEIfKevh83bG4fzDYNAdIklR+dzHQyNBf78IlacLK9US0EEeCM/vGmTnvB34E48eGwNtwRJWp27SxrgwrKvKCNM8EZyoSw3HCKAZZFwOYv8+6l3kWoyRw7nUbQkDhSlU5ihMWK5/ZwiOIEzJ4uzR3uakzYO5GzN2QZ2djnr264NnphRgcY+mYui44WbKMY5k4lvmGi4qPnGU5cZwQJ6L39WK25OXZhK+fn/Po5Tmn05VoAdMUpCynSCVkRcE0NBo1C8syrzF00jRn6UVczFYsY8GJu2kTr18eoSRtXutbzbKClR8xnK6YLj2CKNs9KCSplNRXWPgBL84ndBu2KMpoKjXHQivHAijlBLPt8y9OUpauhyzLotti4znlFDnMFh5PX46omQZJkmHqKqYhOkgURaZRs3cUcF6HNMtEHjSMWAYJCz/iT9+94o9PTvjtoxdiIFNe7OSP16T8TrOGY+rXcn5+lDBe+YwWrogg4PohWoAqydiWKSTJ7OtS/3GasvQDxjOR89vQiUosg5DnZ2MsVcaxLfrtJgUiVyu4pmJd1x1UbA2F2kaSZqJSvgjQVNFip5YajLIklaIcISvPJ0iSd3MK3gP8aDk/VRECjYOy0nWVj5ZtFHyFrHqW30DG/Z4wDI12sy68goaDejXBnCR4rs9y5QlDK3HJq3oXFKKwMp4s+Nevn0Ga8OHdfT6+u8deuy4qsVe4UzdeBuH1Ch7fgvF0zncnY759ecGTkyHfnk/x4lQYvnW+SZGRDA3J1FB0BbUkv169U5ZmBH7EbOoTSZBeXdOSRiGpokLr2Bb2egDOdu4xz/G8iIupy2wZEmdbA2yQQCpKGgQMFy6/f3zMyg1Y+hGyLLHfb9NwrNcaqDhOWbki5PPDcii2KgMyhSxxMl3w26+es1wFuEGEqin02/VNe+G7Ioxilm7AeL7im5cjvnk54uvjIU+PhyK9sj4YFFloWEmlSKyhU7fNcu7JrvFzo5Tzpc/J3GURJWQSW2IYl/w6TZZpOjZ7vQ6tpnNtWmEcp8zcgLPZiqUfCUL6lvFb+DEvz2fkcY5hmZiGxsNgwEG/w+A1hu4m+H7I2XjGcDKn127Sa4th8pqqICmSGAWRZPjrNsrvm3b6ieJHM36KIlG3DPqtupgLem1MZUYcxyJpHJUacFf7ar8nTEOn06qxP+jSrDvXTtokTnE9n+XKJVyTSr+n4SPLGU9X/NtXzzk7H/M///pTHEOlVubwjCsKMjdfqiipMzGj6Zxvn5/yb1+/5HdfveTrZ0MSVSJWJFC2POByeptkqsiajCrfnK5Msxzfj1nMPTJdpTA1wQNbo/TYJFVBMzUcW3ipV5dBzFCOGU895suAQldF5W/zc9KG/T+cu0znLqfDGbIs06mLF0vXVHbLQpeIk5SV5zNb+JfPohxElcsSryZLhqMFo4sFmirTb9eQpVKth+9h/GKhI/jidMS//PsT/u/fP+HleE5clL1A67xvIaq/IPJltmlQdyyRl72yOF6UMFx4vFp4gji99oLFw92Ez6pUUl36bWzzOr81TITIwNlkxTwU1V5p2/PzI7y5z2Lui7kjqgiHTUP/XsbPDSJOzid88+yED+4eoio6piaq+6oikWU5UZIKnmOa8Xdi+34E41d6FnFWMFz5PD6fEiBxvgwYPB9ufixORKjrhxFfHQ+ZR7EI764O6X7r/cSpW6gyMz/k65MR5hcmlq5jG7tiAc+Oz3jy4oznwzlTV7TEvbt7LyFJBYUsEWUZU190T/zpu1dQSLw8ndKs2TQaFpahYWnaTsFlLTgQpZkI86OU+dITsydGE749GXM6X7FMEiRJEc2nOx6b+MMNY75+fs7/8S9f0rhhVu2T52e8GM9J14opV4vmEqDIJBI8P5vw//zxCc/Pp9euM5wueHQyxM1SsvWEtKvLVH6mNBdctKkX8uTVBbal82o0p92s0647ux0LJV4Nx7w4u+D5qwuGc0/QPJRLg5pQEGcZF27ANycXGJbB09MJnWadVkMI1Nq6hq6K0E+RZbI833A5/SjBi8pCzHLF2XjO1y+HnC9cVmF8TVFm7Q0Xucpw6fG7xy+Rb5CtB/jXRy8YzlZCMOKGfYIsUhXLNOHrkxH/7XePhBZgsbuEj1+c8vj0glkY4Se5yPltV9wlITrrphkn0yXaszNWccrpzOXxyRjbULFNDVNVUWQZWVl3sZRrECf4YcJwMufFqwtOzseczwOeDee0G3V0TUbTFDFn5mLGyWjG2XRFmOV/FwUPyfpf//e/rR0vCceGptCqWXRqQrGkbpnYW95fluXlS5NxPllyNl2y9MLyBfgeBnArUd1p2Rx0mgzaDVRJNIVv00jmK5/F0mPu+ayiFC9ORJ6lrK6963dTZDFIW1cVupZJz7Hp1GyaDYtm0xay6HVrp10tiBJWfiQkwpfC41n6EW4Q4oUR8yBk7kWsoviN07Jqps6dbou7vea13leA2Srg5XDCq9FcqKdc3cRbNIw7vTZ3B23qN8w48aOE46F4IcJScv61L8Omk0ehV7fo1x1qho6piRcT9frnWPkRS9dn5QXMw4hlEAtjsn4WJQHdUlV6TZte3cGxDcxyQt5ey2HQcKhbYgKaoamEcSpyiX7MaO4ynLn4UUwYJnhhxNj1uFgG4vusDfL2dyjHA/Tbde4O2hx0bvZbjycLXk0XTJb+zeuR5ZAVNGoW9/Y73NnvbIRopS23auoGgvqzcMXcl7zYDTnLSEOVJBqWQcsWBaNmzabhCHHgQcuh5ZjouihsJGlGlKR4YbJZg7kbiLV2A5yaRa0U+BWjKyWCOMHzQ9wgYuIKWf4oza6v0XuGv73xuwl5UXZTvKaVQi7n7v4lFzoTarg3+vAlcVn6oSKNBRAlFGGCocg0GjathtiUB+06nfqlZ+YGETM3YLLyuZiuuBh7uOGWodOUy8Hkb7xnuZbZa/phS2rO69oCd/BOa/R9DqKCIsk2bVWbHltVKdWjb7qQVIa7r3kWeXnNdaugLGPoKvd6de72mrQcU3hAhoYfJfhRynTlc3yx4Hi0JN60GHK5xm/bZ3+N/VoqOO9cc+1Rv+1Zrdd1XZxBFCru7TW422vSK0c12IZGlKT4UcrSD3k5WnB8scALt+bhrIUKbvzob3kW7xl+GvTsdWgq3fyQ/yqN0+XLe3PTqHStE+HPuwcbMYVckokomCcJ+cLDj1PB0SuxCcXiBDfNRVi6Fhct1Yvf7WUSPyuyhjdUcb9P3vSd1ujdLrX5LVmm0BAv9Fr6fq0GfOP3K+/zuhtJIJUzUtZeYSbBPIyRJ0umboCuKmiqQoAcSg8AAANESURBVFJ2wfhhwiJKhOCApFxe510jir/GfpUkJJmda0rv7FlJl2tQbP6KZZRxNvdYhgl6qUGY5pkgLMcpszAilcTBuv3dXieYALz5Wbxn+Gl4fnCzd7GNv/RJs7NTbrzhX+YZr0nDkpi/KiuyCLmB7c7iXCrpLRSkZc/mJsTZbMZ3/Exv+27fhyP5l16jjezVFbGCNxqMt9yn2L2WJIEmSWiShFIWJCRJEutZFGRFQVKIEYw73+5d0xvre74Jf85+fZ2H/a6/e+XXNUlCkyXU8sCTJWkjk5UXBXFRCAWja/d8043+Co7Ij4SfhucHf3s3Wtr88Ve+j6j0FQh+LllOXE6tuxz4w2U4uj7pf8gJ+5f6bn+NNdo25H/xawoUBcRZTrRWybnh598pnHzbPf/S+CHXvOHwSLKcOH3NGsDlfvs7CGH/HPx0jN9twibEKnb+7u/lRP3RUXpwIoJ8zaK+x4n6d4a8kTm4+d9/IHXsfUdl/H4M/DW8nwq7+DvKTf3Z2OYXVriGH6bQWaFChQrvKSrjV6FChVuJyvhVqFDhVqIyfhUqVLiVqIxfhQoVbiUq41ehQoVbicr4VahQ4VaiMn4VKlS4laiMX4UKFW4lKuNXoUKFW4nK+FWoUOFWojJ+FSpUuJWojF+FChVuJSrjV6FChVuJyvhVqFDhVqIyfhUqVLiVqIxfhQoVbiUq41ehQoVbicr4VahQ4VaiMn4VKlS4laiMX4UKFW4lKuNXoUKFW4nK+FWoUOFWojJ+FSpUuJWojF+FChVuJSrjV6FChVuJyvhVqFDhVqIyfhUqVLiVqIxfhQoVbiUq41ehQoVbicr4VahQ4VaiMn4VKlS4laiMX4UKFW4lKuNXoUKFW4nK+FWoUOFWojJ+FSpUuJWojF+FChVuJSrjV6FChVuJyvhVqFDhVqIyfhUqVLiVqIxfhQoVbiUq41ehQoVbicr4VahQ4VaiMn4VKlS4laiMX4UKFW4lKuNXoUKFW4nK+FWoUOFWojJ+FSpUuJWojF+FChVuJSrjV6FChVuJyvhVqFDhVqIyfhUqVLiVqIxfhQoVbiUq41ehQoVbicr4VahQ4VaiMn4VKlS4laiMX4UKFW4l/n9mWjlymvWQswAAAABJRU5ErkJggg==;" vertex="1" parent="1">
          <mxGeometry x="498" y="55" width="76.74" height="102" as="geometry" />
        </mxCell>
        <mxCell id="94biOsbA02pQEUe8V7PV-3" value="" style="endArrow=classic;startArrow=classic;html=1;rounded=0;entryX=0;entryY=0.5;entryDx=0;entryDy=0;" edge="1" parent="1" target="94biOsbA02pQEUe8V7PV-1">
          <mxGeometry width="50" height="50" relative="1" as="geometry">
            <mxPoint x="406" y="201" as="sourcePoint" />
            <mxPoint x="438" y="161" as="targetPoint" />
          </mxGeometry>
        </mxCell>
      </root>
    </mxGraphModel>
  </diagram>
</mxfile>
